SplineFontDB: 3.0
FontName: Untitled1
FullName: Untitled1
FamilyName: Untitled1
Weight: Regular
Copyright: Copyright (c) 2019, Jack
UComments: "2019-8-23: Created with FontForge (http://fontforge.org)"
Version: 001.000
ItalicAngle: 0
UnderlinePosition: -300
UnderlineWidth: 32
Ascent: 800
Descent: 200
InvalidEm: 0
LayerCount: 2
Layer: 0 0 "Back" 1
Layer: 1 0 "Fore" 0
XUID: [1021 647 -312734098 29385]
StyleMap: 0x0000
FSType: 0
OS2Version: 0
OS2_WeightWidthSlopeOnly: 0
OS2_UseTypoMetrics: 1
CreationTime: 1566577596
ModificationTime: 1567113828
OS2TypoAscent: 0
OS2TypoAOffset: 1
OS2TypoDescent: 0
OS2TypoDOffset: 1
OS2TypoLinegap: 90
OS2WinAscent: 0
OS2WinAOffset: 1
OS2WinDescent: 0
OS2WinDOffset: 1
HheadAscent: 0
HheadAOffset: 1
HheadDescent: 0
HheadDOffset: 1
Lookup: 6 0 0 "semivowels" { "semivowels contextual 0"  "semivowels contextual 1"  } ['liga' ('latn' <'dflt' > 'DFLT' <'dflt' > ) ]
Lookup: 1 0 0 "Single Substitution lookup 1" { "Single Substitution lookup 1 subtable"  } []
Lookup: 1 0 0 "Single Substitution lookup 2" { "Single Substitution lookup 2 subtable"  } []
Lookup: 4 0 1 "diphthongs" { "diphthongs subtable"  } ['liga' ('latn' <'dflt' > 'DFLT' <'dflt' > ) ]
Lookup: 6 0 0 "cec_c1" { "cec_c1 subtable"  } ['liga' ('latn' <'dflt' > 'DFLT' <'dflt' > ) ]
Lookup: 1 0 0 "Single Substitution lookup 5" { "Single Substitution lookup 5 subtable"  } []
Lookup: 6 0 0 "cec_e" { "cec_e subtable"  } ['liga' ('latn' <'dflt' > 'DFLT' <'dflt' > ) ]
Lookup: 1 0 0 "Single Substitution lookup 7" { "Single Substitution lookup 7 subtable"  } []
Lookup: 6 0 0 "cec_c3" { "cec_c3 subtable"  } ['liga' ('latn' <'dflt' > 'DFLT' <'dflt' > ) ]
Lookup: 1 0 0 "Single Substitution lookup 9" { "Single Substitution lookup 9 subtable"  } []
Lookup: 6 0 0 "ce_c" { "ce_c subtable"  } ['liga' ('latn' <'dflt' > 'DFLT' <'dflt' > ) ]
Lookup: 1 0 0 "Single Substitution lookup 11" { "Single Substitution lookup 11 subtable"  } []

StartChar: my
Encoding: 0 60256 1
Width: 940
VWidth: 2000
Flags: W
HStem: 25 50<145 794> 365 50<145 794> 705 50<145 794>
VStem: 95 50<75 365 415 705> 794 50<75 365 415 705>
CounterMasks: 1 e0
AnchorPoint: "Above" 470 0 basechar 0
LayerCount: 2
Back
SplineSet
120 730 m 29
 819 730 l 29
 819 50 l 29
 120 50 l 29
 120 730 l 29
120 390 m 29
 819 390 l 1053
EndSplineSet
Fore
SplineSet
120 755 m 2
 819 755 l 2
 834.132537856 755 844 740.729904333 844 730 c 2
 844 415 l 1
 844 390 l 1
 844 365 l 1
 844 50 l 2
 844 34.8674621445 829.729904333 25 819 25 c 2
 120 25 l 2
 104.867462144 25 95 39.2700956673 95 50 c 2
 95 365 l 1
 95 390 l 1
 95 415 l 1
 95 730 l 2
 95 745.132537856 109.270095667 755 120 755 c 2
794 415 m 1
 794 705 l 1
 145 705 l 1
 145 415 l 1
 794 415 l 1
794 365 m 1
 145 365 l 1
 145 75 l 1
 794 75 l 1
 794 365 l 1
EndSplineSet
Substitution2: "Single Substitution lookup 11 subtable" my.ce.1
Substitution2: "Single Substitution lookup 9 subtable" my.cec.3
Substitution2: "Single Substitution lookup 5 subtable" my.cec.1
EndChar

StartChar: py
Encoding: 1 60257 2
Width: 940
VWidth: 2000
Flags: W
HStem: 25 50<145 845> 365 50<145 845> 705 50<145 845>
VStem: 95 50<75 365 415 705>
CounterMasks: 1 e0
AnchorPoint: "Above" 470 0 basechar 0
LayerCount: 2
Back
SplineSet
120 390 m 5
 820 390 l 1029
820 730 m 5
 120 730 l 5
 120 50 l 5
 820 50 l 1029
EndSplineSet
Fore
SplineSet
845 730 m 1
 845 705 l 1
 820 705 l 1
 145 705 l 1
 145 415 l 1
 820 415 l 1
 845 415 l 1
 845 390 l 1
 845 365 l 1
 820 365 l 1
 145 365 l 1
 145 75 l 1
 820 75 l 1
 845 75 l 1
 845 50 l 1
 845 25 l 1
 820 25 l 1
 120 25 l 2
 109.270095667 25 95 34.8674621445 95 50 c 2
 95 365 l 1
 95 390 l 1
 95 415 l 1
 95 730 l 2
 95 740.729904333 104.867462144 755 120 755 c 2
 820 755 l 1
 845 755 l 1
 845 730 l 1
EndSplineSet
Substitution2: "Single Substitution lookup 11 subtable" py.ce.1
Substitution2: "Single Substitution lookup 9 subtable" py.cec.3
Substitution2: "Single Substitution lookup 5 subtable" py.cec.1
EndChar

StartChar: by
Encoding: 2 60258 3
Width: 940
VWidth: 2000
Flags: W
HStem: 25 50<95 795> 365 50<95 795> 705 50<95 795>
VStem: 795 50<75 365 415 705>
CounterMasks: 1 e0
AnchorPoint: "Above" 470 0 basechar 0
LayerCount: 2
Back
SplineSet
120 50 m 5
 820 50 l 5
 820 730 l 5
 120 730 l 1029
120 390 m 5
 820 390 l 1029
EndSplineSet
Fore
SplineSet
95 390 m 1
 95 415 l 1
 120 415 l 1
 795 415 l 1
 795 705 l 1
 120 705 l 1
 95 705 l 1
 95 730 l 1
 95 755 l 1
 120 755 l 1
 820 755 l 2
 830.729904333 755 845 745.132537856 845 730 c 2
 845 415 l 1
 845 390 l 1
 845 365 l 1
 845 50 l 2
 845 39.2700956673 835.132537856 25 820 25 c 2
 120 25 l 1
 95 25 l 1
 95 50 l 1
 95 75 l 1
 120 75 l 1
 795 75 l 1
 795 365 l 1
 120 365 l 1
 95 365 l 1
 95 390 l 1
EndSplineSet
Substitution2: "Single Substitution lookup 11 subtable" by.ce.1
Substitution2: "Single Substitution lookup 9 subtable" by.cec.3
Substitution2: "Single Substitution lookup 5 subtable" by.cec.1
EndChar

StartChar: fy
Encoding: 3 60259 4
Width: 940
VWidth: 2000
Flags: W
HStem: 25.5 50<174.5 795> 365 50<174.5 795>
VStem: 124.5 50<75.5 365 415 755> 795 50<75.5 365 415 755>
AnchorPoint: "Above" 470 0 basechar 0
LayerCount: 2
Back
SplineSet
150 390 m 5
 819.5 390 l 1029
149.5 730 m 5
 149.5 50.5 l 5
 820 50.5 l 5
 820 730 l 1029
EndSplineSet
Fore
SplineSet
149.5 755 m 1
 174.5 755 l 1
 174.5 730 l 1
 174.5 415 l 1
 795 415 l 1
 795 730 l 1
 795 755 l 1
 820 755 l 1
 845 755 l 1
 845 730 l 1
 845 50.5 l 2
 845 39.7700956673 835.132537856 25.5 820 25.5 c 2
 149.5 25.5 l 2
 138.770095667 25.5 124.5 35.3674621445 124.5 50.5 c 2
 124.5 730 l 1
 124.5 755 l 1
 149.5 755 l 1
174.5 365 m 1
 174.5 75.5 l 1
 795 75.5 l 1
 795 365 l 1
 174.5 365 l 1
EndSplineSet
Substitution2: "Single Substitution lookup 11 subtable" fy.ce.1
Substitution2: "Single Substitution lookup 9 subtable" fy.cec.3
Substitution2: "Single Substitution lookup 5 subtable" fy.cec.1
EndChar

StartChar: vy
Encoding: 4 60260 5
Width: 940
VWidth: 2000
Flags: W
HStem: 365 50<175 795> 705 50<175 795>
VStem: 125 50<25 365 415 705> 795 50<25 365 415 705>
AnchorPoint: "Above" 470 0 basechar 0
LayerCount: 2
Back
SplineSet
150 390 m 5
 820 390 l 1029
150 50 m 5
 150 730 l 5
 820 730 l 5
 820 50 l 1029
EndSplineSet
Fore
SplineSet
150 25 m 1
 125 25 l 1
 125 50 l 1
 125 365 l 1
 125 390 l 1
 125 415 l 1
 125 730 l 2
 125 745.132537856 139.270095667 755 150 755 c 2
 820 755 l 2
 835.132537856 755 845 740.729904333 845 730 c 2
 845 415 l 1
 845 390 l 1
 845 365 l 1
 845 50 l 1
 845 25 l 1
 820 25 l 1
 795 25 l 1
 795 50 l 1
 795 365 l 1
 175 365 l 1
 175 50 l 1
 175 25 l 1
 150 25 l 1
795 415 m 1
 795 705 l 1
 175 705 l 1
 175 415 l 1
 795 415 l 1
EndSplineSet
Substitution2: "Single Substitution lookup 11 subtable" vy.ce.1
Substitution2: "Single Substitution lookup 9 subtable" vy.cec.3
Substitution2: "Single Substitution lookup 5 subtable" vy.cec.1
EndChar

StartChar: ky
Encoding: 5 60261 6
Width: 940
VWidth: 2000
Flags: W
AnchorPoint: "Above" 470 0 basechar 0
LayerCount: 2
Back
SplineSet
820 730 m 5
 121 389 l 5
 820 50 l 1029
EndSplineSet
Fore
SplineSet
842.4689022 740.961224106 m 1
 853.430126307 718.492321906 l 1
 830.961224106 707.5310978 l 1
 178.154720084 389.066122304 l 1
 830.909206282 72.4942041044 l 1
 853.403410387 61.584997822 l 1
 842.494204104 39.0907937176 l 1
 831.584997822 16.5965896133 l 1
 809.090793718 27.5057958956 l 1
 808.191025553 27.9421641469 809.090793718 26.5057958956 809.090793718 27.5057958956 c 1
 110.090793718 366.505795896 l 2
 105.803799587 368.584896053 101.952110447 372.080357389 99.4603440679 376.309719376 c 0
 92.1657657564 388.691061573 97.123287929 405.168213508 110.038775894 411.4689022 c 2
 809.038775894 752.4689022 l 1
 831.507678094 763.430126307 l 1
 842.4689022 740.961224106 l 1
EndSplineSet
Substitution2: "Single Substitution lookup 11 subtable" ky.ce.1
Substitution2: "Single Substitution lookup 9 subtable" ky.cec.3
Substitution2: "Single Substitution lookup 5 subtable" ky.cec.1
EndChar

StartChar: cy
Encoding: 6 60262 7
Width: 940
VWidth: 2000
Flags: W
HStem: 365 50<95 407.399 528.908 845>
VStem: 445 50<26 363.815>
AnchorPoint: "Above" 470 0 basechar 0
LayerCount: 2
Back
SplineSet
120 390 m 5
 820 390 l 1029
470 290 m 5
 470 51 l 1029
120 732 m 5
 192.553033804 700.813998938 466.170737486 488.843115446 470 290 c 5
 466.56161525 481.124907868 728.808066911 702.21787871 820 730 c 1029
EndSplineSet
Fore
SplineSet
97.0319145079 741.872540141 m 1
 106.904454648 764.840625633 l 1
 129.872540141 754.968085492 l 2
 195.835855552 726.614591274 387.091457592 582.473437949 464.010168845 415 c 1
 472.760863737 415 l 1
 544.108677717 579.378818683 729.188165189 728.468125253 812.71422635 753.914796723 c 2
 836.629023073 761.200570373 l 1
 843.914796723 737.28577365 l 1
 851.200570373 713.370976927 l 1
 827.28577365 706.085203277 l 2
 764.223166744 686.872835092 600.219376485 553.892297492 528.907883685 415 c 1
 820 415 l 1
 845 415 l 1
 845 390 l 1
 845 365 l 1
 820 365 l 1
 507.598087295 365 l 1
 499.914209299 341.979563447 495.420130921 319.152140707 495 297.010213821 c 2
 495 290 l 1
 495 51 l 1
 495 26 l 1
 470 26 l 1
 445 26 l 1
 445 51 l 1
 445 289.751773426 l 2
 444.493599505 314.45290479 439.097161327 339.716979808 429.987694667 365 c 1
 120 365 l 1
 95 365 l 1
 95 390 l 1
 95 415 l 1
 120 415 l 1
 407.398776645 415 l 1
 331.306235913 556.272163332 162.014730702 686.728829458 110.127459859 709.031914508 c 2
 87.1593743673 718.904454648 l 1
 97.0319145079 741.872540141 l 1
EndSplineSet
Substitution2: "Single Substitution lookup 11 subtable" cy.ce.1
Substitution2: "Single Substitution lookup 9 subtable" cy.cec.3
Substitution2: "Single Substitution lookup 5 subtable" cy.cec.1
EndChar

StartChar: xy
Encoding: 7 60263 8
Width: 940
VWidth: 2000
Flags: W
HStem: 705.907 48.186<783.326 837.546>
VStem: 445 50<25 406.252>
AnchorPoint: "Above" 470 0 basechar 0
LayerCount: 2
Back
SplineSet
470 330 m 5
 470 50 l 1029
100 732 m 5
 176.69892145 703.636261477 465.951922485 510.848263369 470 330 c 5
 466.56161525 503.749916243 728.808066911 704.7435261 820 730 c 1029
EndSplineSet
Fore
SplineSet
76.551975554 740.671225379 m 1
 85.2232009335 764.119249825 l 1
 108.671225379 755.448024446 l 2
 179.111421726 729.398801421 390.936394165 592.076549497 467.882335454 433.861533778 c 1
 535.367096057 588.875329465 728.420211168 730.577223881 813.327207471 754.093024714 c 2
 837.420232184 760.765817243 l 1
 844.093024714 736.672792529 l 1
 850.765817243 712.579767816 l 1
 826.672792529 705.906975286 l 2
 744.252271568 683.079827467 498.23609836 489.045895259 495 336.298704435 c 2
 495 330 l 1
 495 50 l 1
 495 25 l 1
 470 25 l 1
 445 25 l 1
 445 50 l 1
 445 329.708809973 l 2
 441.116618479 489.582893324 164.218392783 681.596941096 91.3287746206 708.551975554 c 2
 67.8807501746 717.223200933 l 1
 76.551975554 740.671225379 l 1
EndSplineSet
Substitution2: "Single Substitution lookup 11 subtable" xy.ce.1
Substitution2: "Single Substitution lookup 9 subtable" xy.cec.3
Substitution2: "Single Substitution lookup 5 subtable" xy.cec.1
EndChar

StartChar: iy
Encoding: 8 60264 9
Width: 940
VWidth: 4000
Flags: W
HStem: 25 50.0179<145 844.982>
VStem: 95 50<75.0179 755>
AnchorPoint: "Above" 470 0 basechar 0
LayerCount: 2
Back
SplineSet
120 730 m 5
 120 50 l 5
 820 50.5 l 1029
EndSplineSet
Fore
SplineSet
120 755 m 1
 145 755 l 1
 145 730 l 1
 145 75.0178635204 l 1
 819.982142862 75.4999936225 l 1
 844.982136484 75.5178507608 l 1
 844.999993622 50.5178571383 l 1
 845.017850761 25.5178635159 l 1
 820.017857138 25.5000063775 l 1
 120.017857138 25.0000063775 l 2
 109.254918706 24.9923185644 95 34.8732212677 95 50 c 2
 95 730 l 1
 95 755 l 1
 120 755 l 1
EndSplineSet
Substitution2: "Single Substitution lookup 11 subtable" iy.ce.1
Substitution2: "Single Substitution lookup 9 subtable" iy.cec.3
Substitution2: "Single Substitution lookup 5 subtable" iy.cec.1
EndChar

StartChar: ry
Encoding: 9 60265 10
Width: 940
VWidth: 2000
Flags: W
AnchorPoint: "Above" 470 0 basechar 0
LayerCount: 2
Back
SplineSet
120 50 m 29
 820 730 l 1053
120 730 m 29
 820 50 l 1053
EndSplineSet
Fore
SplineSet
102.068015479 747.419642107 m 1
 119.487657585 765.351626628 l 1
 137.419642107 747.931984521 l 1
 470 424.853922568 l 1
 802.580357893 747.931984521 l 1
 820.512342415 765.351626628 l 1
 837.931984521 747.419642107 l 1
 855.351626628 729.487657585 l 1
 837.419642107 712.068015479 l 1
 505.879037938 390 l 1
 837.419642107 67.9319845215 l 1
 855.351626628 50.5123424149 l 1
 837.931984521 32.5803578934 l 1
 820.512342415 14.6483733719 l 1
 802.580357893 32.0680154785 l 1
 801.863078513 32.7648011628 802.580357893 31.0680154785 802.580357893 32.0680154785 c 1
 470 355.146077432 l 1
 137.419642107 32.0680154785 l 1
 137.419642107 31.0680154785 136.702362726 31.3712297943 137.419642107 32.0680154785 c 1
 119.487657585 14.6483733719 l 1
 102.068015479 32.5803578934 l 1
 84.6483733719 50.5123424149 l 1
 102.580357893 67.9319845215 l 1
 434.120962062 390 l 1
 102.580357893 712.068015479 l 1
 84.6483733719 729.487657585 l 1
 102.068015479 747.419642107 l 1
EndSplineSet
Substitution2: "Single Substitution lookup 11 subtable" ry.ce.1
Substitution2: "Single Substitution lookup 9 subtable" ry.cec.3
Substitution2: "Single Substitution lookup 5 subtable" ry.cec.1
EndChar

StartChar: ny
Encoding: 16 60272 17
Width: 940
VWidth: 2000
Flags: W
HStem: 25 50<145 795> 705 50<145 795>
VStem: 95 50<75 705> 795 50<75 705>
AnchorPoint: "Above" 470 0 basechar 0
LayerCount: 2
Back
SplineSet
120 730 m 5
 820 730 l 5
 820 50 l 5
 120 50 l 5
 120 730 l 5
EndSplineSet
Fore
SplineSet
120 755 m 2
 820 755 l 2
 835.132537856 755 845 740.729904333 845 730 c 2
 845 50 l 2
 845 34.8674621445 830.729904333 25 820 25 c 2
 120 25 l 2
 104.867462144 25 95 39.2700956673 95 50 c 2
 95 730 l 2
 95 745.132537856 109.270095667 755 120 755 c 2
145 705 m 1
 145 75 l 1
 795 75 l 1
 795 705 l 1
 145 705 l 1
EndSplineSet
Substitution2: "Single Substitution lookup 11 subtable" ny.ce.1
Substitution2: "Single Substitution lookup 9 subtable" ny.cec.3
Substitution2: "Single Substitution lookup 5 subtable" ny.cec.1
EndChar

StartChar: ty
Encoding: 17 60273 18
Width: 940
VWidth: 2000
Flags: W
HStem: 25 50<145 845> 705 50<145 845>
VStem: 95 50<75 705>
AnchorPoint: "Above" 470 0 basechar 0
LayerCount: 2
Back
SplineSet
820 730 m 5
 120 730 l 5
 120 50 l 5
 820 50 l 1029
EndSplineSet
Fore
SplineSet
845 730 m 1
 845 705 l 1
 820 705 l 1
 145 705 l 1
 145 75 l 1
 820 75 l 1
 845 75 l 1
 845 50 l 1
 845 25 l 1
 820 25 l 1
 120 25 l 2
 109.270095667 25 95 34.8674621445 95 50 c 2
 95 730 l 2
 95 740.729904333 104.867462144 755 120 755 c 2
 820 755 l 1
 845 755 l 1
 845 730 l 1
EndSplineSet
Substitution2: "Single Substitution lookup 11 subtable" ty.ce.1
Substitution2: "Single Substitution lookup 9 subtable" ty.cec.3
Substitution2: "Single Substitution lookup 5 subtable" ty.cec.1
EndChar

StartChar: dy
Encoding: 18 60274 19
Width: 940
VWidth: 2000
Flags: W
HStem: 25 50<95 795> 705 50<95 795>
VStem: 795 50<75 705>
AnchorPoint: "Above" 470 0 basechar 0
LayerCount: 2
Back
SplineSet
120 50 m 5
 820 50 l 5
 820 730 l 5
 120 730 l 1029
EndSplineSet
Fore
SplineSet
95 50 m 1
 95 75 l 1
 120 75 l 1
 795 75 l 1
 795 705 l 1
 120 705 l 1
 95 705 l 1
 95 730 l 1
 95 755 l 1
 120 755 l 1
 820 755 l 2
 830.729904333 755 845 745.132537856 845 730 c 2
 845 50 l 2
 845 39.2700956673 835.132537856 25 820 25 c 2
 120 25 l 1
 95 25 l 1
 95 50 l 1
EndSplineSet
Substitution2: "Single Substitution lookup 11 subtable" dy.ce.1
Substitution2: "Single Substitution lookup 9 subtable" dy.cec.3
Substitution2: "Single Substitution lookup 5 subtable" dy.cec.1
EndChar

StartChar: sy
Encoding: 19 60275 20
Width: 940
VWidth: 2000
Flags: W
HStem: 25.5 50<145 795>
VStem: 95 50<75.5 755> 795 50<75.5 755>
AnchorPoint: "Above" 470 0 basechar 0
LayerCount: 2
Back
SplineSet
120 730 m 5
 120 50.5 l 5
 820 50.5 l 5
 820 730 l 1029
EndSplineSet
Fore
SplineSet
120 755 m 1
 145 755 l 1
 145 730 l 1
 145 75.5 l 1
 795 75.5 l 1
 795 730 l 1
 795 755 l 1
 820 755 l 1
 845 755 l 1
 845 730 l 1
 845 50.5 l 2
 845 39.7700956673 835.132537856 25.5 820 25.5 c 2
 120 25.5 l 2
 109.270095667 25.5 95 35.3674621445 95 50.5 c 2
 95 730 l 1
 95 755 l 1
 120 755 l 1
EndSplineSet
Substitution2: "Single Substitution lookup 11 subtable" sy.ce.1
Substitution2: "Single Substitution lookup 9 subtable" sy.cec.3
Substitution2: "Single Substitution lookup 5 subtable" sy.cec.1
EndChar

StartChar: zy
Encoding: 20 60276 21
Width: 940
VWidth: 2000
Flags: W
HStem: 705 50<145 795>
VStem: 95 50<25.5 705> 795 50<25.5 705>
AnchorPoint: "Above" 470 0 basechar 0
LayerCount: 2
Back
SplineSet
820 50.5 m 5
 820 730 l 5
 120 730 l 5
 120 50.5 l 1029
EndSplineSet
Fore
SplineSet
820 25.5 m 1
 795 25.5 l 1
 795 50.5 l 1
 795 705 l 1
 145 705 l 1
 145 50.5 l 1
 145 25.5 l 1
 120 25.5 l 1
 95 25.5 l 1
 95 50.5 l 1
 95 730 l 2
 95 740.729904333 104.867462144 755 120 755 c 2
 820 755 l 2
 830.729904333 755 845 745.132537856 845 730 c 2
 845 50.5 l 1
 845 25.5 l 1
 820 25.5 l 1
EndSplineSet
Substitution2: "Single Substitution lookup 11 subtable" zy.ce.1
Substitution2: "Single Substitution lookup 9 subtable" zy.cec.3
Substitution2: "Single Substitution lookup 5 subtable" zy.cec.1
EndChar

StartChar: gy
Encoding: 21 60277 22
Width: 940
VWidth: 2000
Flags: W
AnchorPoint: "Above" 470 0 basechar 0
LayerCount: 2
Back
SplineSet
120 730 m 29
 820 390 l 29
 120 50 l 1053
EndSplineSet
Fore
SplineSet
97.5122960356 740.922599068 m 1
 108.434895104 763.410303033 l 1
 130.922599068 752.487703964 l 1
 130.02309091 752.924607927 129.922599068 752.487703964 130.922599068 752.487703964 c 1
 830.922599068 412.487703964 l 2
 843.848894591 406.209217568 848.834722531 389.740608588 841.561430147 377.34675022 c 0
 839.021394467 373.018470699 833.887461403 368.952372027 830.922599068 367.512296036 c 2
 130.922599068 27.5122960356 l 1
 108.434895104 16.5896969672 l 1
 97.5122960356 39.0774009316 l 1
 86.5896969672 61.565104896 l 1
 109.077400932 72.4877039644 l 1
 762.779186887 390 l 1
 109.077400932 707.512296036 l 1
 86.5896969672 718.434895104 l 1
 97.5122960356 740.922599068 l 1
EndSplineSet
Substitution2: "Single Substitution lookup 11 subtable" gy.ce.1
Substitution2: "Single Substitution lookup 9 subtable" gy.cec.3
Substitution2: "Single Substitution lookup 5 subtable" gy.cec.1
EndChar

StartChar: jy
Encoding: 22 60278 23
Width: 940
VWidth: 2000
Flags: W
HStem: 365 50<95 403.354 532.415 845>
VStem: 445 50<416.341 755>
AnchorPoint: "Above" 470 0 basechar 0
LayerCount: 2
Back
SplineSet
120 390 m 5
 820 390 l 1029
470 500 m 5
 470 730 l 1029
120 50 m 5
 192.553222657 81.7506520119 466.170507813 297.558157135 470 500 c 5
 466.56148234 304.531381376 728.808045779 78.4133705858 820 50 c 1029
EndSplineSet
Fore
SplineSet
97.0970656222 39.9772460429 m 1
 87.0743116651 62.8801804207 l 1
 109.977246043 72.9029343778 l 2
 160.848965104 95.1653534686 325.403905478 223.793927084 403.354445987 365 c 1
 120 365 l 1
 95 365 l 1
 95 390 l 1
 95 415 l 1
 120 415 l 1
 426.864770298 415 l 1
 437.857177824 443.60168841 444.43795544 472.267056925 445 500.243547587 c 2
 445 730 l 1
 445 755 l 1
 470 755 l 1
 495 755 l 1
 495 730 l 1
 495 500 l 1
 495 492.81187238 l 2
 495.468303528 467.493830817 500.992645319 441.325952829 510.350417231 415 c 1
 820 415 l 1
 845 415 l 1
 845 390 l 1
 845 365 l 1
 820 365 l 1
 532.41482432 365 l 1
 605.543243671 225.09584816 765.589159693 93.1386031384 827.436814922 73.8682589189 c 2
 851.305073841 66.4314439971 l 1
 843.868258919 42.5631850782 l 1
 836.431443997 18.6949261593 l 1
 812.563185078 26.1317410811 l 2
 730.082748829 51.8307977714 550.041997796 199.338665154 476.001550901 365 c 1
 460.360314709 365 l 1
 381.658686664 198.766794357 194.922904824 55.4985897755 130.022753957 27.0970656222 c 1
 130.022753957 26.0970656222 129.106636582 26.6961554639 130.022753957 27.0970656222 c 1
 107.119819579 17.0743116651 l 1
 97.0970656222 39.9772460429 l 1
EndSplineSet
Substitution2: "Single Substitution lookup 11 subtable" jy.ce.1
Substitution2: "Single Substitution lookup 9 subtable" jy.cec.3
Substitution2: "Single Substitution lookup 5 subtable" jy.cec.1
EndChar

StartChar: yhy
Encoding: 23 60279 24
Width: 940
VWidth: 4000
Flags: W
VStem: 95 50<109.14 755> 795 50<25 670.86>
AnchorPoint: "Above" 470 0 basechar 0
LayerCount: 2
Back
SplineSet
120 730 m 29
 120 50 l 29
 820 730 l 29
 820 50 l 1053
EndSplineSet
Fore
SplineSet
120 755 m 1
 145 755 l 1
 145 730 l 1
 145 109.139636854 l 1
 802.580357893 747.931984521 l 2
 812.887952283 757.945076215 830.06988094 757.020473815 839.243403384 745.959054678 c 0
 842.98635956 741.445803924 845 735.233361552 845 730 c 2
 845 50 l 1
 845 25 l 1
 820 25 l 1
 795 25 l 1
 795 50 l 1
 795 670.860363146 l 1
 137.419642107 32.0680154785 l 2
 133.978812331 28.7254951252 127.841338339 25.5398098187 121.961427136 25.0770627014 c 0
 107.635320153 23.9496026972 95 35.6295961308 95 50 c 2
 95 730 l 1
 95 755 l 1
 120 755 l 1
EndSplineSet
Substitution2: "Single Substitution lookup 11 subtable" yhy.ce.1
Substitution2: "Single Substitution lookup 9 subtable" yhy.cec.3
Substitution2: "Single Substitution lookup 5 subtable" yhy.cec.1
EndChar

StartChar: uy
Encoding: 24 60280 25
Width: 940
VWidth: 4000
Flags: W
HStem: 25.5 50<95 795>
VStem: 795 50<75.5 755>
AnchorPoint: "Above" 470 0 basechar 0
LayerCount: 2
Back
SplineSet
120 50.5 m 5
 820 50.5 l 5
 820 730 l 1029
EndSplineSet
Fore
SplineSet
95 50.5 m 1
 95 75.5 l 1
 120 75.5 l 1
 795 75.5 l 1
 795 730 l 1
 795 755 l 1
 820 755 l 1
 845 755 l 1
 845 730 l 1
 845 50.5 l 2
 845 39.7700956673 835.132537856 25.5 820 25.5 c 2
 120 25.5 l 1
 95 25.5 l 1
 95 50.5 l 1
EndSplineSet
Substitution2: "Single Substitution lookup 11 subtable" uy.ce.1
Substitution2: "Single Substitution lookup 9 subtable" uy.cec.3
Substitution2: "Single Substitution lookup 5 subtable" uy.cec.1
EndChar

StartChar: ly
Encoding: 25 60281 26
Width: 940
VWidth: 2000
Flags: W
HStem: 25 50<95 795> 365 50<145 795> 705 50<145 845>
VStem: 95 50<415 705> 795 50<75 365>
CounterMasks: 1 e0
AnchorPoint: "Above" 470 0 basechar 0
LayerCount: 2
Back
SplineSet
820 730 m 5
 120 730 l 5
 120 390 l 5
 820 390 l 5
 820 50 l 5
 120 50 l 1029
EndSplineSet
Fore
SplineSet
845 730 m 1
 845 705 l 1
 820 705 l 1
 145 705 l 1
 145 415 l 1
 820 415 l 2
 835.132537856 415 845 400.729904333 845 390 c 2
 845 50 l 2
 845 34.8674621445 830.729904333 25 820 25 c 2
 120 25 l 1
 95 25 l 1
 95 50 l 1
 95 75 l 1
 120 75 l 1
 795 75 l 1
 795 365 l 1
 120 365 l 2
 109.270095667 365 95 374.867462144 95 390 c 2
 95 730 l 2
 95 740.729904333 104.867462144 755 120 755 c 2
 820 755 l 1
 845 755 l 1
 845 730 l 1
EndSplineSet
Substitution2: "Single Substitution lookup 11 subtable" ly.ce.1
Substitution2: "Single Substitution lookup 9 subtable" ly.cec.3
Substitution2: "Single Substitution lookup 5 subtable" ly.cec.1
EndChar

StartChar: denpabu
Encoding: 31 60287 32
Width: 940
VWidth: 0
Flags: W
HStem: 5 50<352.083 587.917> 725 50<352.083 587.917>
VStem: 75 50<275.105 504.895> 815 50<275.105 504.895>
AnchorPoint: "Above" 470 0 basechar 0
LayerCount: 2
Back
SplineSet
100 390 m 4
 100 589 266 750 470 750 c 4
 674 750 840 589 840 390 c 4
 840 191 674 30 470 30 c 4
 266 30 100 191 100 390 c 4
100 30 m 1053
470 30 m 1053
100 390 m 1053
EndSplineSet
Fore
SplineSet
125 390 m 0
 125 205.411335875 279.202421466 55 470 55 c 0
 660.797572218 55 815 205.411263439 815 390 c 0
 815 574.588664125 660.797578534 725 470 725 c 0
 279.202427782 725 125 574.588736561 125 390 c 0
75 390 m 0
 75 603.411263439 252.797572218 775 470 775 c 0
 687.202421466 775 865 603.411335875 865 390 c 0
 865 176.588736561 687.202427782 5 470 5 c 0
 252.797578534 5 75 176.588664125 75 390 c 0
EndSplineSet
EndChar

StartChar: ebu.ce.2
Encoding: 42 -1 33
Width: 0
VWidth: 0
Flags: W
HStem: 365 50<715 795>
VStem: 795 50<35 365 415 745>
AnchorPoint: "Above" 470 0 mark 0
LayerCount: 2
Back
SplineSet
740 390 m 5
 820 390 l 1029
820 720 m 5
 820 60 l 1029
EndSplineSet
Fore
SplineSet
820 745 m 1
 845 745 l 1
 845 720 l 1
 845 415 l 1
 845 390 l 1
 845 365 l 1
 845 60 l 1
 845 35 l 1
 820 35 l 1
 795 35 l 1
 795 60 l 1
 795 365 l 1
 740 365 l 1
 715 365 l 1
 715 390 l 1
 715 415 l 1
 740 415 l 1
 795 415 l 1
 795 720 l 1
 795 745 l 1
 820 745 l 1
EndSplineSet
EndChar

StartChar: obu.ce.2
Encoding: 43 -1 34
Width: 0
VWidth: 0
Flags: W
HStem: 365 50<765 845>
VStem: 715 50<25 365 415 755>
AnchorPoint: "Above" 470 0 mark 0
LayerCount: 2
Back
SplineSet
820 390 m 5
 740 390 l 1029
740 730 m 5
 740 50 l 1029
EndSplineSet
Fore
SplineSet
740 755 m 5
 765 755 l 5
 765 730 l 5
 765 415 l 5
 820 415 l 5
 845 415 l 5
 845 390 l 5
 845 365 l 5
 820 365 l 5
 765 365 l 5
 765 50 l 5
 765 25 l 5
 740 25 l 5
 715 25 l 5
 715 50 l 5
 715 365 l 5
 715 390 l 5
 715 415 l 5
 715 730 l 5
 715 755 l 5
 740 755 l 5
EndSplineSet
EndChar

StartChar: ibu.ci.2
Encoding: 44 -1 35
Width: 0
VWidth: 0
Flags: W
HStem: -155 50<145 845>
VStem: 95 50<-105 -35>
AnchorPoint: "Above" 470 0 mark 0
LayerCount: 2
Back
SplineSet
820 -130 m 5
 120 -130 l 5
 120 -60 l 1029
EndSplineSet
Fore
SplineSet
845 -130 m 1
 845 -155 l 1
 820 -155 l 1
 120 -155 l 2
 104.867462144 -155 95 -140.729904333 95 -130 c 2
 95 -60 l 1
 95 -35 l 1
 120 -35 l 1
 145 -35 l 1
 145 -60 l 1
 145 -105 l 1
 820 -105 l 1
 845 -105 l 1
 845 -130 l 1
EndSplineSet
EndChar

StartChar: my.ce.1
Encoding: 32 -1 36
Width: 940
VWidth: 0
Flags: W
HStem: 25 50<145 595> 365 50<145 595> 705 50<145 595>
VStem: 95 50<75 365 415 705> 595 50<75 365 415 705>
CounterMasks: 1 e0
AnchorPoint: "Above" 470 0 basechar 0
LayerCount: 2
Back
SplineSet
120 390 m 5
 620 390 l 1029
120 730 m 5
 620 730 l 5
 620 50 l 5
 120 50 l 5
 120 730 l 5
EndSplineSet
Fore
SplineSet
120 755 m 6
 620 755 l 6
 635.132537856 755 645 740.729904333 645 730 c 6
 645 415 l 5
 645 390 l 5
 645 365 l 5
 645 50 l 6
 645 34.8674621445 630.729904333 25 620 25 c 6
 120 25 l 6
 104.867462144 25 95 39.2700956673 95 50 c 6
 95 365 l 5
 95 390 l 5
 95 415 l 5
 95 730 l 6
 95 745.132537856 109.270095667 755 120 755 c 6
145 365 m 5
 145 75 l 5
 595 75 l 5
 595 365 l 5
 145 365 l 5
145 415 m 5
 595 415 l 5
 595 705 l 5
 145 705 l 5
 145 415 l 5
EndSplineSet
EndChar

StartChar: my.ci.1
Encoding: 64 -1 37
Width: 1200
VWidth: 0
Flags: W
HStem: 300 100<200 1000> 600 100<200 1000> 900 100<200 1000>
VStem: 100 100<400 600 700 900> 1000 100<400 600 700 900>
CounterMasks: 1 e0
AnchorPoint: "Above" 600 0 basechar 0
LayerCount: 2
Back
SplineSet
150 950 m 29
 1050 950 l 29
 1050 350 l 29
 150 350 l 29
 150 950 l 29
150 650 m 29
 1050 650 l 1053
EndSplineSet
Fore
SplineSet
150 1000 m 2
 1050 1000 l 2
 1080.26507571 1000 1100 971.459808665 1100 950 c 2
 1100 350 l 2
 1100 319.734924289 1071.45980867 300 1050 300 c 2
 150 300 l 2
 119.734924289 300 100 328.540191335 100 350 c 2
 100 950 l 2
 100 980.265075711 128.540191335 1000 150 1000 c 2
1000 700 m 1
 1000 900 l 1
 200 900 l 1
 200 700 l 1
 1000 700 l 1
1000 600 m 1
 200 600 l 1
 200 400 l 1
 1000 400 l 1
 1000 600 l 1
EndSplineSet
EndChar

StartChar: my.cec.1
Encoding: 96 -1 38
Width: 940
VWidth: 0
Flags: W
HStem: 335 50<145 595> 520 50<145 595> 705 50<145 595>
VStem: 95 50<385 520 570 705> 595 50<385 520 570 705>
CounterMasks: 1 e0
AnchorPoint: "Above" 470 0 basechar 0
LayerCount: 2
Back
SplineSet
120 545 m 5
 620 545 l 1029
120 730 m 5
 620 730 l 5
 620 360 l 5
 120 360 l 5
 120 730 l 5
EndSplineSet
Fore
SplineSet
120 755 m 2
 620 755 l 2
 635.132537856 755 645 740.729904333 645 730 c 2
 645 570 l 1
 645 545 l 1
 645 520 l 1
 645 360 l 2
 645 344.867462144 630.729904333 335 620 335 c 2
 120 335 l 2
 104.867462144 335 95 349.270095667 95 360 c 2
 95 520 l 1
 95 545 l 1
 95 570 l 1
 95 730 l 2
 95 745.132537856 109.270095667 755 120 755 c 2
145 520 m 1
 145 385 l 1
 595 385 l 1
 595 520 l 1
 145 520 l 1
145 570 m 1
 595 570 l 1
 595 705 l 1
 145 705 l 1
 145 570 l 1
EndSplineSet
EndChar

StartChar: my.cec.3
Encoding: 128 -1 39
Width: 0
VWidth: 0
Flags: W
HStem: -155 50<145 795> 35 50<145 795> 225 50<145 795>
VStem: 95 50<-105 35 85 225> 795 50<-105 35 85 225>
AnchorPoint: "Above" 470 0 mark 0
LayerCount: 2
Back
SplineSet
120 60 m 5
 820 60 l 1029
120 250 m 5
 820 250 l 5
 820 -130 l 5
 120 -130 l 5
 120 250 l 5
EndSplineSet
Fore
SplineSet
120 275 m 2
 820 275 l 2
 835.132537856 275 845 260.729904333 845 250 c 2
 845 85 l 1
 845 60 l 1
 845 35 l 1
 845 -130 l 2
 845 -145.132537856 830.729904333 -155 820 -155 c 2
 120 -155 l 2
 104.867462144 -155 95 -140.729904333 95 -130 c 2
 95 35 l 1
 95 60 l 1
 95 85 l 1
 95 250 l 2
 95 265.132537856 109.270095667 275 120 275 c 2
145 35 m 1
 145 -105 l 1
 795 -105 l 1
 795 35 l 1
 145 35 l 1
145 85 m 1
 795 85 l 1
 795 225 l 1
 145 225 l 1
 145 85 l 1
EndSplineSet
EndChar

StartChar: ebu.cec.2
Encoding: 106 -1 40
Width: 0
VWidth: 0
Flags: W
HStem: 520 50<715 795>
VStem: 795 50<325 520 570 745>
AnchorPoint: "Above" 470 0 mark 0
LayerCount: 2
Back
SplineSet
740 545 m 5
 820 545 l 1029
820 720 m 5
 820 350 l 1029
EndSplineSet
Fore
SplineSet
820 745 m 1
 845 745 l 1
 845 720 l 1
 845 570 l 1
 845 545 l 1
 845 520 l 1
 845 350 l 1
 845 325 l 1
 820 325 l 1
 795 325 l 1
 795 350 l 1
 795 520 l 1
 740 520 l 1
 715 520 l 1
 715 545 l 1
 715 570 l 1
 740 570 l 1
 795 570 l 1
 795 720 l 1
 795 745 l 1
 820 745 l 1
EndSplineSet
EndChar

StartChar: ry.cec.3
Encoding: 137 -1 41
Width: 0
VWidth: 0
Flags: W
HStem: -155 50<145 795> 35 50<145 795> 225 50<145 795>
VStem: 95 50<-105 35 85 225> 795 50<-105 35 85 225>
CounterMasks: 1 e0
AnchorPoint: "Above" 470 0 mark 0
LayerCount: 2
Back
SplineSet
1099 400 m 29
 150 400 l 5
 150 225 l 5
 1049 225 l 29
 1049 50 l 5
 100 50 l 1053
EndSplineSet
Fore
SplineSet
120 275 m 2
 820 275 l 2
 835.132537856 275 845 260.729904333 845 250 c 2
 845 85 l 1
 845 60 l 1
 845 35 l 1
 845 -130 l 2
 845 -145.132537856 830.729904333 -155 820 -155 c 2
 120 -155 l 2
 104.867462144 -155 95 -140.729904333 95 -130 c 2
 95 35 l 1
 95 60 l 1
 95 85 l 1
 95 250 l 2
 95 265.132537856 109.270095667 275 120 275 c 2
145 35 m 1
 145 -105 l 1
 795 -105 l 1
 795 35 l 1
 145 35 l 1
145 85 m 1
 795 85 l 1
 795 225 l 1
 145 225 l 1
 145 85 l 1
EndSplineSet
EndChar

StartChar: by.ci.1
Encoding: 66 -1 42
Width: 1200
VWidth: 0
Flags: W
HStem: 300 100<100 1000> 600 100<100 1000> 900 100<100 1000>
VStem: 1000 100<400 600 700 900>
CounterMasks: 1 e0
AnchorPoint: "Above" 600 0 basechar 0
LayerCount: 2
Back
SplineSet
100 350 m 25
 1050 350 l 25
 1050 950 l 1
 100 950 l 1049
100 650 m 25
 1050 650 l 1049
EndSplineSet
Fore
SplineSet
100 650 m 1
 100 700 l 1
 1000 700 l 1
 1000 900 l 1
 100 900 l 1
 100 950 l 1
 100 1000 l 1
 1050 1000 l 2
 1071.45980867 1000 1100 980.265075711 1100 950 c 2
 1100 350 l 2
 1100 328.540191335 1080.26507571 300 1050 300 c 2
 100 300 l 1
 100 350 l 1
 100 400 l 1
 1000 400 l 1
 1000 600 l 1
 100 600 l 1
 100 650 l 1
EndSplineSet
EndChar

StartChar: my.cic.1
Encoding: 160 -1 43
Width: 1200
VWidth: 0
Flags: W
HStem: 300 100<200 450> 600 100<200 450> 900 100<200 450>
VStem: 100 100<400 600 700 900> 450 100<400 600 700 900>
CounterMasks: 1 e0
AnchorPoint: "Above" 600 0 basechar 0
LayerCount: 2
Back
SplineSet
150 950 m 1
 1049 950 l 1
 1049 675 l 25
 150 675 l 1
 150 950 l 1
150 817 m 1
 1049 817 l 1049
EndSplineSet
Fore
SplineSet
150 1000 m 2
 500 1000 l 2
 530.265075711 1000 550 971.459808665 550 950 c 2
 550 350 l 2
 550 319.734924289 521.459808665 300 500 300 c 2
 150 300 l 2
 119.734924289 300 100 328.540191335 100 350 c 2
 100 950 l 2
 100 980.265075711 128.540191335 1000 150 1000 c 2
450 700 m 1
 450 900 l 1
 200 900 l 1
 200 700 l 1
 450 700 l 1
450 600 m 1
 200 600 l 1
 200 400 l 1
 450 400 l 1
 450 600 l 1
EndSplineSet
EndChar

StartChar: my.cic.3
Encoding: 192 -1 44
Width: 0
VWidth: 0
Flags: W
HStem: 0 100<750 1000> 450 100<750 1000> 900 100<750 1000>
VStem: 650 100<100 450 550 900> 1000 100<100 450 550 900>
CounterMasks: 1 e0
AnchorPoint: "Above" 600 0 mark 0
LayerCount: 2
Back
SplineSet
700 950 m 5
 1050 950 l 29
 1050 50 l 5
 700 50 l 5
 700 950 l 5
700 500 m 5
 1050 500 l 1053
EndSplineSet
Fore
SplineSet
700 1000 m 2
 1050 1000 l 2
 1080.26507571 1000 1100 971.459808665 1100 950 c 2
 1100 50 l 2
 1100 19.7349242889 1071.45980867 0 1050 0 c 2
 700 0 l 2
 669.734924289 0 650 28.5401913347 650 50 c 2
 650 950 l 2
 650 980.265075711 678.540191335 1000 700 1000 c 2
1000 550 m 1
 1000 900 l 1
 750 900 l 1
 750 550 l 1
 1000 550 l 1
1000 450 m 1
 750 450 l 1
 750 100 l 1
 1000 100 l 1
 1000 450 l 1
EndSplineSet
EndChar

StartChar: my.cce.2
Encoding: 256 -1 46
Width: 0
VWidth: 0
Flags: W
HStem: 0 100<200 700> 175 100<200 700> 350 100<200 700>
VStem: 100 100<100 175 275 350> 700 100<100 175 275 350>
CounterMasks: 1 e0
AnchorPoint: "Above" 600 0 mark 0
LayerCount: 2
Back
SplineSet
150 400 m 5
 750 400 l 29
 750 50 l 29
 150 50 l 5
 150 400 l 5
150 225 m 5
 750 225 l 1053
EndSplineSet
Fore
SplineSet
150 450 m 2
 750 450 l 2
 780.265075711 450 800 421.459808665 800 400 c 2
 800 50 l 2
 800 19.7349242889 771.459808665 0 750 0 c 2
 150 0 l 2
 119.734924289 0 100 28.5401913347 100 50 c 2
 100 400 l 2
 100 430.265075711 128.540191335 450 150 450 c 2
700 275 m 1
 700 350 l 1
 200 350 l 1
 200 275 l 1
 700 275 l 1
700 175 m 1
 200 175 l 1
 200 100 l 1
 700 100 l 1
 700 175 l 1
EndSplineSet
EndChar

StartChar: ibu.cic2
Encoding: 172 -1 47
Width: 0
VWidth: 0
Flags: W
HStem: 0 200<100.513 200>
VStem: 100 100<100 200>
AnchorPoint: "Above" 600 0 mark 0
LayerCount: 2
Back
SplineSet
550 50 m 29
 150 50 l 5
 150 200 l 1053
EndSplineSet
Fore
SplineSet
550 50 m 1
 550 0 l 1
 150 0 l 2
 119.734924289 0 100 28.5401913347 100 50 c 2
 100 200 l 1
 150 200 l 1
 200 200 l 1
 200 100 l 1
 550 100 l 1
 550 50 l 1
EndSplineSet
EndChar

StartChar: my.cci.1
Encoding: 288 -1 49
Width: 1200
VWidth: 0
Flags: W
HStem: 300 100<200 450> 600 100<200 450> 900 100<200 450>
VStem: 100 100<400 600 700 900> 450 100<400 600 700 900>
CounterMasks: 1 e0
AnchorPoint: "Above" 600 0 basechar 0
LayerCount: 2
Back
SplineSet
150 950 m 25
 500 950 l 25
 500 350 l 25
 150 350 l 25
 150 950 l 25
150 650 m 25
 500 650 l 1025
EndSplineSet
Fore
SplineSet
150 1000 m 2
 500 1000 l 2
 530.265075711 1000 550 971.459808665 550 950 c 2
 550 350 l 2
 550 319.734924289 521.459808665 300 500 300 c 2
 150 300 l 2
 119.734924289 300 100 328.540191335 100 350 c 2
 100 950 l 2
 100 980.265075711 128.540191335 1000 150 1000 c 2
450 700 m 1
 450 900 l 1
 200 900 l 1
 200 700 l 1
 450 700 l 1
450 600 m 1
 200 600 l 1
 200 400 l 1
 450 400 l 1
 450 600 l 1
EndSplineSet
EndChar

StartChar: my.cci.2
Encoding: 320 -1 50
Width: 0
VWidth: 0
Flags: W
HStem: 300 100<750 999> 600 100<750 999> 900 100<750 999>
VStem: 650 100<400 600 700 900> 999 100<400 600 700 900>
CounterMasks: 1 e0
AnchorPoint: "Above" 600 0 mark 0
LayerCount: 2
Back
SplineSet
700 950 m 29
 1049 950 l 29
 1049 350 l 29
 700 350 l 29
 700 950 l 29
700 650 m 4
 1049 650 l 1029
EndSplineSet
Fore
SplineSet
700 1000 m 2
 1049 1000 l 2
 1079.26507571 1000 1099 971.459808665 1099 950 c 2
 1099 350 l 2
 1099 319.734924289 1070.45980867 300 1049 300 c 2
 700 300 l 2
 669.734924289 300 650 328.540191335 650 350 c 2
 650 950 l 2
 650 980.265075711 678.540191335 1000 700 1000 c 2
999 700 m 1
 999 900 l 1
 750 900 l 1
 750 700 l 1
 999 700 l 1
999 600 m 1
 750 600 l 1
 750 400 l 1
 999 400 l 1
 999 600 l 1
EndSplineSet
EndChar

StartChar: ibu.cci.3
Encoding: 300 -1 51
Width: 0
VWidth: 0
Flags: W
HStem: -155 50<145 845> -155 110<95.2564 145>
VStem: 95 50<-105 -45>
AnchorPoint: "Above" 600 0 mark 0
LayerCount: 2
Fore
SplineSet
845 -130 m 1xa0
 845 -155 l 1
 820 -155 l 1xa0
 120 -155 l 2
 104.8671875 -155 95 -140.729492188 95 -130 c 2
 95 -70 l 1
 95 -45 l 1
 120 -45 l 1
 145 -45 l 1x60
 145 -70 l 1
 145 -105 l 1
 820 -105 l 1
 845 -105 l 1
 845 -130 l 1xa0
EndSplineSet
EndChar

StartChar: NameMe.289
Encoding: 289 -1 52
Width: 1200
VWidth: 0
Flags: W
HStem: 300 100<200 450> 600 100<200 450> 900 100<200 450>
VStem: 100 100<400 600 700 900> 450 100<400 600 700 900>
CounterMasks: 1 e0
AnchorPoint: "Above" 600 0 basechar 0
LayerCount: 2
Fore
SplineSet
150 1000 m 2
 500 1000 l 2
 530.265075711 1000 550 971.459808665 550 950 c 2
 550 350 l 2
 550 319.734924289 521.459808665 300 500 300 c 2
 150 300 l 2
 119.734924289 300 100 328.540191335 100 350 c 2
 100 950 l 2
 100 980.265075711 128.540191335 1000 150 1000 c 2
450 700 m 1
 450 900 l 1
 200 900 l 1
 200 700 l 1
 450 700 l 1
450 600 m 1
 200 600 l 1
 200 400 l 1
 450 400 l 1
 450 600 l 1
EndSplineSet
EndChar

StartChar: NameMe.290
Encoding: 290 -1 53
Width: 1200
VWidth: 0
Flags: W
HStem: 300 100<200 450> 600 100<200 450> 900 100<200 450>
VStem: 100 100<400 600 700 900> 450 100<400 600 700 900>
CounterMasks: 1 e0
AnchorPoint: "Above" 600 0 basechar 0
LayerCount: 2
Fore
SplineSet
150 1000 m 2
 500 1000 l 2
 530.265075711 1000 550 971.459808665 550 950 c 2
 550 350 l 2
 550 319.734924289 521.459808665 300 500 300 c 2
 150 300 l 2
 119.734924289 300 100 328.540191335 100 350 c 2
 100 950 l 2
 100 980.265075711 128.540191335 1000 150 1000 c 2
450 700 m 1
 450 900 l 1
 200 900 l 1
 200 700 l 1
 450 700 l 1
450 600 m 1
 200 600 l 1
 200 400 l 1
 450 400 l 1
 450 600 l 1
EndSplineSet
EndChar

StartChar: NameMe.291
Encoding: 291 -1 54
Width: 1200
VWidth: 0
Flags: W
HStem: 300 100<200 450> 600 100<200 450> 900 100<200 450>
VStem: 100 100<400 600 700 900> 450 100<400 600 700 900>
CounterMasks: 1 e0
AnchorPoint: "Above" 600 0 basechar 0
LayerCount: 2
Fore
SplineSet
150 1000 m 2
 500 1000 l 2
 530.265075711 1000 550 971.459808665 550 950 c 2
 550 350 l 2
 550 319.734924289 521.459808665 300 500 300 c 2
 150 300 l 2
 119.734924289 300 100 328.540191335 100 350 c 2
 100 950 l 2
 100 980.265075711 128.540191335 1000 150 1000 c 2
450 700 m 1
 450 900 l 1
 200 900 l 1
 200 700 l 1
 450 700 l 1
450 600 m 1
 200 600 l 1
 200 400 l 1
 450 400 l 1
 450 600 l 1
EndSplineSet
EndChar

StartChar: NameMe.292
Encoding: 292 -1 55
Width: 1200
VWidth: 0
Flags: W
HStem: 300 100<200 450> 600 100<200 450> 900 100<200 450>
VStem: 100 100<400 600 700 900> 450 100<400 600 700 900>
CounterMasks: 1 e0
AnchorPoint: "Above" 600 0 basechar 0
LayerCount: 2
Fore
SplineSet
150 1000 m 2
 500 1000 l 2
 530.265075711 1000 550 971.459808665 550 950 c 2
 550 350 l 2
 550 319.734924289 521.459808665 300 500 300 c 2
 150 300 l 2
 119.734924289 300 100 328.540191335 100 350 c 2
 100 950 l 2
 100 980.265075711 128.540191335 1000 150 1000 c 2
450 700 m 1
 450 900 l 1
 200 900 l 1
 200 700 l 1
 450 700 l 1
450 600 m 1
 200 600 l 1
 200 400 l 1
 450 400 l 1
 450 600 l 1
EndSplineSet
EndChar

StartChar: NameMe.293
Encoding: 293 -1 56
Width: 1200
VWidth: 0
Flags: W
HStem: 300 100<200 450> 600 100<200 450> 900 100<200 450>
VStem: 100 100<400 600 700 900> 450 100<400 600 700 900>
CounterMasks: 1 e0
AnchorPoint: "Above" 600 0 basechar 0
LayerCount: 2
Fore
SplineSet
150 1000 m 2
 500 1000 l 2
 530.265075711 1000 550 971.459808665 550 950 c 2
 550 350 l 2
 550 319.734924289 521.459808665 300 500 300 c 2
 150 300 l 2
 119.734924289 300 100 328.540191335 100 350 c 2
 100 950 l 2
 100 980.265075711 128.540191335 1000 150 1000 c 2
450 700 m 1
 450 900 l 1
 200 900 l 1
 200 700 l 1
 450 700 l 1
450 600 m 1
 200 600 l 1
 200 400 l 1
 450 400 l 1
 450 600 l 1
EndSplineSet
EndChar

StartChar: NameMe.294
Encoding: 294 -1 57
Width: 1200
VWidth: 0
Flags: W
HStem: 300 100<200 450> 600 100<200 450> 900 100<200 450>
VStem: 100 100<400 600 700 900> 450 100<400 600 700 900>
CounterMasks: 1 e0
AnchorPoint: "Above" 600 0 basechar 0
LayerCount: 2
Fore
SplineSet
150 1000 m 2
 500 1000 l 2
 530.265075711 1000 550 971.459808665 550 950 c 2
 550 350 l 2
 550 319.734924289 521.459808665 300 500 300 c 2
 150 300 l 2
 119.734924289 300 100 328.540191335 100 350 c 2
 100 950 l 2
 100 980.265075711 128.540191335 1000 150 1000 c 2
450 700 m 1
 450 900 l 1
 200 900 l 1
 200 700 l 1
 450 700 l 1
450 600 m 1
 200 600 l 1
 200 400 l 1
 450 400 l 1
 450 600 l 1
EndSplineSet
EndChar

StartChar: NameMe.295
Encoding: 295 -1 58
Width: 1200
VWidth: 0
Flags: W
HStem: 300 100<200 450> 600 100<200 450> 900 100<200 450>
VStem: 100 100<400 600 700 900> 450 100<400 600 700 900>
CounterMasks: 1 e0
AnchorPoint: "Above" 600 0 basechar 0
LayerCount: 2
Fore
SplineSet
150 1000 m 2
 500 1000 l 2
 530.265075711 1000 550 971.459808665 550 950 c 2
 550 350 l 2
 550 319.734924289 521.459808665 300 500 300 c 2
 150 300 l 2
 119.734924289 300 100 328.540191335 100 350 c 2
 100 950 l 2
 100 980.265075711 128.540191335 1000 150 1000 c 2
450 700 m 1
 450 900 l 1
 200 900 l 1
 200 700 l 1
 450 700 l 1
450 600 m 1
 200 600 l 1
 200 400 l 1
 450 400 l 1
 450 600 l 1
EndSplineSet
EndChar

StartChar: NameMe.296
Encoding: 296 -1 59
Width: 1200
VWidth: 0
Flags: W
HStem: 300 100<200 450> 600 100<200 450> 900 100<200 450>
VStem: 100 100<400 600 700 900> 450 100<400 600 700 900>
CounterMasks: 1 e0
AnchorPoint: "Above" 600 0 basechar 0
LayerCount: 2
Fore
SplineSet
150 1000 m 2
 500 1000 l 2
 530.265075711 1000 550 971.459808665 550 950 c 2
 550 350 l 2
 550 319.734924289 521.459808665 300 500 300 c 2
 150 300 l 2
 119.734924289 300 100 328.540191335 100 350 c 2
 100 950 l 2
 100 980.265075711 128.540191335 1000 150 1000 c 2
450 700 m 1
 450 900 l 1
 200 900 l 1
 200 700 l 1
 450 700 l 1
450 600 m 1
 200 600 l 1
 200 400 l 1
 450 400 l 1
 450 600 l 1
EndSplineSet
EndChar

StartChar: NameMe.297
Encoding: 297 -1 60
Width: 1200
VWidth: 0
Flags: W
HStem: 300 100<200 450> 600 100<200 450> 900 100<200 450>
VStem: 100 100<400 600 700 900> 450 100<400 600 700 900>
CounterMasks: 1 e0
AnchorPoint: "Above" 600 0 basechar 0
LayerCount: 2
Fore
SplineSet
150 1000 m 2
 500 1000 l 2
 530.265075711 1000 550 971.459808665 550 950 c 2
 550 350 l 2
 550 319.734924289 521.459808665 300 500 300 c 2
 150 300 l 2
 119.734924289 300 100 328.540191335 100 350 c 2
 100 950 l 2
 100 980.265075711 128.540191335 1000 150 1000 c 2
450 700 m 1
 450 900 l 1
 200 900 l 1
 200 700 l 1
 450 700 l 1
450 600 m 1
 200 600 l 1
 200 400 l 1
 450 400 l 1
 450 600 l 1
EndSplineSet
EndChar

StartChar: NameMe.304
Encoding: 304 -1 61
Width: 1200
VWidth: 0
Flags: W
HStem: 300 100<200 450> 600 100<200 450> 900 100<200 450>
VStem: 100 100<400 600 700 900> 450 100<400 600 700 900>
CounterMasks: 1 e0
AnchorPoint: "Above" 600 0 basechar 0
LayerCount: 2
Fore
SplineSet
150 1000 m 2
 500 1000 l 2
 530.265075711 1000 550 971.459808665 550 950 c 2
 550 350 l 2
 550 319.734924289 521.459808665 300 500 300 c 2
 150 300 l 2
 119.734924289 300 100 328.540191335 100 350 c 2
 100 950 l 2
 100 980.265075711 128.540191335 1000 150 1000 c 2
450 700 m 1
 450 900 l 1
 200 900 l 1
 200 700 l 1
 450 700 l 1
450 600 m 1
 200 600 l 1
 200 400 l 1
 450 400 l 1
 450 600 l 1
EndSplineSet
EndChar

StartChar: NameMe.305
Encoding: 305 -1 62
Width: 1200
VWidth: 0
Flags: W
HStem: 300 100<200 450> 600 100<200 450> 900 100<200 450>
VStem: 100 100<400 600 700 900> 450 100<400 600 700 900>
CounterMasks: 1 e0
AnchorPoint: "Above" 600 0 basechar 0
LayerCount: 2
Fore
SplineSet
150 1000 m 2
 500 1000 l 2
 530.265075711 1000 550 971.459808665 550 950 c 2
 550 350 l 2
 550 319.734924289 521.459808665 300 500 300 c 2
 150 300 l 2
 119.734924289 300 100 328.540191335 100 350 c 2
 100 950 l 2
 100 980.265075711 128.540191335 1000 150 1000 c 2
450 700 m 1
 450 900 l 1
 200 900 l 1
 200 700 l 1
 450 700 l 1
450 600 m 1
 200 600 l 1
 200 400 l 1
 450 400 l 1
 450 600 l 1
EndSplineSet
EndChar

StartChar: NameMe.306
Encoding: 306 -1 63
Width: 1200
VWidth: 0
Flags: W
HStem: 300 100<200 450> 600 100<200 450> 900 100<200 450>
VStem: 100 100<400 600 700 900> 450 100<400 600 700 900>
CounterMasks: 1 e0
AnchorPoint: "Above" 600 0 basechar 0
LayerCount: 2
Fore
SplineSet
150 1000 m 2
 500 1000 l 2
 530.265075711 1000 550 971.459808665 550 950 c 2
 550 350 l 2
 550 319.734924289 521.459808665 300 500 300 c 2
 150 300 l 2
 119.734924289 300 100 328.540191335 100 350 c 2
 100 950 l 2
 100 980.265075711 128.540191335 1000 150 1000 c 2
450 700 m 1
 450 900 l 1
 200 900 l 1
 200 700 l 1
 450 700 l 1
450 600 m 1
 200 600 l 1
 200 400 l 1
 450 400 l 1
 450 600 l 1
EndSplineSet
EndChar

StartChar: NameMe.307
Encoding: 307 -1 64
Width: 1200
VWidth: 0
Flags: W
HStem: 300 100<200 450> 600 100<200 450> 900 100<200 450>
VStem: 100 100<400 600 700 900> 450 100<400 600 700 900>
CounterMasks: 1 e0
AnchorPoint: "Above" 600 0 basechar 0
LayerCount: 2
Fore
SplineSet
150 1000 m 2
 500 1000 l 2
 530.265075711 1000 550 971.459808665 550 950 c 2
 550 350 l 2
 550 319.734924289 521.459808665 300 500 300 c 2
 150 300 l 2
 119.734924289 300 100 328.540191335 100 350 c 2
 100 950 l 2
 100 980.265075711 128.540191335 1000 150 1000 c 2
450 700 m 1
 450 900 l 1
 200 900 l 1
 200 700 l 1
 450 700 l 1
450 600 m 1
 200 600 l 1
 200 400 l 1
 450 400 l 1
 450 600 l 1
EndSplineSet
EndChar

StartChar: NameMe.308
Encoding: 308 -1 65
Width: 1200
VWidth: 0
Flags: W
HStem: 300 100<200 450> 600 100<200 450> 900 100<200 450>
VStem: 100 100<400 600 700 900> 450 100<400 600 700 900>
CounterMasks: 1 e0
AnchorPoint: "Above" 600 0 basechar 0
LayerCount: 2
Fore
SplineSet
150 1000 m 2
 500 1000 l 2
 530.265075711 1000 550 971.459808665 550 950 c 2
 550 350 l 2
 550 319.734924289 521.459808665 300 500 300 c 2
 150 300 l 2
 119.734924289 300 100 328.540191335 100 350 c 2
 100 950 l 2
 100 980.265075711 128.540191335 1000 150 1000 c 2
450 700 m 1
 450 900 l 1
 200 900 l 1
 200 700 l 1
 450 700 l 1
450 600 m 1
 200 600 l 1
 200 400 l 1
 450 400 l 1
 450 600 l 1
EndSplineSet
EndChar

StartChar: gy.cci.1
Encoding: 309 -1 66
Width: 1200
VWidth: 0
Flags: W
AnchorPoint: "Above" 600 0 basechar 0
LayerCount: 2
Back
SplineSet
100 1000 m 5
 555.400390625 650 l 5
 100 300 l 1029
EndSplineSet
Fore
SplineSet
100 1000 m 1
 130.468690688 1039.64415326 l 1
 585.869081313 689.644153261 l 2
 613.540987578 668.376786363 608.170874146 627.495989024 585.869081313 610.355846739 c 2
 130.468690688 260.355846739 l 1
 100 300 l 1
 69.5313093119 339.644153261 l 1
 473.348948849 650 l 1
 69.5313093119 960.355846739 l 1
 100 1000 l 1
EndSplineSet
EndChar

StartChar: jy.cci.1
Encoding: 310 -1 67
Width: 1200
VWidth: 0
Flags: W
HStem: 600 100<100 549.551>
VStem: 275 100<707.623 1000>
AnchorPoint: "Above" 600 0 basechar 0
LayerCount: 2
Back
SplineSet
100 650 m 5
 549.55078125 650 l 1029
325 769 m 5
 325 1000 l 1029
100 299.30078125 m 5
 146.641601562 332.44140625 322.5390625 557.696289062 325 769 c 5
 322.793945312 565.583007812 491.043945312 330.26953125 549.55078125 300.700195312 c 1029
EndSplineSet
Fore
SplineSet
100 650 m 1
 100 700 l 1
 549.55078125 700 l 1
 549.55078125 650 l 1
 549.55078125 600 l 1
 100 600 l 1
 100 650 l 1
325 769 m 1
 275 769 l 1
 275 1000 l 1
 325 1000 l 1
 375 1000 l 1
 375 769 l 1
 325 769 l 1
560.827421521 323.012517227 m 1
 549.55078125 300.700195312 l 1
 526.997542658 256.075634485 l 1
 464.064107221 287.882172377 379.951560017 404.689638454 323.234994881 544.135954424 c 1
 263.745071952 403.508500499 175.180193584 291.382706116 128.960670003 258.541983513 c 1
 100 299.30078125 l 1
 71.0393299971 340.059578987 l 1
 101.873173626 361.968193074 272.818735982 582.001071172 275.003390648 769.582282868 c 0
 275.338096248 798.321141607 300.879065279 821.385251146 329.503076228 818.796810184 c 0
 355.16302456 816.476406469 375.275521455 794.134303158 374.997059916 768.457782522 c 0
 373.026098643 586.718401327 539.541499379 362.376068275 572.104061791 345.324839141 c 1
 560.827421521 323.012517227 l 1
EndSplineSet
EndChar

StartChar: yhy.cci.1
Encoding: 311 -1 68
Width: 1200
VWidth: 0
Flags: W
VStem: 100 100<534.946 1000> 450 100<300 765.054>
AnchorPoint: "Above" 600 0 basechar 0
LayerCount: 2
Back
SplineSet
150 1000 m 5
 150 350 l 5
 500 950 l 5
 500 300 l 1053
EndSplineSet
Fore
SplineSet
150 1000 m 1
 200 1000 l 1
 200 534.946028496 l 1
 456.811054955 975.193551276 l 2
 471.292715225 1000.0192546 504.891381671 1007.46397493 528.504370703 991.079202169 c 0
 542.742654439 981.199426118 550 962.084041171 550 950 c 2
 550 300 l 1
 500 300 l 1
 450 300 l 1
 450 765.053971504 l 1
 193.188945045 324.806448724 l 2
 185.688729653 311.948936623 170.471701694 301.456514363 153.922854272 300.154125403 c 0
 125.270640305 297.899205394 100 321.259192262 100 350 c 2
 100 1000 l 1
 150 1000 l 1
EndSplineSet
EndChar

StartChar: NameMe.312
Encoding: 312 -1 69
Width: 1200
VWidth: 0
Flags: W
HStem: 300 100<200 450> 600 100<200 450> 900 100<200 450>
VStem: 100 100<400 600 700 900> 450 100<400 600 700 900>
CounterMasks: 1 e0
AnchorPoint: "Above" 600 0 basechar 0
LayerCount: 2
Fore
SplineSet
150 1000 m 2
 500 1000 l 2
 530.265075711 1000 550 971.459808665 550 950 c 2
 550 350 l 2
 550 319.734924289 521.459808665 300 500 300 c 2
 150 300 l 2
 119.734924289 300 100 328.540191335 100 350 c 2
 100 950 l 2
 100 980.265075711 128.540191335 1000 150 1000 c 2
450 700 m 1
 450 900 l 1
 200 900 l 1
 200 700 l 1
 450 700 l 1
450 600 m 1
 200 600 l 1
 200 400 l 1
 450 400 l 1
 450 600 l 1
EndSplineSet
EndChar

StartChar: NameMe.313
Encoding: 313 -1 70
Width: 1200
VWidth: 0
Flags: W
HStem: 300 100<100 450> 600 100<200 450> 900 100<200 550>
VStem: 100 100<700 900> 450 100<400 600>
CounterMasks: 1 e0
AnchorPoint: "Above" 600 0 basechar 0
LayerCount: 2
Back
SplineSet
550 950 m 5
 150 950 l 5
 150 650 l 5
 500 650 l 5
 500 350 l 5
 100 350 l 1029
EndSplineSet
Fore
SplineSet
550 950 m 1
 550 900 l 1
 200 900 l 1
 200 700 l 1
 500 700 l 2
 530.265075711 700 550 671.459808665 550 650 c 2
 550 350 l 2
 550 319.734924289 521.459808665 300 500 300 c 2
 100 300 l 1
 100 350 l 1
 100 400 l 1
 450 400 l 1
 450 600 l 1
 150 600 l 2
 128.540191335 600 100 619.734924289 100 650 c 2
 100 950 l 2
 100 971.459808665 119.734924289 1000 150 1000 c 2
 550 1000 l 1
 550 950 l 1
EndSplineSet
EndChar

StartChar: .notdef
Encoding: 78 -1 71
Width: 0
VWidth: 0
LayerCount: 2
Back
SplineSet
470 -42 m 5
 470 -130 l 1029
820 -42 m 5
 120 -42 l 1029
EndSplineSet
EndChar

StartChar: abu.cci.3
Encoding: 302 -1 72
Width: 0
VWidth: 0
Flags: W
HStem: -67 50<95 445 495 845>
VStem: 445 50<-155 -67>
AnchorPoint: "Above" 600 0 mark 0
LayerCount: 2
Back
Refer: 71 -1 N 1 0 0 1 0 0 2
Fore
SplineSet
845 -42 m 1
 845 -67 l 1
 820 -67 l 1
 495 -67 l 1
 495 -130 l 1
 495 -155 l 1
 470 -155 l 1
 445 -155 l 1
 445 -130 l 1
 445 -67 l 1
 120 -67 l 1
 95 -67 l 1
 95 -42 l 1
 95 -17 l 1
 120 -17 l 1
 445 -17 l 1
 470 -17 l 1
 495 -17 l 1
 820 -17 l 1
 845 -17 l 1
 845 -42 l 1
EndSplineSet
EndChar

StartChar: NameMe.321
Encoding: 321 -1 73
Width: 0
VWidth: 0
Flags: W
HStem: 300 100<750 999> 600 100<750 999> 900 100<750 999>
VStem: 650 100<400 600 700 900> 999 100<400 600 700 900>
CounterMasks: 1 e0
AnchorPoint: "Above" 600 0 mark 0
LayerCount: 2
Fore
SplineSet
700 1000 m 2
 1049 1000 l 2
 1079.26507571 1000 1099 971.459808665 1099 950 c 2
 1099 350 l 2
 1099 319.734924289 1070.45980867 300 1049 300 c 2
 700 300 l 2
 669.734924289 300 650 328.540191335 650 350 c 2
 650 950 l 2
 650 980.265075711 678.540191335 1000 700 1000 c 2
999 700 m 1
 999 900 l 1
 750 900 l 1
 750 700 l 1
 999 700 l 1
999 600 m 1
 750 600 l 1
 750 400 l 1
 999 400 l 1
 999 600 l 1
EndSplineSet
EndChar

StartChar: NameMe.322
Encoding: 322 -1 74
Width: 0
VWidth: 0
Flags: W
HStem: 300 100<750 999> 600 100<750 999> 900 100<750 999>
VStem: 650 100<400 600 700 900> 999 100<400 600 700 900>
CounterMasks: 1 e0
AnchorPoint: "Above" 600 0 mark 0
LayerCount: 2
Fore
SplineSet
700 1000 m 2
 1049 1000 l 2
 1079.26507571 1000 1099 971.459808665 1099 950 c 2
 1099 350 l 2
 1099 319.734924289 1070.45980867 300 1049 300 c 2
 700 300 l 2
 669.734924289 300 650 328.540191335 650 350 c 2
 650 950 l 2
 650 980.265075711 678.540191335 1000 700 1000 c 2
999 700 m 1
 999 900 l 1
 750 900 l 1
 750 700 l 1
 999 700 l 1
999 600 m 1
 750 600 l 1
 750 400 l 1
 999 400 l 1
 999 600 l 1
EndSplineSet
EndChar

StartChar: NameMe.323
Encoding: 323 -1 75
Width: 0
VWidth: 0
Flags: W
HStem: 300 100<750 999> 600 100<750 999> 900 100<750 999>
VStem: 650 100<400 600 700 900> 999 100<400 600 700 900>
CounterMasks: 1 e0
AnchorPoint: "Above" 600 0 mark 0
LayerCount: 2
Fore
SplineSet
700 1000 m 2
 1049 1000 l 2
 1079.26507571 1000 1099 971.459808665 1099 950 c 2
 1099 350 l 2
 1099 319.734924289 1070.45980867 300 1049 300 c 2
 700 300 l 2
 669.734924289 300 650 328.540191335 650 350 c 2
 650 950 l 2
 650 980.265075711 678.540191335 1000 700 1000 c 2
999 700 m 1
 999 900 l 1
 750 900 l 1
 750 700 l 1
 999 700 l 1
999 600 m 1
 750 600 l 1
 750 400 l 1
 999 400 l 1
 999 600 l 1
EndSplineSet
EndChar

StartChar: NameMe.324
Encoding: 324 -1 76
Width: 0
VWidth: 0
Flags: W
HStem: 300 100<750 999> 600 100<750 999> 900 100<750 999>
VStem: 650 100<400 600 700 900> 999 100<400 600 700 900>
CounterMasks: 1 e0
AnchorPoint: "Above" 600 0 mark 0
LayerCount: 2
Fore
SplineSet
700 1000 m 2
 1049 1000 l 2
 1079.26507571 1000 1099 971.459808665 1099 950 c 2
 1099 350 l 2
 1099 319.734924289 1070.45980867 300 1049 300 c 2
 700 300 l 2
 669.734924289 300 650 328.540191335 650 350 c 2
 650 950 l 2
 650 980.265075711 678.540191335 1000 700 1000 c 2
999 700 m 1
 999 900 l 1
 750 900 l 1
 750 700 l 1
 999 700 l 1
999 600 m 1
 750 600 l 1
 750 400 l 1
 999 400 l 1
 999 600 l 1
EndSplineSet
EndChar

StartChar: NameMe.325
Encoding: 325 -1 77
Width: 0
VWidth: 0
Flags: W
HStem: 300 100<750 999> 600 100<750 999> 900 100<750 999>
VStem: 650 100<400 600 700 900> 999 100<400 600 700 900>
CounterMasks: 1 e0
AnchorPoint: "Above" 600 0 mark 0
LayerCount: 2
Fore
SplineSet
700 1000 m 2
 1049 1000 l 2
 1079.26507571 1000 1099 971.459808665 1099 950 c 2
 1099 350 l 2
 1099 319.734924289 1070.45980867 300 1049 300 c 2
 700 300 l 2
 669.734924289 300 650 328.540191335 650 350 c 2
 650 950 l 2
 650 980.265075711 678.540191335 1000 700 1000 c 2
999 700 m 1
 999 900 l 1
 750 900 l 1
 750 700 l 1
 999 700 l 1
999 600 m 1
 750 600 l 1
 750 400 l 1
 999 400 l 1
 999 600 l 1
EndSplineSet
EndChar

StartChar: NameMe.326
Encoding: 326 -1 78
Width: 0
VWidth: 0
Flags: W
HStem: 300 100<750 999> 600 100<750 999> 900 100<750 999>
VStem: 650 100<400 600 700 900> 999 100<400 600 700 900>
CounterMasks: 1 e0
AnchorPoint: "Above" 600 0 mark 0
LayerCount: 2
Fore
SplineSet
700 1000 m 2
 1049 1000 l 2
 1079.26507571 1000 1099 971.459808665 1099 950 c 2
 1099 350 l 2
 1099 319.734924289 1070.45980867 300 1049 300 c 2
 700 300 l 2
 669.734924289 300 650 328.540191335 650 350 c 2
 650 950 l 2
 650 980.265075711 678.540191335 1000 700 1000 c 2
999 700 m 1
 999 900 l 1
 750 900 l 1
 750 700 l 1
 999 700 l 1
999 600 m 1
 750 600 l 1
 750 400 l 1
 999 400 l 1
 999 600 l 1
EndSplineSet
EndChar

StartChar: NameMe.327
Encoding: 327 -1 79
Width: 0
VWidth: 0
Flags: W
HStem: 300 100<750 999> 600 100<750 999> 900 100<750 999>
VStem: 650 100<400 600 700 900> 999 100<400 600 700 900>
CounterMasks: 1 e0
AnchorPoint: "Above" 600 0 mark 0
LayerCount: 2
Fore
SplineSet
700 1000 m 2
 1049 1000 l 2
 1079.26507571 1000 1099 971.459808665 1099 950 c 2
 1099 350 l 2
 1099 319.734924289 1070.45980867 300 1049 300 c 2
 700 300 l 2
 669.734924289 300 650 328.540191335 650 350 c 2
 650 950 l 2
 650 980.265075711 678.540191335 1000 700 1000 c 2
999 700 m 1
 999 900 l 1
 750 900 l 1
 750 700 l 1
 999 700 l 1
999 600 m 1
 750 600 l 1
 750 400 l 1
 999 400 l 1
 999 600 l 1
EndSplineSet
EndChar

StartChar: NameMe.328
Encoding: 328 -1 80
Width: 0
VWidth: 0
Flags: W
HStem: 300 100<750 999> 600 100<750 999> 900 100<750 999>
VStem: 650 100<400 600 700 900> 999 100<400 600 700 900>
CounterMasks: 1 e0
AnchorPoint: "Above" 600 0 mark 0
LayerCount: 2
Fore
SplineSet
700 1000 m 2
 1049 1000 l 2
 1079.26507571 1000 1099 971.459808665 1099 950 c 2
 1099 350 l 2
 1099 319.734924289 1070.45980867 300 1049 300 c 2
 700 300 l 2
 669.734924289 300 650 328.540191335 650 350 c 2
 650 950 l 2
 650 980.265075711 678.540191335 1000 700 1000 c 2
999 700 m 1
 999 900 l 1
 750 900 l 1
 750 700 l 1
 999 700 l 1
999 600 m 1
 750 600 l 1
 750 400 l 1
 999 400 l 1
 999 600 l 1
EndSplineSet
EndChar

StartChar: NameMe.329
Encoding: 329 -1 81
Width: 0
VWidth: 0
Flags: W
HStem: 300 100<750 999> 600 100<750 999> 900 100<750 999>
VStem: 650 100<400 600 700 900> 999 100<400 600 700 900>
CounterMasks: 1 e0
AnchorPoint: "Above" 600 0 mark 0
LayerCount: 2
Fore
SplineSet
700 1000 m 2
 1049 1000 l 2
 1079.26507571 1000 1099 971.459808665 1099 950 c 2
 1099 350 l 2
 1099 319.734924289 1070.45980867 300 1049 300 c 2
 700 300 l 2
 669.734924289 300 650 328.540191335 650 350 c 2
 650 950 l 2
 650 980.265075711 678.540191335 1000 700 1000 c 2
999 700 m 1
 999 900 l 1
 750 900 l 1
 750 700 l 1
 999 700 l 1
999 600 m 1
 750 600 l 1
 750 400 l 1
 999 400 l 1
 999 600 l 1
EndSplineSet
EndChar

StartChar: NameMe.336
Encoding: 336 -1 82
Width: 0
VWidth: 0
Flags: W
HStem: 300 100<750 999> 600 100<750 999> 900 100<750 999>
VStem: 650 100<400 600 700 900> 999 100<400 600 700 900>
CounterMasks: 1 e0
AnchorPoint: "Above" 600 0 mark 0
LayerCount: 2
Fore
SplineSet
700 1000 m 2
 1049 1000 l 2
 1079.26507571 1000 1099 971.459808665 1099 950 c 2
 1099 350 l 2
 1099 319.734924289 1070.45980867 300 1049 300 c 2
 700 300 l 2
 669.734924289 300 650 328.540191335 650 350 c 2
 650 950 l 2
 650 980.265075711 678.540191335 1000 700 1000 c 2
999 700 m 1
 999 900 l 1
 750 900 l 1
 750 700 l 1
 999 700 l 1
999 600 m 1
 750 600 l 1
 750 400 l 1
 999 400 l 1
 999 600 l 1
EndSplineSet
EndChar

StartChar: NameMe.337
Encoding: 337 -1 83
Width: 0
VWidth: 0
Flags: W
HStem: 300 100<750 999> 600 100<750 999> 900 100<750 999>
VStem: 650 100<400 600 700 900> 999 100<400 600 700 900>
CounterMasks: 1 e0
AnchorPoint: "Above" 600 0 mark 0
LayerCount: 2
Fore
SplineSet
700 1000 m 2
 1049 1000 l 2
 1079.26507571 1000 1099 971.459808665 1099 950 c 2
 1099 350 l 2
 1099 319.734924289 1070.45980867 300 1049 300 c 2
 700 300 l 2
 669.734924289 300 650 328.540191335 650 350 c 2
 650 950 l 2
 650 980.265075711 678.540191335 1000 700 1000 c 2
999 700 m 1
 999 900 l 1
 750 900 l 1
 750 700 l 1
 999 700 l 1
999 600 m 1
 750 600 l 1
 750 400 l 1
 999 400 l 1
 999 600 l 1
EndSplineSet
EndChar

StartChar: NameMe.338
Encoding: 338 -1 84
Width: 0
VWidth: 0
Flags: W
HStem: 300 100<750 999> 600 100<750 999> 900 100<750 999>
VStem: 650 100<400 600 700 900> 999 100<400 600 700 900>
CounterMasks: 1 e0
AnchorPoint: "Above" 600 0 mark 0
LayerCount: 2
Fore
SplineSet
700 1000 m 2
 1049 1000 l 2
 1079.26507571 1000 1099 971.459808665 1099 950 c 2
 1099 350 l 2
 1099 319.734924289 1070.45980867 300 1049 300 c 2
 700 300 l 2
 669.734924289 300 650 328.540191335 650 350 c 2
 650 950 l 2
 650 980.265075711 678.540191335 1000 700 1000 c 2
999 700 m 1
 999 900 l 1
 750 900 l 1
 750 700 l 1
 999 700 l 1
999 600 m 1
 750 600 l 1
 750 400 l 1
 999 400 l 1
 999 600 l 1
EndSplineSet
EndChar

StartChar: NameMe.339
Encoding: 339 -1 85
Width: 0
VWidth: 0
Flags: W
HStem: 300 100<750 999> 600 100<750 999> 900 100<750 999>
VStem: 650 100<400 600 700 900> 999 100<400 600 700 900>
CounterMasks: 1 e0
AnchorPoint: "Above" 600 0 mark 0
LayerCount: 2
Fore
SplineSet
700 1000 m 2
 1049 1000 l 2
 1079.26507571 1000 1099 971.459808665 1099 950 c 2
 1099 350 l 2
 1099 319.734924289 1070.45980867 300 1049 300 c 2
 700 300 l 2
 669.734924289 300 650 328.540191335 650 350 c 2
 650 950 l 2
 650 980.265075711 678.540191335 1000 700 1000 c 2
999 700 m 1
 999 900 l 1
 750 900 l 1
 750 700 l 1
 999 700 l 1
999 600 m 1
 750 600 l 1
 750 400 l 1
 999 400 l 1
 999 600 l 1
EndSplineSet
EndChar

StartChar: NameMe.340
Encoding: 340 -1 86
Width: 0
VWidth: 0
Flags: W
HStem: 300 100<750 999> 600 100<750 999> 900 100<750 999>
VStem: 650 100<400 600 700 900> 999 100<400 600 700 900>
CounterMasks: 1 e0
AnchorPoint: "Above" 600 0 mark 0
LayerCount: 2
Fore
SplineSet
700 1000 m 2
 1049 1000 l 2
 1079.26507571 1000 1099 971.459808665 1099 950 c 2
 1099 350 l 2
 1099 319.734924289 1070.45980867 300 1049 300 c 2
 700 300 l 2
 669.734924289 300 650 328.540191335 650 350 c 2
 650 950 l 2
 650 980.265075711 678.540191335 1000 700 1000 c 2
999 700 m 1
 999 900 l 1
 750 900 l 1
 750 700 l 1
 999 700 l 1
999 600 m 1
 750 600 l 1
 750 400 l 1
 999 400 l 1
 999 600 l 1
EndSplineSet
EndChar

StartChar: NameMe.341
Encoding: 341 -1 87
Width: 0
VWidth: 0
Flags: W
HStem: 300 100<750 999> 600 100<750 999> 900 100<750 999>
VStem: 650 100<400 600 700 900> 999 100<400 600 700 900>
CounterMasks: 1 e0
AnchorPoint: "Above" 600 0 mark 0
LayerCount: 2
Fore
SplineSet
700 1000 m 2
 1049 1000 l 2
 1079.26507571 1000 1099 971.459808665 1099 950 c 2
 1099 350 l 2
 1099 319.734924289 1070.45980867 300 1049 300 c 2
 700 300 l 2
 669.734924289 300 650 328.540191335 650 350 c 2
 650 950 l 2
 650 980.265075711 678.540191335 1000 700 1000 c 2
999 700 m 1
 999 900 l 1
 750 900 l 1
 750 700 l 1
 999 700 l 1
999 600 m 1
 750 600 l 1
 750 400 l 1
 999 400 l 1
 999 600 l 1
EndSplineSet
EndChar

StartChar: NameMe.342
Encoding: 342 -1 88
Width: 0
VWidth: 0
Flags: W
HStem: 300 100<750 999> 600 100<750 999> 900 100<750 999>
VStem: 650 100<400 600 700 900> 999 100<400 600 700 900>
CounterMasks: 1 e0
AnchorPoint: "Above" 600 0 mark 0
LayerCount: 2
Fore
SplineSet
700 1000 m 2
 1049 1000 l 2
 1079.26507571 1000 1099 971.459808665 1099 950 c 2
 1099 350 l 2
 1099 319.734924289 1070.45980867 300 1049 300 c 2
 700 300 l 2
 669.734924289 300 650 328.540191335 650 350 c 2
 650 950 l 2
 650 980.265075711 678.540191335 1000 700 1000 c 2
999 700 m 1
 999 900 l 1
 750 900 l 1
 750 700 l 1
 999 700 l 1
999 600 m 1
 750 600 l 1
 750 400 l 1
 999 400 l 1
 999 600 l 1
EndSplineSet
EndChar

StartChar: NameMe.343
Encoding: 343 -1 89
Width: 0
VWidth: 0
Flags: W
HStem: 300 100<750 999> 600 100<750 999> 900 100<750 999>
VStem: 650 100<400 600 700 900> 999 100<400 600 700 900>
CounterMasks: 1 e0
AnchorPoint: "Above" 600 0 mark 0
LayerCount: 2
Fore
SplineSet
700 1000 m 2
 1049 1000 l 2
 1079.26507571 1000 1099 971.459808665 1099 950 c 2
 1099 350 l 2
 1099 319.734924289 1070.45980867 300 1049 300 c 2
 700 300 l 2
 669.734924289 300 650 328.540191335 650 350 c 2
 650 950 l 2
 650 980.265075711 678.540191335 1000 700 1000 c 2
999 700 m 1
 999 900 l 1
 750 900 l 1
 750 700 l 1
 999 700 l 1
999 600 m 1
 750 600 l 1
 750 400 l 1
 999 400 l 1
 999 600 l 1
EndSplineSet
EndChar

StartChar: NameMe.344
Encoding: 344 -1 90
Width: 0
VWidth: 0
Flags: W
HStem: 300 100<750 999> 600 100<750 999> 900 100<750 999>
VStem: 650 100<400 600 700 900> 999 100<400 600 700 900>
CounterMasks: 1 e0
AnchorPoint: "Above" 600 0 mark 0
LayerCount: 2
Fore
SplineSet
700 1000 m 2
 1049 1000 l 2
 1079.26507571 1000 1099 971.459808665 1099 950 c 2
 1099 350 l 2
 1099 319.734924289 1070.45980867 300 1049 300 c 2
 700 300 l 2
 669.734924289 300 650 328.540191335 650 350 c 2
 650 950 l 2
 650 980.265075711 678.540191335 1000 700 1000 c 2
999 700 m 1
 999 900 l 1
 750 900 l 1
 750 700 l 1
 999 700 l 1
999 600 m 1
 750 600 l 1
 750 400 l 1
 999 400 l 1
 999 600 l 1
EndSplineSet
EndChar

StartChar: NameMe.345
Encoding: 345 -1 91
Width: 0
VWidth: 0
Flags: W
HStem: 300 100<649 999> 600 100<749 999> 900 100<749 1099>
VStem: 649 100<700 900> 999 100<400 600>
CounterMasks: 1 e0
AnchorPoint: "Above" 600 0 mark 0
LayerCount: 2
Back
SplineSet
1099 950 m 5
 699 950 l 5
 699 650 l 5
 1049 650 l 5
 1049 350 l 5
 649 350 l 1029
EndSplineSet
Fore
SplineSet
1099 950 m 1
 1099 900 l 1
 749 900 l 1
 749 700 l 1
 1049 700 l 2
 1079.26507571 700 1099 671.459808665 1099 650 c 2
 1099 350 l 2
 1099 319.734924289 1070.45980867 300 1049 300 c 2
 649 300 l 1
 649 350 l 1
 649 400 l 1
 999 400 l 1
 999 600 l 1
 699 600 l 2
 677.540191335 600 649 619.734924289 649 650 c 2
 649 950 l 2
 649 971.459808665 668.734924289 1000 699 1000 c 2
 1099 1000 l 1
 1099 950 l 1
EndSplineSet
EndChar

StartChar: py.ce.1
Encoding: 33 -1 92
Width: 940
VWidth: 0
Flags: W
HStem: 25 50<145 645> 365 50<145 645> 705 50<145 645>
VStem: 95 50<75 365 415 705>
CounterMasks: 1 e0
AnchorPoint: "Above" 470 0 basechar 0
LayerCount: 2
Back
SplineSet
120 390 m 5
 620 390 l 1029
620 50 m 5
 120 50 l 5
 120 730 l 5
 620 730 l 1029
EndSplineSet
Fore
SplineSet
645 50 m 1
 645 25 l 1
 620 25 l 1
 120 25 l 2
 104.867462144 25 95 39.2700956673 95 50 c 2
 95 365 l 1
 95 390 l 1
 95 415 l 1
 95 730 l 2
 95 745.132537856 109.270095667 755 120 755 c 2
 620 755 l 1
 645 755 l 1
 645 730 l 1
 645 705 l 1
 620 705 l 1
 145 705 l 1
 145 415 l 1
 620 415 l 1
 645 415 l 1
 645 390 l 1
 645 365 l 1
 620 365 l 1
 145 365 l 1
 145 75 l 1
 620 75 l 1
 645 75 l 1
 645 50 l 1
EndSplineSet
EndChar

StartChar: by.ce.1
Encoding: 34 -1 93
Width: 940
VWidth: 0
Flags: W
HStem: 25 50<95 595> 365 50<95 595> 705 50<95 595>
VStem: 595 50<75 365 415 705>
CounterMasks: 1 e0
AnchorPoint: "Above" 470 0 basechar 0
LayerCount: 2
Back
SplineSet
120 390 m 5
 620 390 l 1029
120 730 m 5
 620 730 l 5
 620 50 l 5
 120 50 l 1029
EndSplineSet
Fore
SplineSet
95 730 m 1
 95 755 l 1
 120 755 l 1
 620 755 l 2
 635.132537856 755 645 740.729904333 645 730 c 2
 645 415 l 1
 645 390 l 1
 645 365 l 1
 645 50 l 2
 645 34.8674621445 630.729904333 25 620 25 c 2
 120 25 l 1
 95 25 l 1
 95 50 l 1
 95 75 l 1
 120 75 l 1
 595 75 l 1
 595 365 l 1
 120 365 l 1
 95 365 l 1
 95 390 l 1
 95 415 l 1
 120 415 l 1
 595 415 l 1
 595 705 l 1
 120 705 l 1
 95 705 l 1
 95 730 l 1
EndSplineSet
EndChar

StartChar: fy.ce.1
Encoding: 35 -1 94
Width: 940
VWidth: 0
Flags: W
HStem: 25 50<145 595> 365 50<145 595>
VStem: 95 50<75 365 415 755> 595 50<75 365 415 755>
AnchorPoint: "Above" 470 0 basechar 0
LayerCount: 2
Back
SplineSet
120 390 m 5
 620 390 l 1029
620 730 m 5
 620 50 l 5
 120 50 l 5
 120 730 l 1029
EndSplineSet
Fore
SplineSet
620 755 m 1
 645 755 l 1
 645 730 l 1
 645 415 l 1
 645 390 l 1
 645 365 l 1
 645 50 l 2
 645 34.8674621445 630.729904333 25 620 25 c 2
 120 25 l 2
 104.867462144 25 95 39.2700956673 95 50 c 2
 95 365 l 1
 95 390 l 1
 95 415 l 1
 95 730 l 1
 95 755 l 1
 120 755 l 1
 145 755 l 1
 145 730 l 1
 145 415 l 1
 595 415 l 1
 595 730 l 1
 595 755 l 1
 620 755 l 1
145 365 m 1
 145 75 l 1
 595 75 l 1
 595 365 l 1
 145 365 l 1
EndSplineSet
EndChar

StartChar: vy.ce.1
Encoding: 36 -1 95
Width: 940
VWidth: 0
Flags: W
HStem: 365 50<145 595> 705 50<145 595>
VStem: 95 50<25 365 415 705> 595 50<25 365 415 705>
AnchorPoint: "Above" 470 0 basechar 0
LayerCount: 2
Back
SplineSet
120 390 m 5
 620 390 l 1029
120 50 m 5
 120 730 l 5
 620 730 l 5
 620 50 l 1029
EndSplineSet
Fore
SplineSet
120 25 m 1
 95 25 l 1
 95 50 l 1
 95 365 l 1
 95 390 l 1
 95 415 l 1
 95 730 l 2
 95 745.132537856 109.270095667 755 120 755 c 2
 620 755 l 2
 635.132537856 755 645 740.729904333 645 730 c 2
 645 415 l 1
 645 390 l 1
 645 365 l 1
 645 50 l 1
 645 25 l 1
 620 25 l 1
 595 25 l 1
 595 50 l 1
 595 365 l 1
 145 365 l 1
 145 50 l 1
 145 25 l 1
 120 25 l 1
595 415 m 1
 595 705 l 1
 145 705 l 1
 145 415 l 1
 595 415 l 1
EndSplineSet
EndChar

StartChar: ky.ce.1
Encoding: 37 -1 96
Width: 940
VWidth: 0
Flags: W
AnchorPoint: "Above" 470 0 basechar 0
LayerCount: 2
Back
SplineSet
620 730 m 29
 120 390 l 29
 620 50 l 1053
EndSplineSet
Fore
SplineSet
640.673162552 744.057750535 m 1
 654.730913087 723.384587983 l 1
 634.057750535 709.326837448 l 1
 164.45946017 390 l 1
 634.057750535 70.6731625517 l 1
 654.730913087 56.6154120166 l 1
 640.673162552 35.9422494648 l 1
 626.615412017 15.2690869131 l 1
 605.942249465 29.3268374483 l 1
 605.115322963 29.8891474697 605.942249465 28.3268374483 605.942249465 29.3268374483 c 1
 105.942249465 369.326837448 l 2
 104.902755564 370.033693301 101.994367442 372.491272761 100.493492773 374.363626513 c 0
 91.5054526912 385.57628199 94.0589816599 402.592540444 105.942249465 410.673162552 c 2
 605.942249465 750.673162552 l 1
 626.615412017 764.730913087 l 1
 640.673162552 744.057750535 l 1
EndSplineSet
EndChar

StartChar: cy.ce.1
Encoding: 38 -1 97
Width: 940
VWidth: 0
Flags: W
HStem: 365 50<95 329.544 423.611 645>
VStem: 355 50<26 363.822>
AnchorPoint: "Above" 470 0 basechar 0
LayerCount: 2
Back
SplineSet
120 390 m 5
 620 390 l 1029
380 290 m 5
 380 51 l 1029
120 732 m 5
 192.553033804 700.813998938 376.170898438 488.842773438 380 290 c 5
 376.561523438 481.125 528.807617188 702.217773438 620 730 c 1029
EndSplineSet
Fore
SplineSet
97.0319145079 741.872540141 m 1
 106.904454648 764.840625633 l 1
 129.872540141 754.968085492 l 2
 197.503703608 725.897687948 319.778415014 589.738681373 376.513528415 433.671584778 c 1
 422.445556538 586.682023634 527.631054543 727.993772589 612.714233966 753.914799044 c 2
 636.62903301 761.200565077 l 1
 643.914799044 737.285766034 l 1
 651.200565077 713.37096699 l 1
 627.285766034 706.085200956 l 2
 569.909661241 688.605276718 465.925353017 557.672138434 423.610683158 415 c 1
 620 415 l 1
 645 415 l 1
 645 390 l 1
 645 365 l 1
 620 365 l 1
 411.537221389 365 l 1
 407.670073715 344.012477104 405.379321062 323.026399902 405 302.356495589 c 2
 405 290 l 1
 405 51 l 1
 405 26 l 1
 380 26 l 1
 355 26 l 1
 355 51 l 1
 355 289.754433602 l 2
 354.500994858 314.638130603 350.858316313 339.87863809 344.775478895 365 c 1
 120 365 l 1
 95 365 l 1
 95 390 l 1
 95 415 l 1
 120 415 l 1
 329.543864105 415 l 1
 276.915187198 559.301774485 157.300700206 688.755095657 110.127459859 709.031914508 c 2
 87.1593743673 718.904454648 l 1
 97.0319145079 741.872540141 l 1
EndSplineSet
EndChar

StartChar: xy.ce.1
Encoding: 39 -1 98
Width: 940
VWidth: 0
Flags: W
HStem: 705.907 48.186<589.092 637.545>
VStem: 355 50<25 432.686>
AnchorPoint: "Above" 470 0 basechar 0
LayerCount: 2
Back
SplineSet
380 330 m 5
 380 50 l 1029
118 732 m 5
 194.69921875 703.63671875 375.952148438 510.848632812 380 330 c 5
 376.561523438 503.75 528.807617188 704.743164062 620 730 c 1029
EndSplineSet
Fore
SplineSet
94.5519191425 740.671072835 m 1
 103.222991977 764.119153692 l 1
 126.671072835 755.448080857 l 2
 197.500786307 729.255335784 320.734221658 603.441863083 376.609992555 461.585866155 c 1
 423.097057997 602.355871854 528.931802224 730.718694112 613.327149198 754.093008575 c 2
 637.420157772 760.765859377 l 1
 644.093008575 736.672850802 l 1
 650.765859377 712.579842228 l 1
 626.672850802 705.906991425 l 2
 553.379758437 685.607580969 408.264870838 501.657442281 405 341.170667233 c 2
 405 330 l 1
 405 50 l 1
 405 25 l 1
 380 25 l 1
 355 25 l 1
 355 50 l 1
 355 329.713436153 l 2
 351.063157598 497.233536233 174.267689549 684.537640881 109.328927165 708.551919143 c 2
 85.880846308 717.222991977 l 1
 94.5519191425 740.671072835 l 1
EndSplineSet
EndChar

StartChar: iy.ce.1
Encoding: 40 -1 99
Width: 940
VWidth: 0
Flags: W
HStem: 25 50<145 645>
VStem: 95 50<75 755>
AnchorPoint: "Above" 470 0 basechar 0
LayerCount: 2
Back
SplineSet
620 50 m 5
 120 50 l 5
 120 730 l 1029
EndSplineSet
Fore
SplineSet
645 50 m 1
 645 25 l 1
 620 25 l 1
 120 25 l 2
 104.867462144 25 95 39.2700956673 95 50 c 2
 95 730 l 1
 95 755 l 1
 120 755 l 1
 145 755 l 1
 145 730 l 1
 145 75 l 1
 620 75 l 1
 645 75 l 1
 645 50 l 1
EndSplineSet
EndChar

StartChar: ry.ce.1
Encoding: 41 -1 100
Width: 940
VWidth: 0
Flags: W
AnchorPoint: "Above" 470 0 basechar 0
LayerCount: 2
Back
SplineSet
120 50 m 29
 620 730 l 1053
120 730 m 29
 620 50 l 1053
EndSplineSet
Fore
SplineSet
105.190238738 750.141275316 m 1
 125.331514054 764.951036578 l 1
 140.141275316 744.809761262 l 1
 370 432.201895692 l 1
 599.858724684 744.809761262 l 1
 614.668485946 764.951036578 l 1
 634.809761262 750.141275316 l 1
 654.951036578 735.331514054 l 1
 640.141275316 715.190238738 l 1
 401.030805656 390 l 1
 640.141275316 64.8097612619 l 1
 654.951036578 44.6684859457 l 1
 634.809761262 29.8587246838 l 1
 614.668485946 15.0489634218 l 1
 599.858724684 35.1902387381 l 1
 370 347.798104308 l 1
 140.141275316 35.1902387381 l 1
 125.331514054 15.0489634218 l 1
 105.190238738 29.8587246838 l 1
 85.0489634218 44.6684859457 l 1
 99.8587246838 64.8097612619 l 1
 338.969194344 390 l 1
 99.8587246838 715.190238738 l 1
 85.0489634218 735.331514054 l 1
 105.190238738 750.141275316 l 1
EndSplineSet
EndChar

StartChar: ny.ce.1
Encoding: 48 -1 101
Width: 940
VWidth: 0
Flags: W
HStem: 25 50<145 595> 705 50<145 595>
VStem: 95 50<75 705> 595 50<75 705>
AnchorPoint: "Above" 470 0 basechar 0
LayerCount: 2
Back
SplineSet
120 730 m 5
 620 730 l 5
 620 50 l 5
 120 50 l 5
 120 730 l 5
EndSplineSet
Fore
SplineSet
145 705 m 1
 145 75 l 1
 595 75 l 1
 595 705 l 1
 145 705 l 1
120 755 m 2
 620 755 l 2
 635.132537856 755 645 740.729904333 645 730 c 2
 645 50 l 2
 645 34.8674621445 630.729904333 25 620 25 c 2
 120 25 l 2
 104.867462144 25 95 39.2700956673 95 50 c 2
 95 730 l 2
 95 745.132537856 109.270095667 755 120 755 c 2
EndSplineSet
EndChar

StartChar: ty.ce.1
Encoding: 49 -1 102
Width: 940
VWidth: 0
Flags: W
HStem: 25 50<145 645> 705 50<145 645>
VStem: 95 50<75 705>
AnchorPoint: "Above" 470 0 basechar 0
LayerCount: 2
Back
SplineSet
620 50 m 5
 120 50 l 5
 120 730 l 5
 620 730 l 1029
EndSplineSet
Fore
SplineSet
645 50 m 1
 645 25 l 1
 620 25 l 1
 120 25 l 2
 104.867462144 25 95 39.2700956673 95 50 c 2
 95 730 l 2
 95 745.132537856 109.270095667 755 120 755 c 2
 620 755 l 1
 645 755 l 1
 645 730 l 1
 645 705 l 1
 620 705 l 1
 145 705 l 1
 145 75 l 1
 620 75 l 1
 645 75 l 1
 645 50 l 1
EndSplineSet
EndChar

StartChar: dy.ce.1
Encoding: 50 -1 103
Width: 940
VWidth: 0
Flags: W
HStem: 25 50<95 595> 705 50<95 595>
VStem: 595 50<75 705>
AnchorPoint: "Above" 470 0 basechar 0
LayerCount: 2
Back
SplineSet
120 730 m 5
 620 730 l 5
 620 50 l 5
 120 50 l 1029
EndSplineSet
Fore
SplineSet
95 730 m 1
 95 755 l 1
 120 755 l 1
 620 755 l 2
 635.132537856 755 645 740.729904333 645 730 c 2
 645 50 l 2
 645 34.8674621445 630.729904333 25 620 25 c 2
 120 25 l 1
 95 25 l 1
 95 50 l 1
 95 75 l 1
 120 75 l 1
 595 75 l 1
 595 705 l 1
 120 705 l 1
 95 705 l 1
 95 730 l 1
EndSplineSet
EndChar

StartChar: sy.ce.1
Encoding: 51 -1 104
Width: 940
VWidth: 0
Flags: W
HStem: 25 50<145 595>
VStem: 95 50<75 755> 595 50<75 755>
AnchorPoint: "Above" 470 0 basechar 0
LayerCount: 2
Back
SplineSet
620 730 m 5
 620 50 l 5
 120 50 l 5
 120 730 l 1029
EndSplineSet
Fore
SplineSet
620 755 m 1
 645 755 l 1
 645 730 l 1
 645 50 l 2
 645 34.8674621445 630.729904333 25 620 25 c 2
 120 25 l 2
 104.867462144 25 95 39.2700956673 95 50 c 2
 95 730 l 1
 95 755 l 1
 120 755 l 1
 145 755 l 1
 145 730 l 1
 145 75 l 1
 595 75 l 1
 595 730 l 1
 595 755 l 1
 620 755 l 1
EndSplineSet
EndChar

StartChar: zy.ce.1
Encoding: 52 -1 105
Width: 940
VWidth: 0
Flags: W
HStem: 705 50<145 595>
VStem: 95 50<25 705> 595 50<25 705>
AnchorPoint: "Above" 470 0 basechar 0
LayerCount: 2
Back
SplineSet
120 50 m 5
 120 730 l 5
 620 730 l 5
 620 50 l 1029
EndSplineSet
Fore
SplineSet
120 25 m 1
 95 25 l 1
 95 50 l 1
 95 730 l 2
 95 745.132537856 109.270095667 755 120 755 c 2
 620 755 l 2
 635.132537856 755 645 740.729904333 645 730 c 2
 645 50 l 1
 645 25 l 1
 620 25 l 1
 595 25 l 1
 595 50 l 1
 595 705 l 1
 145 705 l 1
 145 50 l 1
 145 25 l 1
 120 25 l 1
EndSplineSet
EndChar

StartChar: gy.ce.1
Encoding: 53 -1 106
Width: 940
VWidth: 0
Flags: W
AnchorPoint: "Above" 470 0 basechar 0
LayerCount: 2
Back
SplineSet
120 730 m 29
 620 390 l 29
 120 50 l 1053
EndSplineSet
Fore
SplineSet
99.3268374483 744.057750535 m 1
 113.384587983 764.730913087 l 1
 134.057750535 750.673162552 l 1
 634.057750535 410.673162552 l 2
 645.94101834 402.592540444 648.494547309 385.57628199 639.506507227 374.363626513 c 0
 637.951930275 372.424278712 635.580799736 370.362510905 634.057750535 369.326837448 c 2
 134.057750535 29.3268374483 l 1
 134.057750535 28.3268374483 134.884677037 29.8891474697 134.057750535 29.3268374483 c 1
 113.384587983 15.2690869131 l 1
 99.3268374483 35.9422494648 l 1
 85.2690869131 56.6154120166 l 1
 105.942249465 70.6731625517 l 1
 575.54053983 390 l 1
 105.942249465 709.326837448 l 1
 85.2690869131 723.384587983 l 1
 99.3268374483 744.057750535 l 1
EndSplineSet
EndChar

StartChar: jy.ce.1
Encoding: 54 -1 107
Width: 940
VWidth: 0
Flags: W
HStem: 365 50<95 324.709 430.495 649>
VStem: 355 50<416.335 755>
AnchorPoint: "Above" 470 0 basechar 0
LayerCount: 2
Back
SplineSet
120 390 m 5
 624 390 l 1029
380 500 m 5
 380 730 l 1029
120 50 m 5
 173.896679688 81.7506520119 377.155234375 297.558157135 380 500 c 5
 377.602861974 304.531381376 560.426180486 78.4133705858 624 50 c 1029
EndSplineSet
Fore
SplineSet
98.459809564 37.3106266514 m 1
 85.7704362154 58.8508170875 l 1
 107.310626651 71.540190436 l 2
 142.726959093 92.4040294223 266.724200374 221.376735866 324.708759588 365 c 1
 120 365 l 1
 95 365 l 1
 95 390 l 1
 95 415 l 1
 120 415 l 1
 341.862295986 415 l 1
 349.824215685 443.476598084 354.587728241 472.102077658 355 500.179502426 c 2
 355 730 l 1
 355 755 l 1
 380 755 l 1
 405 755 l 1
 405 730 l 1
 405 500 l 1
 405 492.727298755 l 2
 405.321965749 467.275815881 409.064152286 441.158768218 415.400120609 415 c 1
 624 415 l 1
 649 415 l 1
 649 390 l 1
 649 365 l 1
 624 365 l 1
 430.495380091 365 l 1
 481.739500852 222.147156215 595.556787713 90.0955556739 634.200909731 72.8241416193 c 2
 657.02505135 62.6232318881 l 1
 646.824141619 39.7990902688 l 1
 636.623231888 16.9749486495 l 1
 613.799090269 27.1758583807 l 2
 551.554260429 54.9952568504 430.135697508 201.102059297 377.890754383 362.48888237 c 1
 318.251798541 198.941782718 183.25764224 58.2496874879 132.689373349 28.459809564 c 1
 132.689373349 27.459809564 131.827765731 27.95223463 132.689373349 28.459809564 c 1
 111.149182913 15.7704362154 l 1
 98.459809564 37.3106266514 l 1
EndSplineSet
EndChar

StartChar: yhy.ce.1
Encoding: 55 -1 108
Width: 940
VWidth: 0
Flags: W
VStem: 95 50<126.202 755> 595 50<25 653.798>
AnchorPoint: "Above" 470 0 basechar 0
LayerCount: 2
Back
SplineSet
620 50 m 1
 620 730 l 1
 120 50 l 1
 120 730 l 1025
EndSplineSet
Fore
SplineSet
620 25 m 1
 595 25 l 1
 595 50 l 1
 595 653.798104308 l 1
 140.141275316 35.1902387381 l 2
 131.628385295 23.6127083087 114.529610247 21.6877527682 103.655664188 31.0827410319 c 0
 98.1670356902 35.824865008 95 43.0030939186 95 50 c 2
 95 730 l 1
 95 755 l 1
 120 755 l 1
 145 755 l 1
 145 730 l 1
 145 126.201895692 l 1
 599.858724684 744.809761262 l 2
 604.109424819 750.590713446 610.846493755 754.35692299 618.038572864 754.922937299 c 0
 632.364679847 756.050397303 645 744.370403869 645 730 c 2
 645 50 l 1
 645 25 l 1
 620 25 l 1
EndSplineSet
EndChar

StartChar: uy.ce.1
Encoding: 56 -1 109
Width: 940
VWidth: 0
Flags: W
HStem: 25 50<95 595>
VStem: 595 50<75 755>
AnchorPoint: "Above" 470 0 basechar 0
LayerCount: 2
Back
SplineSet
620 730 m 5
 620 50 l 5
 120 50 l 1029
EndSplineSet
Fore
SplineSet
620 755 m 1
 645 755 l 1
 645 730 l 1
 645 50 l 2
 645 34.8674621445 630.729904333 25 620 25 c 2
 120 25 l 1
 95 25 l 1
 95 50 l 1
 95 75 l 1
 120 75 l 1
 595 75 l 1
 595 730 l 1
 595 755 l 1
 620 755 l 1
EndSplineSet
EndChar

StartChar: ly.ce.1
Encoding: 57 -1 110
Width: 940
VWidth: 0
Flags: W
HStem: 25 50<95 595> 365 50<145 595> 705 50<145 645>
VStem: 95 50<415 705> 595 50<75 365>
CounterMasks: 1 e0
AnchorPoint: "Above" 470 0 basechar 0
LayerCount: 2
Back
SplineSet
620 730 m 5
 120 730 l 5
 120 390 l 5
 620 390 l 5
 620 50 l 5
 120 50 l 1029
EndSplineSet
Fore
SplineSet
645 730 m 1
 645 705 l 1
 620 705 l 1
 145 705 l 1
 145 415 l 1
 620 415 l 2
 635.132537856 415 645 400.729904333 645 390 c 2
 645 50 l 2
 645 34.8674621445 630.729904333 25 620 25 c 2
 120 25 l 1
 95 25 l 1
 95 50 l 1
 95 75 l 1
 120 75 l 1
 595 75 l 1
 595 365 l 1
 120 365 l 2
 109.270095667 365 95 374.867462144 95 390 c 2
 95 730 l 2
 95 740.729904333 104.867462144 755 120 755 c 2
 620 755 l 1
 645 755 l 1
 645 730 l 1
EndSplineSet
EndChar

StartChar: NameMe.65
Encoding: 65 -1 111
Width: 1200
VWidth: 0
Flags: W
HStem: 300 100<200 999> 600 100<200 999> 900 100<200 999>
VStem: 100 100<400 600 700 900> 999 100<400 600 700 900>
AnchorPoint: "Above" 600 0 basechar 0
LayerCount: 2
Fore
SplineSet
150 1000 m 2
 1050 1000 l 2
 1080.26507571 1000 1100 971.459808665 1100 950 c 2
 1100 350 l 2
 1100 319.734924289 1071.45980867 300 1050 300 c 2
 150 300 l 2
 119.734924289 300 100 328.540191335 100 350 c 2
 100 950 l 2
 100 980.265075711 128.540191335 1000 150 1000 c 2
1000 700 m 1
 1000 900 l 1
 200 900 l 1
 200 700 l 1
 1000 700 l 1
1000 600 m 1
 200 600 l 1
 200 400 l 1
 1000 400 l 1
 1000 600 l 1
EndSplineSet
EndChar

StartChar: NameMe.67
Encoding: 67 -1 112
Width: 1200
VWidth: 0
Flags: W
HStem: 300 100<200 999> 600 100<200 999> 900 100<200 999>
VStem: 100 100<400 600 700 900> 999 100<400 600 700 900>
AnchorPoint: "Above" 600 0 basechar 0
LayerCount: 2
Fore
SplineSet
150 1000 m 2
 1050 1000 l 2
 1080.26507571 1000 1100 971.459808665 1100 950 c 2
 1100 350 l 2
 1100 319.734924289 1071.45980867 300 1050 300 c 2
 150 300 l 2
 119.734924289 300 100 328.540191335 100 350 c 2
 100 950 l 2
 100 980.265075711 128.540191335 1000 150 1000 c 2
1000 700 m 1
 1000 900 l 1
 200 900 l 1
 200 700 l 1
 1000 700 l 1
1000 600 m 1
 200 600 l 1
 200 400 l 1
 1000 400 l 1
 1000 600 l 1
EndSplineSet
EndChar

StartChar: NameMe.68
Encoding: 68 -1 113
Width: 1200
VWidth: 0
Flags: W
HStem: 300 100<200 999> 600 100<200 999> 900 100<200 999>
VStem: 100 100<400 600 700 900> 999 100<400 600 700 900>
AnchorPoint: "Above" 600 0 basechar 0
LayerCount: 2
Fore
SplineSet
150 1000 m 2
 1050 1000 l 2
 1080.26507571 1000 1100 971.459808665 1100 950 c 2
 1100 350 l 2
 1100 319.734924289 1071.45980867 300 1050 300 c 2
 150 300 l 2
 119.734924289 300 100 328.540191335 100 350 c 2
 100 950 l 2
 100 980.265075711 128.540191335 1000 150 1000 c 2
1000 700 m 1
 1000 900 l 1
 200 900 l 1
 200 700 l 1
 1000 700 l 1
1000 600 m 1
 200 600 l 1
 200 400 l 1
 1000 400 l 1
 1000 600 l 1
EndSplineSet
EndChar

StartChar: NameMe.69
Encoding: 69 -1 114
Width: 1200
VWidth: 0
Flags: W
HStem: 300 100<200 999> 600 100<200 999> 900 100<200 999>
VStem: 100 100<400 600 700 900> 999 100<400 600 700 900>
AnchorPoint: "Above" 600 0 basechar 0
LayerCount: 2
Fore
SplineSet
150 1000 m 2
 1050 1000 l 2
 1080.26507571 1000 1100 971.459808665 1100 950 c 2
 1100 350 l 2
 1100 319.734924289 1071.45980867 300 1050 300 c 2
 150 300 l 2
 119.734924289 300 100 328.540191335 100 350 c 2
 100 950 l 2
 100 980.265075711 128.540191335 1000 150 1000 c 2
1000 700 m 1
 1000 900 l 1
 200 900 l 1
 200 700 l 1
 1000 700 l 1
1000 600 m 1
 200 600 l 1
 200 400 l 1
 1000 400 l 1
 1000 600 l 1
EndSplineSet
EndChar

StartChar: NameMe.70
Encoding: 70 -1 115
Width: 1200
VWidth: 0
Flags: W
HStem: 300 100<200 999> 600 100<200 999> 900 100<200 999>
VStem: 100 100<400 600 700 900> 999 100<400 600 700 900>
AnchorPoint: "Above" 600 0 basechar 0
LayerCount: 2
Fore
SplineSet
150 1000 m 2
 1050 1000 l 2
 1080.26507571 1000 1100 971.459808665 1100 950 c 2
 1100 350 l 2
 1100 319.734924289 1071.45980867 300 1050 300 c 2
 150 300 l 2
 119.734924289 300 100 328.540191335 100 350 c 2
 100 950 l 2
 100 980.265075711 128.540191335 1000 150 1000 c 2
1000 700 m 1
 1000 900 l 1
 200 900 l 1
 200 700 l 1
 1000 700 l 1
1000 600 m 1
 200 600 l 1
 200 400 l 1
 1000 400 l 1
 1000 600 l 1
EndSplineSet
EndChar

StartChar: NameMe.71
Encoding: 71 -1 116
Width: 1200
VWidth: 0
Flags: W
HStem: 300 100<200 999> 600 100<200 999> 900 100<200 999>
VStem: 100 100<400 600 700 900> 999 100<400 600 700 900>
AnchorPoint: "Above" 600 0 basechar 0
LayerCount: 2
Fore
SplineSet
150 1000 m 2
 1050 1000 l 2
 1080.26507571 1000 1100 971.459808665 1100 950 c 2
 1100 350 l 2
 1100 319.734924289 1071.45980867 300 1050 300 c 2
 150 300 l 2
 119.734924289 300 100 328.540191335 100 350 c 2
 100 950 l 2
 100 980.265075711 128.540191335 1000 150 1000 c 2
1000 700 m 1
 1000 900 l 1
 200 900 l 1
 200 700 l 1
 1000 700 l 1
1000 600 m 1
 200 600 l 1
 200 400 l 1
 1000 400 l 1
 1000 600 l 1
EndSplineSet
EndChar

StartChar: NameMe.72
Encoding: 72 -1 117
Width: 1200
VWidth: 0
Flags: W
HStem: 300 100.026<200 1100.47>
VStem: 100 100<400.026 1000>
AnchorPoint: "Above" 600 0 basechar 0
LayerCount: 2
Back
SplineSet
150 1000 m 29
 150 350 l 29
 1100.5 350.5 l 1053
EndSplineSet
Fore
SplineSet
150 1000 m 1
 200 1000 l 1
 200 400.026308864 l 1
 1100.47369806 400.499993082 l 1
 1100.5 350.5 l 1
 1100.52630194 300.500006918 l 1
 150.026301943 300.000006918 l 2
 128.517836118 299.988692628 100 319.743402766 100 350 c 2
 100 1000 l 1
 150 1000 l 1
EndSplineSet
EndChar

StartChar: NameMe.73
Encoding: 73 -1 118
Width: 1200
VWidth: 0
Flags: W
HStem: 300 100<200 999> 600 100<200 999> 900 100<200 999>
VStem: 100 100<400 600 700 900> 999 100<400 600 700 900>
AnchorPoint: "Above" 600 0 basechar 0
LayerCount: 2
Fore
SplineSet
150 1000 m 2
 1050 1000 l 2
 1080.26507571 1000 1100 971.459808665 1100 950 c 2
 1100 350 l 2
 1100 319.734924289 1071.45980867 300 1050 300 c 2
 150 300 l 2
 119.734924289 300 100 328.540191335 100 350 c 2
 100 950 l 2
 100 980.265075711 128.540191335 1000 150 1000 c 2
1000 700 m 1
 1000 900 l 1
 200 900 l 1
 200 700 l 1
 1000 700 l 1
1000 600 m 1
 200 600 l 1
 200 400 l 1
 1000 400 l 1
 1000 600 l 1
EndSplineSet
EndChar

StartChar: NameMe.80
Encoding: 80 -1 119
Width: 1200
VWidth: 0
Flags: W
HStem: 300 100<200 1000> 900 100<200 1000>
VStem: 100 100<400 900> 1000 100<400 900>
AnchorPoint: "Above" 600 0 basechar 0
LayerCount: 2
Back
SplineSet
150 950 m 29
 1050 950 l 29
 1050 350 l 29
 150 350 l 29
 150 950 l 29
EndSplineSet
Fore
SplineSet
200 900 m 1
 200 400 l 1
 1000 400 l 1
 1000 900 l 1
 200 900 l 1
150 1000 m 2
 1050 1000 l 2
 1080.26507571 1000 1100 971.459808665 1100 950 c 2
 1100 350 l 2
 1100 319.734924289 1071.45980867 300 1050 300 c 2
 150 300 l 2
 119.734924289 300 100 328.540191335 100 350 c 2
 100 950 l 2
 100 980.265075711 128.540191335 1000 150 1000 c 2
EndSplineSet
EndChar

StartChar: NameMe.81
Encoding: 81 -1 120
Width: 1200
VWidth: 0
Flags: W
HStem: 300 100<200 1100> 900 100<200 1100>
VStem: 100 100<400 900>
AnchorPoint: "Above" 600 0 basechar 0
LayerCount: 2
Back
SplineSet
1100 950 m 29
 150 950 l 5
 150 350 l 29
 1100 350 l 1053
EndSplineSet
Fore
SplineSet
1100 950 m 1
 1100 900 l 1
 200 900 l 1
 200 400 l 1
 1100 400 l 1
 1100 350 l 1
 1100 300 l 1
 150 300 l 2
 128.540191335 300 100 319.734924289 100 350 c 2
 100 950 l 2
 100 971.459808665 119.734924289 1000 150 1000 c 2
 1100 1000 l 1
 1100 950 l 1
EndSplineSet
EndChar

StartChar: NameMe.82
Encoding: 82 -1 121
Width: 1200
VWidth: 0
Flags: W
HStem: 300 100<200 999> 600 100<200 999> 900 100<200 999>
VStem: 100 100<400 600 700 900> 999 100<400 600 700 900>
AnchorPoint: "Above" 600 0 basechar 0
LayerCount: 2
Fore
SplineSet
150 1000 m 2
 1050 1000 l 2
 1080.26507571 1000 1100 971.459808665 1100 950 c 2
 1100 350 l 2
 1100 319.734924289 1071.45980867 300 1050 300 c 2
 150 300 l 2
 119.734924289 300 100 328.540191335 100 350 c 2
 100 950 l 2
 100 980.265075711 128.540191335 1000 150 1000 c 2
1000 700 m 1
 1000 900 l 1
 200 900 l 1
 200 700 l 1
 1000 700 l 1
1000 600 m 1
 200 600 l 1
 200 400 l 1
 1000 400 l 1
 1000 600 l 1
EndSplineSet
EndChar

StartChar: NameMe.83
Encoding: 83 -1 122
Width: 1200
VWidth: 0
Flags: W
HStem: 300 100<200 999> 600 100<200 999> 900 100<200 999>
VStem: 100 100<400 600 700 900> 999 100<400 600 700 900>
AnchorPoint: "Above" 600 0 basechar 0
LayerCount: 2
Fore
SplineSet
150 1000 m 2
 1050 1000 l 2
 1080.26507571 1000 1100 971.459808665 1100 950 c 2
 1100 350 l 2
 1100 319.734924289 1071.45980867 300 1050 300 c 2
 150 300 l 2
 119.734924289 300 100 328.540191335 100 350 c 2
 100 950 l 2
 100 980.265075711 128.540191335 1000 150 1000 c 2
1000 700 m 1
 1000 900 l 1
 200 900 l 1
 200 700 l 1
 1000 700 l 1
1000 600 m 1
 200 600 l 1
 200 400 l 1
 1000 400 l 1
 1000 600 l 1
EndSplineSet
EndChar

StartChar: NameMe.84
Encoding: 84 -1 123
Width: 1200
VWidth: 0
Flags: W
HStem: 300 100<200 999> 600 100<200 999> 900 100<200 999>
VStem: 100 100<400 600 700 900> 999 100<400 600 700 900>
AnchorPoint: "Above" 600 0 basechar 0
LayerCount: 2
Fore
SplineSet
150 1000 m 2
 1050 1000 l 2
 1080.26507571 1000 1100 971.459808665 1100 950 c 2
 1100 350 l 2
 1100 319.734924289 1071.45980867 300 1050 300 c 2
 150 300 l 2
 119.734924289 300 100 328.540191335 100 350 c 2
 100 950 l 2
 100 980.265075711 128.540191335 1000 150 1000 c 2
1000 700 m 1
 1000 900 l 1
 200 900 l 1
 200 700 l 1
 1000 700 l 1
1000 600 m 1
 200 600 l 1
 200 400 l 1
 1000 400 l 1
 1000 600 l 1
EndSplineSet
EndChar

StartChar: NameMe.85
Encoding: 85 -1 124
Width: 1200
VWidth: 0
Flags: W
HStem: 300 100<200 999> 600 100<200 999> 900 100<200 999>
VStem: 100 100<400 600 700 900> 999 100<400 600 700 900>
AnchorPoint: "Above" 600 0 basechar 0
LayerCount: 2
Fore
SplineSet
150 1000 m 2
 1050 1000 l 2
 1080.26507571 1000 1100 971.459808665 1100 950 c 2
 1100 350 l 2
 1100 319.734924289 1071.45980867 300 1050 300 c 2
 150 300 l 2
 119.734924289 300 100 328.540191335 100 350 c 2
 100 950 l 2
 100 980.265075711 128.540191335 1000 150 1000 c 2
1000 700 m 1
 1000 900 l 1
 200 900 l 1
 200 700 l 1
 1000 700 l 1
1000 600 m 1
 200 600 l 1
 200 400 l 1
 1000 400 l 1
 1000 600 l 1
EndSplineSet
EndChar

StartChar: NameMe.86
Encoding: 86 -1 125
Width: 1200
VWidth: 0
Flags: W
HStem: 300 100<200 999> 600 100<200 999> 900 100<200 999>
VStem: 100 100<400 600 700 900> 999 100<400 600 700 900>
AnchorPoint: "Above" 600 0 basechar 0
LayerCount: 2
Fore
SplineSet
150 1000 m 2
 1050 1000 l 2
 1080.26507571 1000 1100 971.459808665 1100 950 c 2
 1100 350 l 2
 1100 319.734924289 1071.45980867 300 1050 300 c 2
 150 300 l 2
 119.734924289 300 100 328.540191335 100 350 c 2
 100 950 l 2
 100 980.265075711 128.540191335 1000 150 1000 c 2
1000 700 m 1
 1000 900 l 1
 200 900 l 1
 200 700 l 1
 1000 700 l 1
1000 600 m 1
 200 600 l 1
 200 400 l 1
 1000 400 l 1
 1000 600 l 1
EndSplineSet
EndChar

StartChar: NameMe.87
Encoding: 87 -1 126
Width: 1200
VWidth: 0
Flags: W
VStem: 100 100<443.426 1000> 1000 100<300 856.574>
AnchorPoint: "Above" 600 0 basechar 0
LayerCount: 2
Back
SplineSet
150 1000 m 5
 150 350 l 5
 1050 950 l 5
 1050 300 l 1053
EndSplineSet
Fore
SplineSet
150 1000 m 1
 200 1000 l 1
 200 443.425854591 l 1
 1022.26499019 991.602514717 l 2
 1046.17878773 1007.54504641 1079.63310081 999.476392004 1093.65028266 974.385504368 c 0
 1097.84812335 966.871329976 1100 955.217053936 1100 950 c 2
 1100 300 l 1
 1050 300 l 1
 1000 300 l 1
 1000 856.574145409 l 1
 177.735009811 308.397485283 l 2
 172.884732938 305.163967367 162.416079774 300.822539514 153.922854272 300.154125403 c 0
 125.270640305 297.899205394 100 321.259192262 100 350 c 2
 100 1000 l 1
 150 1000 l 1
EndSplineSet
EndChar

StartChar: NameMe.88
Encoding: 88 -1 127
Width: 1200
VWidth: 0
Flags: W
HStem: 300 100<99.5 1000.5>
VStem: 1000.5 100<400 999.5>
AnchorPoint: "Above" 600 0 basechar 0
LayerCount: 2
Back
SplineSet
99.5 350 m 29
 1050.5 350 l 29
 1050.5 999.5 l 1029
EndSplineSet
Fore
SplineSet
99.5 350 m 1
 99.5 400 l 1
 1000.5 400 l 1
 1000.5 999.5 l 1
 1050.5 999.5 l 1
 1100.5 999.5 l 1
 1100.5 350 l 2
 1100.5 328.540191335 1080.76507571 300 1050.5 300 c 2
 99.5 300 l 1
 99.5 350 l 1
EndSplineSet
EndChar

StartChar: NameMe.89
Encoding: 89 -1 128
Width: 1200
VWidth: 0
Flags: W
HStem: 300 100<100 1000> 600 100<200 1000> 898 100<200 1099>
VStem: 100 100<700 898> 1000 100<400 600>
AnchorPoint: "Above" 600 0 basechar 0
LayerCount: 2
Back
SplineSet
1099 948 m 29
 150 948 l 5
 150 650 l 29
 1050 650 l 5
 1050 350 l 5
 100 350 l 1053
EndSplineSet
Fore
SplineSet
1099 948 m 1
 1099 898 l 1
 200 898 l 1
 200 700 l 1
 1050 700 l 2
 1080.26507571 700 1100 671.459808665 1100 650 c 2
 1100 350 l 2
 1100 319.734924289 1071.45980867 300 1050 300 c 2
 100 300 l 1
 100 350 l 1
 100 400 l 1
 1000 400 l 1
 1000 600 l 1
 150 600 l 2
 128.540191335 600 100 619.734924289 100 650 c 2
 100 948 l 2
 100 969.459808665 119.734924289 998 150 998 c 2
 1099 998 l 1
 1099 948 l 1
EndSplineSet
EndChar

StartChar: py.cec.1
Encoding: 97 -1 129
Width: 940
VWidth: 0
Flags: W
HStem: 335 50<145 595> 520 50<145 595> 705 50<145 595>
VStem: 95 50<385 520 570 705> 595 50<385 520 570 705>
AnchorPoint: "Above" 470 0 basechar 0
LayerCount: 2
Fore
SplineSet
120 755 m 2
 620 755 l 2
 635.132537856 755 645 740.729904333 645 730 c 2
 645 570 l 1
 645 545 l 1
 645 520 l 1
 645 360 l 2
 645 344.867462144 630.729904333 335 620 335 c 2
 120 335 l 2
 104.867462144 335 95 349.270095667 95 360 c 2
 95 520 l 1
 95 545 l 1
 95 570 l 1
 95 730 l 2
 95 745.132537856 109.270095667 755 120 755 c 2
145 520 m 1
 145 385 l 1
 595 385 l 1
 595 520 l 1
 145 520 l 1
145 570 m 1
 595 570 l 1
 595 705 l 1
 145 705 l 1
 145 570 l 1
EndSplineSet
EndChar

StartChar: by.cec.1
Encoding: 98 -1 130
Width: 940
VWidth: 0
Flags: W
HStem: 335 50<145 595> 520 50<145 595> 705 50<145 595>
VStem: 95 50<385 520 570 705> 595 50<385 520 570 705>
AnchorPoint: "Above" 470 0 basechar 0
LayerCount: 2
Fore
SplineSet
120 755 m 2
 620 755 l 2
 635.132537856 755 645 740.729904333 645 730 c 2
 645 570 l 1
 645 545 l 1
 645 520 l 1
 645 360 l 2
 645 344.867462144 630.729904333 335 620 335 c 2
 120 335 l 2
 104.867462144 335 95 349.270095667 95 360 c 2
 95 520 l 1
 95 545 l 1
 95 570 l 1
 95 730 l 2
 95 745.132537856 109.270095667 755 120 755 c 2
145 520 m 1
 145 385 l 1
 595 385 l 1
 595 520 l 1
 145 520 l 1
145 570 m 1
 595 570 l 1
 595 705 l 1
 145 705 l 1
 145 570 l 1
EndSplineSet
EndChar

StartChar: fy.cec.1
Encoding: 99 -1 131
Width: 940
VWidth: 0
Flags: W
HStem: 335 50<145 595> 520 50<145 595> 705 50<145 595>
VStem: 95 50<385 520 570 705> 595 50<385 520 570 705>
AnchorPoint: "Above" 470 0 basechar 0
LayerCount: 2
Fore
SplineSet
120 755 m 2
 620 755 l 2
 635.132537856 755 645 740.729904333 645 730 c 2
 645 570 l 1
 645 545 l 1
 645 520 l 1
 645 360 l 2
 645 344.867462144 630.729904333 335 620 335 c 2
 120 335 l 2
 104.867462144 335 95 349.270095667 95 360 c 2
 95 520 l 1
 95 545 l 1
 95 570 l 1
 95 730 l 2
 95 745.132537856 109.270095667 755 120 755 c 2
145 520 m 1
 145 385 l 1
 595 385 l 1
 595 520 l 1
 145 520 l 1
145 570 m 1
 595 570 l 1
 595 705 l 1
 145 705 l 1
 145 570 l 1
EndSplineSet
EndChar

StartChar: vy.cec.1
Encoding: 100 -1 132
Width: 940
VWidth: 0
Flags: W
HStem: 335 50<145 595> 520 50<145 595> 705 50<145 595>
VStem: 95 50<385 520 570 705> 595 50<385 520 570 705>
AnchorPoint: "Above" 470 0 basechar 0
LayerCount: 2
Fore
SplineSet
120 755 m 2
 620 755 l 2
 635.132537856 755 645 740.729904333 645 730 c 2
 645 570 l 1
 645 545 l 1
 645 520 l 1
 645 360 l 2
 645 344.867462144 630.729904333 335 620 335 c 2
 120 335 l 2
 104.867462144 335 95 349.270095667 95 360 c 2
 95 520 l 1
 95 545 l 1
 95 570 l 1
 95 730 l 2
 95 745.132537856 109.270095667 755 120 755 c 2
145 520 m 1
 145 385 l 1
 595 385 l 1
 595 520 l 1
 145 520 l 1
145 570 m 1
 595 570 l 1
 595 705 l 1
 145 705 l 1
 145 570 l 1
EndSplineSet
EndChar

StartChar: ky.cec.1
Encoding: 101 -1 133
Width: 940
VWidth: 0
Flags: W
HStem: 335 50<145 595> 520 50<145 595> 705 50<145 595>
VStem: 95 50<385 520 570 705> 595 50<385 520 570 705>
AnchorPoint: "Above" 470 0 basechar 0
LayerCount: 2
Fore
SplineSet
120 755 m 2
 620 755 l 2
 635.132537856 755 645 740.729904333 645 730 c 2
 645 570 l 1
 645 545 l 1
 645 520 l 1
 645 360 l 2
 645 344.867462144 630.729904333 335 620 335 c 2
 120 335 l 2
 104.867462144 335 95 349.270095667 95 360 c 2
 95 520 l 1
 95 545 l 1
 95 570 l 1
 95 730 l 2
 95 745.132537856 109.270095667 755 120 755 c 2
145 520 m 1
 145 385 l 1
 595 385 l 1
 595 520 l 1
 145 520 l 1
145 570 m 1
 595 570 l 1
 595 705 l 1
 145 705 l 1
 145 570 l 1
EndSplineSet
EndChar

StartChar: cy.cec.1
Encoding: 102 -1 134
Width: 940
VWidth: 0
Flags: W
HStem: 335 50<145 595> 520 50<145 595> 705 50<145 595>
VStem: 95 50<385 520 570 705> 595 50<385 520 570 705>
AnchorPoint: "Above" 470 0 basechar 0
LayerCount: 2
Fore
SplineSet
120 755 m 2
 620 755 l 2
 635.132537856 755 645 740.729904333 645 730 c 2
 645 570 l 1
 645 545 l 1
 645 520 l 1
 645 360 l 2
 645 344.867462144 630.729904333 335 620 335 c 2
 120 335 l 2
 104.867462144 335 95 349.270095667 95 360 c 2
 95 520 l 1
 95 545 l 1
 95 570 l 1
 95 730 l 2
 95 745.132537856 109.270095667 755 120 755 c 2
145 520 m 1
 145 385 l 1
 595 385 l 1
 595 520 l 1
 145 520 l 1
145 570 m 1
 595 570 l 1
 595 705 l 1
 145 705 l 1
 145 570 l 1
EndSplineSet
EndChar

StartChar: xy.cec.1
Encoding: 103 -1 135
Width: 940
VWidth: 0
Flags: W
HStem: 335 50<145 595> 520 50<145 595> 705 50<145 595>
VStem: 95 50<385 520 570 705> 595 50<385 520 570 705>
AnchorPoint: "Above" 470 0 basechar 0
LayerCount: 2
Fore
SplineSet
120 755 m 2
 620 755 l 2
 635.132537856 755 645 740.729904333 645 730 c 2
 645 570 l 1
 645 545 l 1
 645 520 l 1
 645 360 l 2
 645 344.867462144 630.729904333 335 620 335 c 2
 120 335 l 2
 104.867462144 335 95 349.270095667 95 360 c 2
 95 520 l 1
 95 545 l 1
 95 570 l 1
 95 730 l 2
 95 745.132537856 109.270095667 755 120 755 c 2
145 520 m 1
 145 385 l 1
 595 385 l 1
 595 520 l 1
 145 520 l 1
145 570 m 1
 595 570 l 1
 595 705 l 1
 145 705 l 1
 145 570 l 1
EndSplineSet
EndChar

StartChar: iy.cec.1
Encoding: 104 -1 136
Width: 940
VWidth: 0
Flags: W
HStem: 335 50<145 595> 520 50<145 595> 705 50<145 595>
VStem: 95 50<385 520 570 705> 595 50<385 520 570 705>
AnchorPoint: "Above" 470 0 basechar 0
LayerCount: 2
Fore
SplineSet
120 755 m 2
 620 755 l 2
 635.132537856 755 645 740.729904333 645 730 c 2
 645 570 l 1
 645 545 l 1
 645 520 l 1
 645 360 l 2
 645 344.867462144 630.729904333 335 620 335 c 2
 120 335 l 2
 104.867462144 335 95 349.270095667 95 360 c 2
 95 520 l 1
 95 545 l 1
 95 570 l 1
 95 730 l 2
 95 745.132537856 109.270095667 755 120 755 c 2
145 520 m 1
 145 385 l 1
 595 385 l 1
 595 520 l 1
 145 520 l 1
145 570 m 1
 595 570 l 1
 595 705 l 1
 145 705 l 1
 145 570 l 1
EndSplineSet
EndChar

StartChar: ry.cec.1
Encoding: 105 -1 137
Width: 940
VWidth: 0
Flags: W
HStem: 335 50<145 595> 520 50<145 595> 705 50<145 595>
VStem: 95 50<385 520 570 705> 595 50<385 520 570 705>
AnchorPoint: "Above" 470 0 basechar 0
LayerCount: 2
Fore
SplineSet
120 755 m 2
 620 755 l 2
 635.132537856 755 645 740.729904333 645 730 c 2
 645 570 l 1
 645 545 l 1
 645 520 l 1
 645 360 l 2
 645 344.867462144 630.729904333 335 620 335 c 2
 120 335 l 2
 104.867462144 335 95 349.270095667 95 360 c 2
 95 520 l 1
 95 545 l 1
 95 570 l 1
 95 730 l 2
 95 745.132537856 109.270095667 755 120 755 c 2
145 520 m 1
 145 385 l 1
 595 385 l 1
 595 520 l 1
 145 520 l 1
145 570 m 1
 595 570 l 1
 595 705 l 1
 145 705 l 1
 145 570 l 1
EndSplineSet
EndChar

StartChar: ny.cec.1
Encoding: 112 -1 138
Width: 940
VWidth: 0
Flags: W
HStem: 335 50<145 595> 705 50<145 595>
VStem: 95 50<385 705> 595 50<385 705>
AnchorPoint: "Above" 470 0 basechar 0
LayerCount: 2
Back
SplineSet
120 730 m 5
 620 730 l 5
 620 360 l 5
 120 360 l 5
 120 730 l 5
EndSplineSet
Fore
SplineSet
145 705 m 1
 145 385 l 1
 595 385 l 1
 595 705 l 1
 145 705 l 1
120 755 m 2
 620 755 l 2
 635.132537856 755 645 740.729904333 645 730 c 2
 645 360 l 2
 645 344.867462144 630.729904333 335 620 335 c 2
 120 335 l 2
 104.867462144 335 95 349.270095667 95 360 c 2
 95 730 l 2
 95 745.132537856 109.270095667 755 120 755 c 2
EndSplineSet
EndChar

StartChar: ty.cec.1
Encoding: 113 -1 139
Width: 940
VWidth: 0
Flags: W
HStem: 335 50<145 595> 520 50<145 595> 705 50<145 595>
VStem: 95 50<385 520 570 705> 595 50<385 520 570 705>
AnchorPoint: "Above" 470 0 basechar 0
LayerCount: 2
Fore
SplineSet
145 705 m 1
 145 385 l 1
 595 385 l 1
 595 705 l 1
 145 705 l 1
120 755 m 2
 620 755 l 2
 635.132537856 755 645 740.729904333 645 730 c 2
 645 360 l 2
 645 344.867462144 630.729904333 335 620 335 c 2
 120 335 l 2
 104.867462144 335 95 349.270095667 95 360 c 2
 95 730 l 2
 95 745.132537856 109.270095667 755 120 755 c 2
EndSplineSet
EndChar

StartChar: dy.cec.1
Encoding: 114 -1 140
Width: 940
VWidth: 0
Flags: W
HStem: 335 50<145 595> 520 50<145 595> 705 50<145 595>
VStem: 95 50<385 520 570 705> 595 50<385 520 570 705>
AnchorPoint: "Above" 470 0 basechar 0
LayerCount: 2
Fore
SplineSet
145 705 m 1
 145 385 l 1
 595 385 l 1
 595 705 l 1
 145 705 l 1
120 755 m 2
 620 755 l 2
 635.132537856 755 645 740.729904333 645 730 c 2
 645 360 l 2
 645 344.867462144 630.729904333 335 620 335 c 2
 120 335 l 2
 104.867462144 335 95 349.270095667 95 360 c 2
 95 730 l 2
 95 745.132537856 109.270095667 755 120 755 c 2
EndSplineSet
EndChar

StartChar: sy.cec.1
Encoding: 115 -1 141
Width: 940
VWidth: 0
Flags: W
HStem: 335 50<145 595> 520 50<145 595> 705 50<145 595>
VStem: 95 50<385 520 570 705> 595 50<385 520 570 705>
AnchorPoint: "Above" 470 0 basechar 0
LayerCount: 2
Fore
SplineSet
145 705 m 1
 145 385 l 1
 595 385 l 1
 595 705 l 1
 145 705 l 1
120 755 m 2
 620 755 l 2
 635.132537856 755 645 740.729904333 645 730 c 2
 645 360 l 2
 645 344.867462144 630.729904333 335 620 335 c 2
 120 335 l 2
 104.867462144 335 95 349.270095667 95 360 c 2
 95 730 l 2
 95 745.132537856 109.270095667 755 120 755 c 2
EndSplineSet
EndChar

StartChar: zy.cec.1
Encoding: 116 -1 142
Width: 940
VWidth: 0
Flags: W
HStem: 335 50<145 595> 520 50<145 595> 705 50<145 595>
VStem: 95 50<385 520 570 705> 595 50<385 520 570 705>
AnchorPoint: "Above" 470 0 basechar 0
LayerCount: 2
Fore
SplineSet
145 705 m 1
 145 385 l 1
 595 385 l 1
 595 705 l 1
 145 705 l 1
120 755 m 2
 620 755 l 2
 635.132537856 755 645 740.729904333 645 730 c 2
 645 360 l 2
 645 344.867462144 630.729904333 335 620 335 c 2
 120 335 l 2
 104.867462144 335 95 349.270095667 95 360 c 2
 95 730 l 2
 95 745.132537856 109.270095667 755 120 755 c 2
EndSplineSet
EndChar

StartChar: gy.cec.1
Encoding: 117 -1 143
Width: 940
VWidth: 0
Flags: W
HStem: 335 50<145 595> 520 50<145 595> 705 50<145 595>
VStem: 95 50<385 520 570 705> 595 50<385 520 570 705>
AnchorPoint: "Above" 470 0 basechar 0
LayerCount: 2
Fore
SplineSet
145 705 m 1
 145 385 l 1
 595 385 l 1
 595 705 l 1
 145 705 l 1
120 755 m 2
 620 755 l 2
 635.132537856 755 645 740.729904333 645 730 c 2
 645 360 l 2
 645 344.867462144 630.729904333 335 620 335 c 2
 120 335 l 2
 104.867462144 335 95 349.270095667 95 360 c 2
 95 730 l 2
 95 745.132537856 109.270095667 755 120 755 c 2
EndSplineSet
EndChar

StartChar: jy.cec.1
Encoding: 118 -1 144
Width: 940
VWidth: 0
Flags: W
HStem: 335 50<145 595> 520 50<145 595> 705 50<145 595>
VStem: 95 50<385 520 570 705> 595 50<385 520 570 705>
AnchorPoint: "Above" 470 0 basechar 0
LayerCount: 2
Fore
SplineSet
145 705 m 1
 145 385 l 1
 595 385 l 1
 595 705 l 1
 145 705 l 1
120 755 m 2
 620 755 l 2
 635.132537856 755 645 740.729904333 645 730 c 2
 645 360 l 2
 645 344.867462144 630.729904333 335 620 335 c 2
 120 335 l 2
 104.867462144 335 95 349.270095667 95 360 c 2
 95 730 l 2
 95 745.132537856 109.270095667 755 120 755 c 2
EndSplineSet
EndChar

StartChar: yhy.cec.1
Encoding: 119 -1 145
Width: 940
VWidth: 0
Flags: W
HStem: 335 50<145 595> 520 50<145 595> 705 50<145 595>
VStem: 95 50<385 520 570 705> 595 50<385 520 570 705>
AnchorPoint: "Above" 470 0 basechar 0
LayerCount: 2
Fore
SplineSet
145 705 m 1
 145 385 l 1
 595 385 l 1
 595 705 l 1
 145 705 l 1
120 755 m 2
 620 755 l 2
 635.132537856 755 645 740.729904333 645 730 c 2
 645 360 l 2
 645 344.867462144 630.729904333 335 620 335 c 2
 120 335 l 2
 104.867462144 335 95 349.270095667 95 360 c 2
 95 730 l 2
 95 745.132537856 109.270095667 755 120 755 c 2
EndSplineSet
EndChar

StartChar: uy.cec.1
Encoding: 120 -1 146
Width: 940
VWidth: 0
Flags: W
HStem: 335 50<145 595> 520 50<145 595> 705 50<145 595>
VStem: 95 50<385 520 570 705> 595 50<385 520 570 705>
AnchorPoint: "Above" 470 0 basechar 0
LayerCount: 2
Fore
SplineSet
145 705 m 1
 145 385 l 1
 595 385 l 1
 595 705 l 1
 145 705 l 1
120 755 m 2
 620 755 l 2
 635.132537856 755 645 740.729904333 645 730 c 2
 645 360 l 2
 645 344.867462144 630.729904333 335 620 335 c 2
 120 335 l 2
 104.867462144 335 95 349.270095667 95 360 c 2
 95 730 l 2
 95 745.132537856 109.270095667 755 120 755 c 2
EndSplineSet
EndChar

StartChar: ly.cec.1
Encoding: 121 -1 147
Width: 940
VWidth: 0
Flags: W
HStem: 335 50<145 595> 520 50<145 595> 705 50<145 595>
VStem: 95 50<385 520 570 705> 595 50<385 520 570 705>
AnchorPoint: "Above" 470 0 basechar 0
LayerCount: 2
Fore
SplineSet
145 705 m 1
 145 385 l 1
 595 385 l 1
 595 705 l 1
 145 705 l 1
120 755 m 2
 620 755 l 2
 635.132537856 755 645 740.729904333 645 730 c 2
 645 360 l 2
 645 344.867462144 630.729904333 335 620 335 c 2
 120 335 l 2
 104.867462144 335 95 349.270095667 95 360 c 2
 95 730 l 2
 95 745.132537856 109.270095667 755 120 755 c 2
EndSplineSet
EndChar

StartChar: NameMe.161
Encoding: 161 -1 148
Width: 1200
VWidth: 0
Flags: W
HStem: 300 100<200 450> 600 100<200 450> 900 100<200 450>
VStem: 100 100<400 600 700 900> 450 100<400 600 700 900>
CounterMasks: 1 e0
AnchorPoint: "Above" 600 0 basechar 0
LayerCount: 2
Fore
SplineSet
150 1000 m 2
 500 1000 l 2
 530.265075711 1000 550 971.459808665 550 950 c 2
 550 350 l 2
 550 319.734924289 521.459808665 300 500 300 c 2
 150 300 l 2
 119.734924289 300 100 328.540191335 100 350 c 2
 100 950 l 2
 100 980.265075711 128.540191335 1000 150 1000 c 2
450 700 m 1
 450 900 l 1
 200 900 l 1
 200 700 l 1
 450 700 l 1
450 600 m 1
 200 600 l 1
 200 400 l 1
 450 400 l 1
 450 600 l 1
EndSplineSet
EndChar

StartChar: NameMe.162
Encoding: 162 -1 149
Width: 1200
VWidth: 0
Flags: W
HStem: 300 100<200 450> 600 100<200 450> 900 100<200 450>
VStem: 100 100<400 600 700 900> 450 100<400 600 700 900>
CounterMasks: 1 e0
AnchorPoint: "Above" 600 0 basechar 0
LayerCount: 2
Fore
SplineSet
150 1000 m 2
 500 1000 l 2
 530.265075711 1000 550 971.459808665 550 950 c 2
 550 350 l 2
 550 319.734924289 521.459808665 300 500 300 c 2
 150 300 l 2
 119.734924289 300 100 328.540191335 100 350 c 2
 100 950 l 2
 100 980.265075711 128.540191335 1000 150 1000 c 2
450 700 m 1
 450 900 l 1
 200 900 l 1
 200 700 l 1
 450 700 l 1
450 600 m 1
 200 600 l 1
 200 400 l 1
 450 400 l 1
 450 600 l 1
EndSplineSet
EndChar

StartChar: NameMe.163
Encoding: 163 -1 150
Width: 1200
VWidth: 0
Flags: W
HStem: 300 100<200 450> 600 100<200 450> 900 100<200 450>
VStem: 100 100<400 600 700 900> 450 100<400 600 700 900>
CounterMasks: 1 e0
AnchorPoint: "Above" 600 0 basechar 0
LayerCount: 2
Fore
SplineSet
150 1000 m 2
 500 1000 l 2
 530.265075711 1000 550 971.459808665 550 950 c 2
 550 350 l 2
 550 319.734924289 521.459808665 300 500 300 c 2
 150 300 l 2
 119.734924289 300 100 328.540191335 100 350 c 2
 100 950 l 2
 100 980.265075711 128.540191335 1000 150 1000 c 2
450 700 m 1
 450 900 l 1
 200 900 l 1
 200 700 l 1
 450 700 l 1
450 600 m 1
 200 600 l 1
 200 400 l 1
 450 400 l 1
 450 600 l 1
EndSplineSet
EndChar

StartChar: NameMe.164
Encoding: 164 -1 151
Width: 1200
VWidth: 0
Flags: W
HStem: 300 100<200 450> 600 100<200 450> 900 100<200 450>
VStem: 100 100<400 600 700 900> 450 100<400 600 700 900>
CounterMasks: 1 e0
AnchorPoint: "Above" 600 0 basechar 0
LayerCount: 2
Fore
SplineSet
150 1000 m 2
 500 1000 l 2
 530.265075711 1000 550 971.459808665 550 950 c 2
 550 350 l 2
 550 319.734924289 521.459808665 300 500 300 c 2
 150 300 l 2
 119.734924289 300 100 328.540191335 100 350 c 2
 100 950 l 2
 100 980.265075711 128.540191335 1000 150 1000 c 2
450 700 m 1
 450 900 l 1
 200 900 l 1
 200 700 l 1
 450 700 l 1
450 600 m 1
 200 600 l 1
 200 400 l 1
 450 400 l 1
 450 600 l 1
EndSplineSet
EndChar

StartChar: NameMe.165
Encoding: 165 -1 152
Width: 1200
VWidth: 0
Flags: W
HStem: 300 100<200 450> 600 100<200 450> 900 100<200 450>
VStem: 100 100<400 600 700 900> 450 100<400 600 700 900>
CounterMasks: 1 e0
AnchorPoint: "Above" 600 0 basechar 0
LayerCount: 2
Fore
SplineSet
150 1000 m 2
 500 1000 l 2
 530.265075711 1000 550 971.459808665 550 950 c 2
 550 350 l 2
 550 319.734924289 521.459808665 300 500 300 c 2
 150 300 l 2
 119.734924289 300 100 328.540191335 100 350 c 2
 100 950 l 2
 100 980.265075711 128.540191335 1000 150 1000 c 2
450 700 m 1
 450 900 l 1
 200 900 l 1
 200 700 l 1
 450 700 l 1
450 600 m 1
 200 600 l 1
 200 400 l 1
 450 400 l 1
 450 600 l 1
EndSplineSet
EndChar

StartChar: NameMe.166
Encoding: 166 -1 153
Width: 1200
VWidth: 0
Flags: W
HStem: 300 100<200 450> 600 100<200 450> 900 100<200 450>
VStem: 100 100<400 600 700 900> 450 100<400 600 700 900>
CounterMasks: 1 e0
AnchorPoint: "Above" 600 0 basechar 0
LayerCount: 2
Fore
SplineSet
150 1000 m 2
 500 1000 l 2
 530.265075711 1000 550 971.459808665 550 950 c 2
 550 350 l 2
 550 319.734924289 521.459808665 300 500 300 c 2
 150 300 l 2
 119.734924289 300 100 328.540191335 100 350 c 2
 100 950 l 2
 100 980.265075711 128.540191335 1000 150 1000 c 2
450 700 m 1
 450 900 l 1
 200 900 l 1
 200 700 l 1
 450 700 l 1
450 600 m 1
 200 600 l 1
 200 400 l 1
 450 400 l 1
 450 600 l 1
EndSplineSet
EndChar

StartChar: NameMe.167
Encoding: 167 -1 154
Width: 1200
VWidth: 0
Flags: W
HStem: 300 100<200 450> 600 100<200 450> 900 100<200 450>
VStem: 100 100<400 600 700 900> 450 100<400 600 700 900>
CounterMasks: 1 e0
AnchorPoint: "Above" 600 0 basechar 0
LayerCount: 2
Fore
SplineSet
150 1000 m 2
 500 1000 l 2
 530.265075711 1000 550 971.459808665 550 950 c 2
 550 350 l 2
 550 319.734924289 521.459808665 300 500 300 c 2
 150 300 l 2
 119.734924289 300 100 328.540191335 100 350 c 2
 100 950 l 2
 100 980.265075711 128.540191335 1000 150 1000 c 2
450 700 m 1
 450 900 l 1
 200 900 l 1
 200 700 l 1
 450 700 l 1
450 600 m 1
 200 600 l 1
 200 400 l 1
 450 400 l 1
 450 600 l 1
EndSplineSet
EndChar

StartChar: NameMe.168
Encoding: 168 -1 155
Width: 1200
VWidth: 0
Flags: W
HStem: 300 100<200 450> 600 100<200 450> 900 100<200 450>
VStem: 100 100<400 600 700 900> 450 100<400 600 700 900>
CounterMasks: 1 e0
AnchorPoint: "Above" 600 0 basechar 0
LayerCount: 2
Fore
SplineSet
150 1000 m 2
 500 1000 l 2
 530.265075711 1000 550 971.459808665 550 950 c 2
 550 350 l 2
 550 319.734924289 521.459808665 300 500 300 c 2
 150 300 l 2
 119.734924289 300 100 328.540191335 100 350 c 2
 100 950 l 2
 100 980.265075711 128.540191335 1000 150 1000 c 2
450 700 m 1
 450 900 l 1
 200 900 l 1
 200 700 l 1
 450 700 l 1
450 600 m 1
 200 600 l 1
 200 400 l 1
 450 400 l 1
 450 600 l 1
EndSplineSet
EndChar

StartChar: NameMe.169
Encoding: 169 -1 156
Width: 1200
VWidth: 0
Flags: W
HStem: 300 100<200 450> 600 100<200 450> 900 100<200 450>
VStem: 100 100<400 600 700 900> 450 100<400 600 700 900>
CounterMasks: 1 e0
AnchorPoint: "Above" 600 0 basechar 0
LayerCount: 2
Fore
SplineSet
150 1000 m 2
 500 1000 l 2
 530.265075711 1000 550 971.459808665 550 950 c 2
 550 350 l 2
 550 319.734924289 521.459808665 300 500 300 c 2
 150 300 l 2
 119.734924289 300 100 328.540191335 100 350 c 2
 100 950 l 2
 100 980.265075711 128.540191335 1000 150 1000 c 2
450 700 m 1
 450 900 l 1
 200 900 l 1
 200 700 l 1
 450 700 l 1
450 600 m 1
 200 600 l 1
 200 400 l 1
 450 400 l 1
 450 600 l 1
EndSplineSet
EndChar

StartChar: NameMe.176
Encoding: 176 -1 162
Width: 1200
VWidth: 0
Flags: W
HStem: 300 100<200 450> 600 100<200 450> 900 100<200 450>
VStem: 100 100<400 600 700 900> 450 100<400 600 700 900>
CounterMasks: 1 e0
AnchorPoint: "Above" 600 0 basechar 0
LayerCount: 2
Fore
SplineSet
150 1000 m 2
 500 1000 l 2
 530.265075711 1000 550 971.459808665 550 950 c 2
 550 350 l 2
 550 319.734924289 521.459808665 300 500 300 c 2
 150 300 l 2
 119.734924289 300 100 328.540191335 100 350 c 2
 100 950 l 2
 100 980.265075711 128.540191335 1000 150 1000 c 2
450 700 m 1
 450 900 l 1
 200 900 l 1
 200 700 l 1
 450 700 l 1
450 600 m 1
 200 600 l 1
 200 400 l 1
 450 400 l 1
 450 600 l 1
EndSplineSet
EndChar

StartChar: NameMe.177
Encoding: 177 -1 163
Width: 1200
VWidth: 0
Flags: W
HStem: 300 100<200 450> 600 100<200 450> 900 100<200 450>
VStem: 100 100<400 600 700 900> 450 100<400 600 700 900>
CounterMasks: 1 e0
AnchorPoint: "Above" 600 0 basechar 0
LayerCount: 2
Fore
SplineSet
150 1000 m 2
 500 1000 l 2
 530.265075711 1000 550 971.459808665 550 950 c 2
 550 350 l 2
 550 319.734924289 521.459808665 300 500 300 c 2
 150 300 l 2
 119.734924289 300 100 328.540191335 100 350 c 2
 100 950 l 2
 100 980.265075711 128.540191335 1000 150 1000 c 2
450 700 m 1
 450 900 l 1
 200 900 l 1
 200 700 l 1
 450 700 l 1
450 600 m 1
 200 600 l 1
 200 400 l 1
 450 400 l 1
 450 600 l 1
EndSplineSet
EndChar

StartChar: NameMe.178
Encoding: 178 -1 164
Width: 1200
VWidth: 0
Flags: W
HStem: 300 100<200 450> 600 100<200 450> 900 100<200 450>
VStem: 100 100<400 600 700 900> 450 100<400 600 700 900>
CounterMasks: 1 e0
AnchorPoint: "Above" 600 0 basechar 0
LayerCount: 2
Fore
SplineSet
150 1000 m 2
 500 1000 l 2
 530.265075711 1000 550 971.459808665 550 950 c 2
 550 350 l 2
 550 319.734924289 521.459808665 300 500 300 c 2
 150 300 l 2
 119.734924289 300 100 328.540191335 100 350 c 2
 100 950 l 2
 100 980.265075711 128.540191335 1000 150 1000 c 2
450 700 m 1
 450 900 l 1
 200 900 l 1
 200 700 l 1
 450 700 l 1
450 600 m 1
 200 600 l 1
 200 400 l 1
 450 400 l 1
 450 600 l 1
EndSplineSet
EndChar

StartChar: NameMe.179
Encoding: 179 -1 165
Width: 1200
VWidth: 0
Flags: W
HStem: 300 100<200 450> 600 100<200 450> 900 100<200 450>
VStem: 100 100<400 600 700 900> 450 100<400 600 700 900>
CounterMasks: 1 e0
AnchorPoint: "Above" 600 0 basechar 0
LayerCount: 2
Fore
SplineSet
150 1000 m 2
 500 1000 l 2
 530.265075711 1000 550 971.459808665 550 950 c 2
 550 350 l 2
 550 319.734924289 521.459808665 300 500 300 c 2
 150 300 l 2
 119.734924289 300 100 328.540191335 100 350 c 2
 100 950 l 2
 100 980.265075711 128.540191335 1000 150 1000 c 2
450 700 m 1
 450 900 l 1
 200 900 l 1
 200 700 l 1
 450 700 l 1
450 600 m 1
 200 600 l 1
 200 400 l 1
 450 400 l 1
 450 600 l 1
EndSplineSet
EndChar

StartChar: NameMe.180
Encoding: 180 -1 166
Width: 1200
VWidth: 0
Flags: W
HStem: 300 100<200 450> 600 100<200 450> 900 100<200 450>
VStem: 100 100<400 600 700 900> 450 100<400 600 700 900>
CounterMasks: 1 e0
AnchorPoint: "Above" 600 0 basechar 0
LayerCount: 2
Fore
SplineSet
150 1000 m 2
 500 1000 l 2
 530.265075711 1000 550 971.459808665 550 950 c 2
 550 350 l 2
 550 319.734924289 521.459808665 300 500 300 c 2
 150 300 l 2
 119.734924289 300 100 328.540191335 100 350 c 2
 100 950 l 2
 100 980.265075711 128.540191335 1000 150 1000 c 2
450 700 m 1
 450 900 l 1
 200 900 l 1
 200 700 l 1
 450 700 l 1
450 600 m 1
 200 600 l 1
 200 400 l 1
 450 400 l 1
 450 600 l 1
EndSplineSet
EndChar

StartChar: NameMe.181
Encoding: 181 -1 167
Width: 1200
VWidth: 0
Flags: W
AnchorPoint: "Above" 600 0 basechar 0
LayerCount: 2
Fore
SplineSet
100 1000 m 1
 130.468690688 1039.64415326 l 1
 585.869081313 689.644153261 l 2
 613.540987578 668.376786363 608.170874146 627.495989024 585.869081313 610.355846739 c 2
 130.468690688 260.355846739 l 1
 100 300 l 1
 69.5313093119 339.644153261 l 1
 473.348948849 650 l 1
 69.5313093119 960.355846739 l 1
 100 1000 l 1
EndSplineSet
EndChar

StartChar: NameMe.182
Encoding: 182 -1 168
Width: 1200
VWidth: 0
Flags: W
HStem: 600 100<100 549.551>
VStem: 275 100<707.623 1000>
AnchorPoint: "Above" 600 0 basechar 0
LayerCount: 2
Fore
SplineSet
100 650 m 1
 100 700 l 1
 549.55078125 700 l 1
 549.55078125 650 l 1
 549.55078125 600 l 1
 100 600 l 1
 100 650 l 1
325 769 m 1
 275 769 l 1
 275 1000 l 1
 325 1000 l 1
 375 1000 l 1
 375 769 l 1
 325 769 l 1
560.827421521 323.012517227 m 1
 549.55078125 300.700195312 l 1
 526.997542658 256.075634485 l 1
 464.064107221 287.882172377 379.951560017 404.689638454 323.234994881 544.135954424 c 1
 263.745071952 403.508500499 175.180193584 291.382706116 128.960670003 258.541983513 c 1
 100 299.30078125 l 1
 71.0393299971 340.059578987 l 1
 101.873173626 361.968193074 272.818735982 582.001071172 275.003390648 769.582282868 c 0
 275.338096248 798.321141607 300.879065279 821.385251146 329.503076228 818.796810184 c 0
 355.16302456 816.476406469 375.275521455 794.134303158 374.997059916 768.457782522 c 0
 373.026098643 586.718401327 539.541499379 362.376068275 572.104061791 345.324839141 c 1
 560.827421521 323.012517227 l 1
EndSplineSet
EndChar

StartChar: NameMe.183
Encoding: 183 -1 169
Width: 1200
VWidth: 0
Flags: W
VStem: 100 100<534.946 1000> 450 100<300 765.054>
AnchorPoint: "Above" 600 0 basechar 0
LayerCount: 2
Fore
SplineSet
150 1000 m 1
 200 1000 l 1
 200 534.946028496 l 1
 456.811054955 975.193551276 l 2
 471.292715225 1000.0192546 504.891381671 1007.46397493 528.504370703 991.079202169 c 0
 542.742654439 981.199426118 550 962.084041171 550 950 c 2
 550 300 l 5
 500 300 l 1
 450 300 l 1
 450 765.053971504 l 1
 193.188945045 324.806448724 l 2
 185.688729653 311.948936623 170.471701694 301.456514363 153.922854272 300.154125403 c 0
 125.270640305 297.899205394 100 321.259192262 100 350 c 2
 100 1000 l 1
 150 1000 l 1
EndSplineSet
EndChar

StartChar: NameMe.184
Encoding: 184 -1 170
Width: 1200
VWidth: 0
Flags: W
HStem: 300 100<200 450> 600 100<200 450> 900 100<200 450>
VStem: 100 100<400 600 700 900> 450 100<400 600 700 900>
CounterMasks: 1 e0
AnchorPoint: "Above" 600 0 basechar 0
LayerCount: 2
Fore
SplineSet
150 1000 m 2
 500 1000 l 2
 530.265075711 1000 550 971.459808665 550 950 c 2
 550 350 l 2
 550 319.734924289 521.459808665 300 500 300 c 2
 150 300 l 2
 119.734924289 300 100 328.540191335 100 350 c 2
 100 950 l 2
 100 980.265075711 128.540191335 1000 150 1000 c 2
450 700 m 1
 450 900 l 1
 200 900 l 1
 200 700 l 1
 450 700 l 1
450 600 m 1
 200 600 l 1
 200 400 l 1
 450 400 l 1
 450 600 l 1
EndSplineSet
EndChar

StartChar: NameMe.185
Encoding: 185 -1 171
Width: 1200
VWidth: 0
Flags: W
HStem: 300 100<100 450> 600 100<200 450> 900 100<200 550>
VStem: 100 100<700 900> 450 100<400 600>
CounterMasks: 1 e0
AnchorPoint: "Above" 600 0 basechar 0
LayerCount: 2
Fore
SplineSet
550 950 m 1
 550 900 l 1
 200 900 l 1
 200 700 l 1
 500 700 l 2
 530.265075711 700 550 671.459808665 550 650 c 2
 550 350 l 2
 550 319.734924289 521.459808665 300 500 300 c 2
 100 300 l 1
 100 350 l 1
 100 400 l 1
 450 400 l 1
 450 600 l 1
 150 600 l 2
 128.540191335 600 100 619.734924289 100 650 c 2
 100 950 l 2
 100 971.459808665 119.734924289 1000 150 1000 c 2
 550 1000 l 1
 550 950 l 1
EndSplineSet
EndChar

StartChar: NameMe.193
Encoding: 193 -1 172
Width: 0
VWidth: 0
Flags: W
HStem: 0 100<750 1000> 450 100<750 1000> 900 100<750 1000>
VStem: 650 100<100 450 550 900> 1000 100<100 450 550 900>
CounterMasks: 1 e0
AnchorPoint: "Above" 600 0 mark 0
LayerCount: 2
Fore
SplineSet
700 1000 m 2
 1050 1000 l 2
 1080.26507571 1000 1100 971.459808665 1100 950 c 2
 1100 50 l 2
 1100 19.7349242889 1071.45980867 0 1050 0 c 2
 700 0 l 2
 669.734924289 0 650 28.5401913347 650 50 c 2
 650 950 l 2
 650 980.265075711 678.540191335 1000 700 1000 c 2
1000 550 m 1
 1000 900 l 1
 750 900 l 1
 750 550 l 1
 1000 550 l 1
1000 450 m 1
 750 450 l 1
 750 100 l 1
 1000 100 l 1
 1000 450 l 1
EndSplineSet
EndChar

StartChar: NameMe.194
Encoding: 194 -1 173
Width: 0
VWidth: 0
Flags: W
HStem: 0 100<750 1000> 450 100<750 1000> 900 100<750 1000>
VStem: 650 100<100 450 550 900> 1000 100<100 450 550 900>
CounterMasks: 1 e0
AnchorPoint: "Above" 600 0 mark 0
LayerCount: 2
Fore
SplineSet
700 1000 m 2
 1050 1000 l 2
 1080.26507571 1000 1100 971.459808665 1100 950 c 2
 1100 50 l 2
 1100 19.7349242889 1071.45980867 0 1050 0 c 2
 700 0 l 2
 669.734924289 0 650 28.5401913347 650 50 c 2
 650 950 l 2
 650 980.265075711 678.540191335 1000 700 1000 c 2
1000 550 m 1
 1000 900 l 1
 750 900 l 1
 750 550 l 1
 1000 550 l 1
1000 450 m 1
 750 450 l 1
 750 100 l 1
 1000 100 l 1
 1000 450 l 1
EndSplineSet
EndChar

StartChar: NameMe.195
Encoding: 195 -1 174
Width: 0
VWidth: 0
Flags: W
HStem: 0 100<750 1000> 450 100<750 1000> 900 100<750 1000>
VStem: 650 100<100 450 550 900> 1000 100<100 450 550 900>
CounterMasks: 1 e0
AnchorPoint: "Above" 600 0 mark 0
LayerCount: 2
Fore
SplineSet
700 1000 m 2
 1050 1000 l 2
 1080.26507571 1000 1100 971.459808665 1100 950 c 2
 1100 50 l 2
 1100 19.7349242889 1071.45980867 0 1050 0 c 2
 700 0 l 2
 669.734924289 0 650 28.5401913347 650 50 c 2
 650 950 l 2
 650 980.265075711 678.540191335 1000 700 1000 c 2
1000 550 m 1
 1000 900 l 1
 750 900 l 1
 750 550 l 1
 1000 550 l 1
1000 450 m 1
 750 450 l 1
 750 100 l 1
 1000 100 l 1
 1000 450 l 1
EndSplineSet
EndChar

StartChar: NameMe.196
Encoding: 196 -1 175
Width: 0
VWidth: 0
Flags: W
HStem: 0 100<750 1000> 450 100<750 1000> 900 100<750 1000>
VStem: 650 100<100 450 550 900> 1000 100<100 450 550 900>
CounterMasks: 1 e0
AnchorPoint: "Above" 600 0 mark 0
LayerCount: 2
Fore
SplineSet
700 1000 m 2
 1050 1000 l 2
 1080.26507571 1000 1100 971.459808665 1100 950 c 2
 1100 50 l 2
 1100 19.7349242889 1071.45980867 0 1050 0 c 2
 700 0 l 2
 669.734924289 0 650 28.5401913347 650 50 c 2
 650 950 l 2
 650 980.265075711 678.540191335 1000 700 1000 c 2
1000 550 m 1
 1000 900 l 1
 750 900 l 1
 750 550 l 1
 1000 550 l 1
1000 450 m 1
 750 450 l 1
 750 100 l 1
 1000 100 l 1
 1000 450 l 1
EndSplineSet
EndChar

StartChar: NameMe.197
Encoding: 197 -1 176
Width: 0
VWidth: 0
Flags: W
HStem: 0 100<750 1000> 450 100<750 1000> 900 100<750 1000>
VStem: 650 100<100 450 550 900> 1000 100<100 450 550 900>
CounterMasks: 1 e0
AnchorPoint: "Above" 600 0 mark 0
LayerCount: 2
Fore
SplineSet
700 1000 m 2
 1050 1000 l 2
 1080.26507571 1000 1100 971.459808665 1100 950 c 2
 1100 50 l 2
 1100 19.7349242889 1071.45980867 0 1050 0 c 2
 700 0 l 2
 669.734924289 0 650 28.5401913347 650 50 c 2
 650 950 l 2
 650 980.265075711 678.540191335 1000 700 1000 c 2
1000 550 m 1
 1000 900 l 1
 750 900 l 1
 750 550 l 1
 1000 550 l 1
1000 450 m 1
 750 450 l 1
 750 100 l 1
 1000 100 l 1
 1000 450 l 1
EndSplineSet
EndChar

StartChar: NameMe.198
Encoding: 198 -1 177
Width: 0
VWidth: 0
Flags: W
HStem: 0 100<750 1000> 450 100<750 1000> 900 100<750 1000>
VStem: 650 100<100 450 550 900> 1000 100<100 450 550 900>
CounterMasks: 1 e0
AnchorPoint: "Above" 600 0 mark 0
LayerCount: 2
Fore
SplineSet
700 1000 m 2
 1050 1000 l 2
 1080.26507571 1000 1100 971.459808665 1100 950 c 2
 1100 50 l 2
 1100 19.7349242889 1071.45980867 0 1050 0 c 2
 700 0 l 2
 669.734924289 0 650 28.5401913347 650 50 c 2
 650 950 l 2
 650 980.265075711 678.540191335 1000 700 1000 c 2
1000 550 m 1
 1000 900 l 1
 750 900 l 1
 750 550 l 1
 1000 550 l 1
1000 450 m 1
 750 450 l 1
 750 100 l 1
 1000 100 l 1
 1000 450 l 1
EndSplineSet
EndChar

StartChar: NameMe.199
Encoding: 199 -1 178
Width: 0
VWidth: 0
Flags: W
HStem: 0 100<750 1000> 450 100<750 1000> 900 100<750 1000>
VStem: 650 100<100 450 550 900> 1000 100<100 450 550 900>
CounterMasks: 1 e0
AnchorPoint: "Above" 600 0 mark 0
LayerCount: 2
Fore
SplineSet
700 1000 m 2
 1050 1000 l 2
 1080.26507571 1000 1100 971.459808665 1100 950 c 2
 1100 50 l 2
 1100 19.7349242889 1071.45980867 0 1050 0 c 2
 700 0 l 2
 669.734924289 0 650 28.5401913347 650 50 c 2
 650 950 l 2
 650 980.265075711 678.540191335 1000 700 1000 c 2
1000 550 m 1
 1000 900 l 1
 750 900 l 1
 750 550 l 1
 1000 550 l 1
1000 450 m 1
 750 450 l 1
 750 100 l 1
 1000 100 l 1
 1000 450 l 1
EndSplineSet
EndChar

StartChar: NameMe.200
Encoding: 200 -1 179
Width: 0
VWidth: 0
Flags: W
HStem: 0 100<750 1000> 450 100<750 1000> 900 100<750 1000>
VStem: 650 100<100 450 550 900> 1000 100<100 450 550 900>
CounterMasks: 1 e0
AnchorPoint: "Above" 600 0 mark 0
LayerCount: 2
Fore
SplineSet
700 1000 m 2
 1050 1000 l 2
 1080.26507571 1000 1100 971.459808665 1100 950 c 2
 1100 50 l 2
 1100 19.7349242889 1071.45980867 0 1050 0 c 2
 700 0 l 2
 669.734924289 0 650 28.5401913347 650 50 c 2
 650 950 l 2
 650 980.265075711 678.540191335 1000 700 1000 c 2
1000 550 m 1
 1000 900 l 1
 750 900 l 1
 750 550 l 1
 1000 550 l 1
1000 450 m 1
 750 450 l 1
 750 100 l 1
 1000 100 l 1
 1000 450 l 1
EndSplineSet
EndChar

StartChar: NameMe.201
Encoding: 201 -1 180
Width: 0
VWidth: 0
Flags: W
HStem: 0 100<750 1000> 450 100<750 1000> 900 100<750 1000>
VStem: 650 100<100 450 550 900> 1000 100<100 450 550 900>
CounterMasks: 1 e0
AnchorPoint: "Above" 600 0 mark 0
LayerCount: 2
Fore
SplineSet
700 1000 m 2
 1050 1000 l 2
 1080.26507571 1000 1100 971.459808665 1100 950 c 2
 1100 50 l 2
 1100 19.7349242889 1071.45980867 0 1050 0 c 2
 700 0 l 2
 669.734924289 0 650 28.5401913347 650 50 c 2
 650 950 l 2
 650 980.265075711 678.540191335 1000 700 1000 c 2
1000 550 m 1
 1000 900 l 1
 750 900 l 1
 750 550 l 1
 1000 550 l 1
1000 450 m 1
 750 450 l 1
 750 100 l 1
 1000 100 l 1
 1000 450 l 1
EndSplineSet
EndChar

StartChar: NameMe.208
Encoding: 208 -1 181
Width: 0
VWidth: 0
Flags: W
HStem: 0 100<750 1000> 900 100<750 1000>
VStem: 650 100<100 900> 1000 100<100 900>
AnchorPoint: "Above" 600 0 mark 0
LayerCount: 2
Back
SplineSet
700 950 m 5
 1050 950 l 29
 1050 50 l 5
 700 50 l 5
 700 950 l 5
EndSplineSet
Fore
SplineSet
750 900 m 1
 750 100 l 1
 1000 100 l 1
 1000 900 l 1
 750 900 l 1
700 1000 m 2
 1050 1000 l 2
 1080.26507571 1000 1100 971.459808665 1100 950 c 2
 1100 50 l 2
 1100 19.7349242889 1071.45980867 0 1050 0 c 2
 700 0 l 2
 669.734924289 0 650 28.5401913347 650 50 c 2
 650 950 l 2
 650 980.265075711 678.540191335 1000 700 1000 c 2
EndSplineSet
EndChar

StartChar: NameMe.209
Encoding: 209 -1 182
Width: 0
VWidth: 0
Flags: W
HStem: 0 100<750 1000> 900 100<750 1000>
VStem: 650 100<100 900> 1000 100<100 900>
AnchorPoint: "Above" 600 0 mark 0
LayerCount: 2
Fore
SplineSet
750 900 m 1
 750 100 l 1
 1000 100 l 1
 1000 900 l 1
 750 900 l 1
700 1000 m 2
 1050 1000 l 2
 1080.26507571 1000 1100 971.459808665 1100 950 c 2
 1100 50 l 2
 1100 19.7349242889 1071.45980867 0 1050 0 c 2
 700 0 l 2
 669.734924289 0 650 28.5401913347 650 50 c 2
 650 950 l 2
 650 980.265075711 678.540191335 1000 700 1000 c 2
EndSplineSet
EndChar

StartChar: NameMe.210
Encoding: 210 -1 183
Width: 0
VWidth: 0
Flags: W
HStem: 0 100<750 1000> 900 100<750 1000>
VStem: 650 100<100 900> 1000 100<100 900>
AnchorPoint: "Above" 600 0 mark 0
LayerCount: 2
Fore
SplineSet
750 900 m 1
 750 100 l 1
 1000 100 l 1
 1000 900 l 1
 750 900 l 1
700 1000 m 2
 1050 1000 l 2
 1080.26507571 1000 1100 971.459808665 1100 950 c 2
 1100 50 l 2
 1100 19.7349242889 1071.45980867 0 1050 0 c 2
 700 0 l 2
 669.734924289 0 650 28.5401913347 650 50 c 2
 650 950 l 2
 650 980.265075711 678.540191335 1000 700 1000 c 2
EndSplineSet
EndChar

StartChar: NameMe.211
Encoding: 211 -1 184
Width: 0
VWidth: 0
Flags: W
HStem: 0 100<750 1000> 900 100<750 1000>
VStem: 650 100<100 900> 1000 100<100 900>
AnchorPoint: "Above" 600 0 mark 0
LayerCount: 2
Fore
SplineSet
750 900 m 1
 750 100 l 1
 1000 100 l 1
 1000 900 l 1
 750 900 l 1
700 1000 m 2
 1050 1000 l 2
 1080.26507571 1000 1100 971.459808665 1100 950 c 2
 1100 50 l 2
 1100 19.7349242889 1071.45980867 0 1050 0 c 2
 700 0 l 2
 669.734924289 0 650 28.5401913347 650 50 c 2
 650 950 l 2
 650 980.265075711 678.540191335 1000 700 1000 c 2
EndSplineSet
EndChar

StartChar: NameMe.212
Encoding: 212 -1 185
Width: 0
VWidth: 0
Flags: W
HStem: 0 100<750 1000> 900 100<750 1000>
VStem: 650 100<100 900> 1000 100<100 900>
AnchorPoint: "Above" 600 0 mark 0
LayerCount: 2
Fore
SplineSet
750 900 m 1
 750 100 l 1
 1000 100 l 1
 1000 900 l 1
 750 900 l 1
700 1000 m 2
 1050 1000 l 2
 1080.26507571 1000 1100 971.459808665 1100 950 c 2
 1100 50 l 2
 1100 19.7349242889 1071.45980867 0 1050 0 c 2
 700 0 l 2
 669.734924289 0 650 28.5401913347 650 50 c 2
 650 950 l 2
 650 980.265075711 678.540191335 1000 700 1000 c 2
EndSplineSet
EndChar

StartChar: NameMe.213
Encoding: 213 -1 186
Width: 0
VWidth: 0
Flags: W
HStem: 0 100<750 1000> 900 100<750 1000>
VStem: 650 100<100 900> 1000 100<100 900>
AnchorPoint: "Above" 600 0 mark 0
LayerCount: 2
Fore
SplineSet
750 900 m 1
 750 100 l 1
 1000 100 l 1
 1000 900 l 1
 750 900 l 1
700 1000 m 2
 1050 1000 l 2
 1080.26507571 1000 1100 971.459808665 1100 950 c 2
 1100 50 l 2
 1100 19.7349242889 1071.45980867 0 1050 0 c 2
 700 0 l 2
 669.734924289 0 650 28.5401913347 650 50 c 2
 650 950 l 2
 650 980.265075711 678.540191335 1000 700 1000 c 2
EndSplineSet
EndChar

StartChar: NameMe.214
Encoding: 214 -1 187
Width: 0
VWidth: 0
Flags: W
HStem: 0 100<750 1000> 900 100<750 1000>
VStem: 650 100<100 900> 1000 100<100 900>
AnchorPoint: "Above" 600 0 mark 0
LayerCount: 2
Fore
SplineSet
750 900 m 1
 750 100 l 1
 1000 100 l 1
 1000 900 l 1
 750 900 l 1
700 1000 m 2
 1050 1000 l 2
 1080.26507571 1000 1100 971.459808665 1100 950 c 2
 1100 50 l 2
 1100 19.7349242889 1071.45980867 0 1050 0 c 2
 700 0 l 2
 669.734924289 0 650 28.5401913347 650 50 c 2
 650 950 l 2
 650 980.265075711 678.540191335 1000 700 1000 c 2
EndSplineSet
EndChar

StartChar: NameMe.215
Encoding: 215 -1 188
Width: 0
VWidth: 0
Flags: W
HStem: 0 100<750 1000> 900 100<750 1000>
VStem: 650 100<100 900> 1000 100<100 900>
AnchorPoint: "Above" 600 0 mark 0
LayerCount: 2
Fore
SplineSet
750 900 m 1
 750 100 l 1
 1000 100 l 1
 1000 900 l 1
 750 900 l 1
700 1000 m 2
 1050 1000 l 2
 1080.26507571 1000 1100 971.459808665 1100 950 c 2
 1100 50 l 2
 1100 19.7349242889 1071.45980867 0 1050 0 c 2
 700 0 l 2
 669.734924289 0 650 28.5401913347 650 50 c 2
 650 950 l 2
 650 980.265075711 678.540191335 1000 700 1000 c 2
EndSplineSet
EndChar

StartChar: NameMe.216
Encoding: 216 -1 189
Width: 0
VWidth: 0
Flags: W
HStem: 0 100<750 1000> 900 100<750 1000>
VStem: 650 100<100 900> 1000 100<100 900>
AnchorPoint: "Above" 600 0 mark 0
LayerCount: 2
Fore
SplineSet
750 900 m 1
 750 100 l 1
 1000 100 l 1
 1000 900 l 1
 750 900 l 1
700 1000 m 2
 1050 1000 l 2
 1080.26507571 1000 1100 971.459808665 1100 950 c 2
 1100 50 l 2
 1100 19.7349242889 1071.45980867 0 1050 0 c 2
 700 0 l 2
 669.734924289 0 650 28.5401913347 650 50 c 2
 650 950 l 2
 650 980.265075711 678.540191335 1000 700 1000 c 2
EndSplineSet
EndChar

StartChar: NameMe.217
Encoding: 217 -1 190
Width: 0
VWidth: 0
Flags: W
HStem: 0 100<750 1000> 900 100<750 1000>
VStem: 650 100<100 900> 1000 100<100 900>
AnchorPoint: "Above" 600 0 mark 0
LayerCount: 2
Fore
SplineSet
750 900 m 1
 750 100 l 1
 1000 100 l 1
 1000 900 l 1
 750 900 l 1
700 1000 m 2
 1050 1000 l 2
 1080.26507571 1000 1100 971.459808665 1100 950 c 2
 1100 50 l 2
 1100 19.7349242889 1071.45980867 0 1050 0 c 2
 700 0 l 2
 669.734924289 0 650 28.5401913347 650 50 c 2
 650 950 l 2
 650 980.265075711 678.540191335 1000 700 1000 c 2
EndSplineSet
EndChar

StartChar: NameMe.352
Encoding: 352 -1 191
Width: 1200
VWidth: 0
Flags: W
HStem: 0.5 100<199.5 800> 288 100<514.112 645.888> 912 100<514.112 645.888>
VStem: 99.5 100<100.5 999.5> 348 100<464.785 835.215> 712 100<464.785 835.215>
AnchorPoint: "Above" 600 0 basechar 0
LayerCount: 2
Back
SplineSet
398 650 m 4
 398 822.529801325 480 962 580 962 c 4
 680 962 762 822.529801325 762 650 c 4
 762 477.470198675 680 338 580 338 c 4
 480 338 398 477.470198675 398 650 c 4
149.5 999.5 m 25
 149.5 50.5 l 1
 800 50.5 l 1049
EndSplineSet
Fore
SplineSet
448 650 m 0
 448 482.48414369 529.49999374 388 580 388 c 0
 630.499087973 388 712 482.487773808 712 650 c 0
 712 817.51585631 630.50000626 912 580 912 c 0
 529.500912027 912 448 817.512226192 448 650 c 0
348 650 m 0
 348 827.547376457 430.499087973 1012 580 1012 c 0
 729.49999374 1012 812 827.543746339 812 650 c 0
 812 472.452623543 729.500912027 288 580 288 c 0
 430.50000626 288 348 472.456253661 348 650 c 0
149.5 999.5 m 1
 199.5 999.5 l 1
 199.5 100.5 l 1
 800 100.5 l 1
 800 50.5 l 1
 800 0.5 l 1
 149.5 0.5 l 2
 128.040191335 0.5 99.5 20.2349242889 99.5 50.5 c 2
 99.5 999.5 l 1
 149.5 999.5 l 1
EndSplineSet
EndChar

StartChar: NameMe.353
Encoding: 353 -1 192
Width: 1200
VWidth: 0
Flags: W
HStem: 0.5 100<99.5 700> 288 100<254.112 385.888> 912 100<254.112 385.888>
VStem: 88 100<464.785 835.215> 452 100<464.785 835.215> 700 100<100.5 999.5>
AnchorPoint: "Above" 600 0 basechar 0
LayerCount: 2
Back
SplineSet
99.5 50.5 m 5
 750 50.5 l 29
 750 999.5 l 1053
138 650 m 4
 138 822.529801325 220 962 320 962 c 4
 420 962 502 822.529801325 502 650 c 4
 502 477.470198675 420 338 320 338 c 4
 220 338 138 477.470198675 138 650 c 4
EndSplineSet
Fore
SplineSet
99.5 50.5 m 1
 99.5 100.5 l 1
 700 100.5 l 1
 700 999.5 l 1
 750 999.5 l 1
 800 999.5 l 1
 800 50.5 l 2
 800 29.0401913347 780.265075711 0.5 750 0.5 c 2
 99.5 0.5 l 1
 99.5 50.5 l 1
188 650 m 0
 188 482.48414369 269.49999374 388 320 388 c 0
 370.499087973 388 452 482.487773808 452 650 c 0
 452 817.51585631 370.50000626 912 320 912 c 0
 269.500912027 912 188 817.512226192 188 650 c 0
88 650 m 0
 88 827.547376457 170.499087973 1012 320 1012 c 0
 469.49999374 1012 552 827.543746339 552 650 c 0
 552 472.452623543 469.500912027 288 320 288 c 0
 170.50000626 288 88 472.456253661 88 650 c 0
99.5 50.5 m 1
 99.5 100.5 l 1
 700 100.5 l 1
 700 999.5 l 1
 750 999.5 l 1
 800 999.5 l 1
 800 50.5 l 2
 800 29.0401913347 780.265075711 0.5 750 0.5 c 2
 99.5 0.5 l 1
 99.5 50.5 l 1
EndSplineSet
EndChar

StartChar: NameMe.354
Encoding: 354 -1 193
Width: 1200
VWidth: 0
Flags: W
HStem: 300 100<200 999> 600 100<200 999> 900 100<200 999>
VStem: 100 100<400 600 700 900> 999 100<400 600 700 900>
AnchorPoint: "Above" 600 0 basechar 0
LayerCount: 2
Fore
SplineSet
150 1000 m 1
 200 1000 l 1
 200 400.026308864 l 1
 1100.47369806 400.499993082 l 1
 1100.5 350.5 l 1
 1100.52630194 300.500006918 l 1
 150.026301943 300.000006918 l 2
 128.517836118 299.988692628 100 319.743402766 100 350 c 2
 100 1000 l 1
 150 1000 l 1
EndSplineSet
EndChar

StartChar: NameMe.355
Encoding: 355 -1 194
Width: 1200
VWidth: 0
Flags: W
HStem: 300 100<200 999> 600 100<200 999> 900 100<200 999>
VStem: 100 100<400 600 700 900> 999 100<400 600 700 900>
AnchorPoint: "Above" 600 0 basechar 0
LayerCount: 2
Fore
SplineSet
99.5 350 m 1
 99.5 400 l 1
 1000.5 400 l 1
 1000.5 999.5 l 1
 1050.5 999.5 l 1
 1100.5 999.5 l 1
 1100.5 350 l 2
 1100.5 328.540191335 1080.76507571 300 1050.5 300 c 2
 99.5 300 l 1
 99.5 350 l 1
EndSplineSet
EndChar

StartChar: denpabu.ce.1
Encoding: 63 -1 195
Width: 940
VWidth: 0
Flags: W
HStem: 5 50<287.686 452.314> 725 50<287.686 452.314>
VStem: 75 50<254.113 525.887> 615 50<254.113 525.887>
LayerCount: 2
Back
SplineSet
100 390 m 0
 100 589 221 750 370 750 c 0
 519 750 640 589 640 390 c 0
 640 191 519 30 370 30 c 0
 221 30 100 191 100 390 c 0
EndSplineSet
Fore
SplineSet
125 390 m 0
 125 198.668772665 240.825480657 55 370 55 c 0
 499.174397674 55 615 198.668908819 615 390 c 0
 615 581.331227335 499.174519343 725 370 725 c 0
 240.825602326 725 125 581.331091181 125 390 c 0
75 390 m 0
 75 596.668908819 201.174397674 775 370 775 c 0
 538.825480657 775 665 596.668772665 665 390 c 0
 665 183.331091181 538.825602326 5 370 5 c 0
 201.174519343 5 75 183.331227335 75 390 c 0
EndSplineSet
EndChar

StartChar: ybu.ce.2
Encoding: 47 -1 196
Width: 0
VWidth: 0
Flags: WO
VStem: 715 50<35 745> 795 50<35 745>
AnchorPoint: "Above" 470 0 mark 0
LayerCount: 2
Back
SplineSet
740 720 m 5
 740 60 l 1029
820 720 m 5
 820 60 l 1029
EndSplineSet
Fore
SplineSet
740 745 m 1
 765 745 l 1
 765 720 l 1
 765 60 l 1
 765 35 l 1
 740 35 l 1
 715 35 l 1
 715 60 l 1
 715 720 l 1
 715 745 l 1
 740 745 l 1
820 745 m 1
 845 745 l 1
 845 720 l 1
 845 60 l 1
 845 35 l 1
 820 35 l 1
 795 35 l 1
 795 60 l 1
 795 720 l 1
 795 745 l 1
 820 745 l 1
EndSplineSet
EndChar

StartChar: eibu.ce.2
Encoding: 58 -1 197
Width: 0
VWidth: 0
Flags: W
HStem: 275 50<715 795> 465 50<715 795>
VStem: 715 130<275 325 465 515> 795 50<35 275 325 465 515 745>
AnchorPoint: "Above" 470 0 mark 0
LayerCount: 2
Back
SplineSet
740 300 m 5
 820 300 l 1029
740 490 m 5
 820 490 l 1029
820 720 m 5
 820 60 l 1029
EndSplineSet
Fore
SplineSet
820 745 m 1xd0
 845 745 l 1
 845 720 l 1xd0
 845 515 l 1
 845 490 l 1
 845 465 l 1
 845 325 l 1
 845 300 l 1
 845 275 l 1xe0
 845 60 l 1
 845 35 l 1
 820 35 l 1
 795 35 l 1
 795 60 l 1
 795 275 l 1xd0
 740 275 l 1
 715 275 l 1
 715 300 l 1
 715 325 l 1xe0
 740 325 l 1
 795 325 l 1
 795 465 l 1xd0
 740 465 l 1
 715 465 l 1
 715 490 l 1
 715 515 l 1xe0
 740 515 l 1
 795 515 l 1
 795 720 l 1
 795 745 l 1
 820 745 l 1xd0
EndSplineSet
EndChar

StartChar: oibu.ce.2
Encoding: 59 -1 198
Width: 0
VWidth: 0
Flags: W
HStem: 265 50<765 845> 465 50<765 845>
VStem: 715 130<265 315 465 515> 715 50<25 265 315 465 515 755>
AnchorPoint: "Above" 470 0 mark 0
LayerCount: 2
Back
SplineSet
820 290 m 5
 740 290 l 1029
820 490 m 5
 740 490 l 1029
740 730 m 5
 740 50 l 1029
EndSplineSet
Fore
SplineSet
740 755 m 1xd0
 765 755 l 1
 765 730 l 1
 765 515 l 1xd0
 820 515 l 1
 845 515 l 1
 845 490 l 1
 845 465 l 1xe0
 820 465 l 1
 765 465 l 1
 765 315 l 1xd0
 820 315 l 1
 845 315 l 1
 845 290 l 1
 845 265 l 1xe0
 820 265 l 1
 765 265 l 1
 765 50 l 1
 765 25 l 1
 740 25 l 1
 715 25 l 1
 715 50 l 1xd0
 715 265 l 1
 715 290 l 1
 715 315 l 1
 715 465 l 1
 715 490 l 1
 715 515 l 1xe0
 715 730 l 1
 715 755 l 1
 740 755 l 1xd0
EndSplineSet
EndChar

StartChar: aibu.ci.2
Encoding: 60 -1 199
Width: 0
VWidth: 0
Flags: W
HStem: -155 120<95.2564 145 445 495> -155 50<145 445 495 845>
VStem: 95 50<-105 -35> 445 50<-105 -35>
AnchorPoint: "Above" 470 0 mark 0
LayerCount: 2
Back
SplineSet
470 -130 m 5
 470 -60 l 1029
820 -130 m 5
 120 -130 l 5
 120 -60 l 1029
EndSplineSet
Fore
SplineSet
845 -130 m 1x70
 845 -155 l 1
 820 -155 l 1x70
 495 -155 l 1
 470 -155 l 1
 445 -155 l 1
 120 -155 l 2
 104.867462144 -155 95 -140.729904333 95 -130 c 2
 95 -60 l 1
 95 -35 l 1
 120 -35 l 1
 145 -35 l 1xb0
 145 -60 l 1
 145 -105 l 1
 445 -105 l 1x70
 445 -60 l 1
 445 -35 l 1
 470 -35 l 1
 495 -35 l 1xb0
 495 -60 l 1
 495 -105 l 1
 820 -105 l 1
 845 -105 l 1
 845 -130 l 1x70
EndSplineSet
EndChar

StartChar: ubu.ci.2
Encoding: 45 -1 201
Width: 0
VWidth: 0
Flags: W
HStem: -155 50<95 795>
VStem: 795 50<-105 -35>
AnchorPoint: "Above" 470 0 mark 0
LayerCount: 2
Back
SplineSet
120 -130 m 5
 820 -130 l 5
 820 -60 l 1053
EndSplineSet
Fore
SplineSet
95 -130 m 1
 95 -105 l 1
 120 -105 l 1
 795 -105 l 1
 795 -60 l 1
 795 -35 l 1
 820 -35 l 1
 845 -35 l 1
 845 -60 l 1
 845 -130 l 2
 845 -140.729904333 835.132537856 -155 820 -155 c 2
 120 -155 l 1
 95 -155 l 1
 95 -130 l 1
EndSplineSet
EndChar

StartChar: abu.ci.2
Encoding: 46 -1 202
Width: 0
VWidth: 0
Flags: W
HStem: -160 118<445 495> -92 50<95 445 495 845>
VStem: 445 50<-160 -92>
AnchorPoint: "Above" 470 -25 mark 0
LayerCount: 2
Back
SplineSet
470 -67 m 5
 470 -135 l 1029
820 -67 m 5
 120 -67 l 1029
EndSplineSet
Fore
SplineSet
845 -67 m 1x60
 845 -92 l 1
 820 -92 l 1
 495 -92 l 1x60
 495 -135 l 1
 495 -160 l 1
 470 -160 l 1
 445 -160 l 1xa0
 445 -135 l 1
 445 -92 l 1
 120 -92 l 1
 95 -92 l 1
 95 -67 l 1
 95 -42 l 1
 845 -42 l 1
 845 -67 l 1x60
EndSplineSet
EndChar

StartChar: py.cec.3
Encoding: 129 -1 203
Width: 0
VWidth: 0
Flags: W
HStem: -155 50<145 795> 35 50<145 795> 225 50<145 795>
VStem: 95 50<-105 35 85 225> 795 50<-105 35 85 225>
AnchorPoint: "Above" 470 0 mark 0
LayerCount: 2
Fore
SplineSet
120 275 m 2
 820 275 l 2
 835.132537856 275 845 260.729904333 845 250 c 2
 845 85 l 1
 845 60 l 1
 845 35 l 1
 845 -130 l 2
 845 -145.132537856 830.729904333 -155 820 -155 c 2
 120 -155 l 2
 104.867462144 -155 95 -140.729904333 95 -130 c 2
 95 35 l 1
 95 60 l 1
 95 85 l 1
 95 250 l 2
 95 265.132537856 109.270095667 275 120 275 c 2
145 35 m 1
 145 -105 l 1
 795 -105 l 1
 795 35 l 1
 145 35 l 1
145 85 m 1
 795 85 l 1
 795 225 l 1
 145 225 l 1
 145 85 l 1
EndSplineSet
EndChar

StartChar: by.cec.3
Encoding: 130 -1 204
Width: 0
VWidth: 0
Flags: W
HStem: -155 50<145 795> 35 50<145 795> 225 50<145 795>
VStem: 95 50<-105 35 85 225> 795 50<-105 35 85 225>
AnchorPoint: "Above" 470 0 mark 0
LayerCount: 2
Fore
SplineSet
120 275 m 2
 820 275 l 2
 835.132537856 275 845 260.729904333 845 250 c 2
 845 85 l 1
 845 60 l 1
 845 35 l 1
 845 -130 l 2
 845 -145.132537856 830.729904333 -155 820 -155 c 2
 120 -155 l 2
 104.867462144 -155 95 -140.729904333 95 -130 c 2
 95 35 l 1
 95 60 l 1
 95 85 l 1
 95 250 l 2
 95 265.132537856 109.270095667 275 120 275 c 2
145 35 m 1
 145 -105 l 1
 795 -105 l 1
 795 35 l 1
 145 35 l 1
145 85 m 1
 795 85 l 1
 795 225 l 1
 145 225 l 1
 145 85 l 1
EndSplineSet
EndChar

StartChar: fy.cec.3
Encoding: 131 -1 205
Width: 0
VWidth: 0
Flags: W
HStem: -155 50<145 795> 35 50<145 795> 225 50<145 795>
VStem: 95 50<-105 35 85 225> 795 50<-105 35 85 225>
AnchorPoint: "Above" 470 0 mark 0
LayerCount: 2
Fore
SplineSet
120 275 m 2
 820 275 l 2
 835.132537856 275 845 260.729904333 845 250 c 2
 845 85 l 1
 845 60 l 1
 845 35 l 1
 845 -130 l 2
 845 -145.132537856 830.729904333 -155 820 -155 c 2
 120 -155 l 2
 104.867462144 -155 95 -140.729904333 95 -130 c 2
 95 35 l 1
 95 60 l 1
 95 85 l 1
 95 250 l 2
 95 265.132537856 109.270095667 275 120 275 c 2
145 35 m 1
 145 -105 l 1
 795 -105 l 1
 795 35 l 1
 145 35 l 1
145 85 m 1
 795 85 l 1
 795 225 l 1
 145 225 l 1
 145 85 l 1
EndSplineSet
EndChar

StartChar: vy.cec.3
Encoding: 132 -1 206
Width: 0
VWidth: 0
Flags: W
HStem: -155 50<145 795> 35 50<145 795> 225 50<145 795>
VStem: 95 50<-105 35 85 225> 795 50<-105 35 85 225>
AnchorPoint: "Above" 470 0 mark 0
LayerCount: 2
Fore
SplineSet
120 275 m 2
 820 275 l 2
 835.132537856 275 845 260.729904333 845 250 c 2
 845 85 l 1
 845 60 l 1
 845 35 l 1
 845 -130 l 2
 845 -145.132537856 830.729904333 -155 820 -155 c 2
 120 -155 l 2
 104.867462144 -155 95 -140.729904333 95 -130 c 2
 95 35 l 1
 95 60 l 1
 95 85 l 1
 95 250 l 2
 95 265.132537856 109.270095667 275 120 275 c 2
145 35 m 1
 145 -105 l 1
 795 -105 l 1
 795 35 l 1
 145 35 l 1
145 85 m 1
 795 85 l 1
 795 225 l 1
 145 225 l 1
 145 85 l 1
EndSplineSet
EndChar

StartChar: ky.cec.3
Encoding: 133 -1 207
Width: 0
VWidth: 0
Flags: W
HStem: -155 50<145 795> 35 50<145 795> 225 50<145 795>
VStem: 95 50<-105 35 85 225> 795 50<-105 35 85 225>
AnchorPoint: "Above" 470 0 mark 0
LayerCount: 2
Fore
SplineSet
120 275 m 2
 820 275 l 2
 835.132537856 275 845 260.729904333 845 250 c 2
 845 85 l 1
 845 60 l 1
 845 35 l 1
 845 -130 l 2
 845 -145.132537856 830.729904333 -155 820 -155 c 2
 120 -155 l 2
 104.867462144 -155 95 -140.729904333 95 -130 c 2
 95 35 l 1
 95 60 l 1
 95 85 l 1
 95 250 l 2
 95 265.132537856 109.270095667 275 120 275 c 2
145 35 m 1
 145 -105 l 1
 795 -105 l 1
 795 35 l 1
 145 35 l 1
145 85 m 1
 795 85 l 1
 795 225 l 1
 145 225 l 1
 145 85 l 1
EndSplineSet
EndChar

StartChar: cy.cec.3
Encoding: 134 -1 208
Width: 0
VWidth: 0
Flags: W
HStem: -155 50<145 795> 35 50<145 795> 225 50<145 795>
VStem: 95 50<-105 35 85 225> 795 50<-105 35 85 225>
AnchorPoint: "Above" 470 0 mark 0
LayerCount: 2
Fore
SplineSet
120 275 m 2
 820 275 l 2
 835.132537856 275 845 260.729904333 845 250 c 2
 845 85 l 1
 845 60 l 1
 845 35 l 1
 845 -130 l 2
 845 -145.132537856 830.729904333 -155 820 -155 c 2
 120 -155 l 2
 104.867462144 -155 95 -140.729904333 95 -130 c 2
 95 35 l 1
 95 60 l 1
 95 85 l 1
 95 250 l 2
 95 265.132537856 109.270095667 275 120 275 c 2
145 35 m 1
 145 -105 l 1
 795 -105 l 1
 795 35 l 1
 145 35 l 1
145 85 m 1
 795 85 l 1
 795 225 l 1
 145 225 l 1
 145 85 l 1
EndSplineSet
EndChar

StartChar: xy.cec.3
Encoding: 135 -1 209
Width: 0
VWidth: 0
Flags: W
HStem: -155 50<145 795> 35 50<145 795> 225 50<145 795>
VStem: 95 50<-105 35 85 225> 795 50<-105 35 85 225>
AnchorPoint: "Above" 470 0 mark 0
LayerCount: 2
Fore
SplineSet
120 275 m 2
 820 275 l 2
 835.132537856 275 845 260.729904333 845 250 c 2
 845 85 l 1
 845 60 l 1
 845 35 l 1
 845 -130 l 2
 845 -145.132537856 830.729904333 -155 820 -155 c 2
 120 -155 l 2
 104.867462144 -155 95 -140.729904333 95 -130 c 2
 95 35 l 1
 95 60 l 1
 95 85 l 1
 95 250 l 2
 95 265.132537856 109.270095667 275 120 275 c 2
145 35 m 1
 145 -105 l 1
 795 -105 l 1
 795 35 l 1
 145 35 l 1
145 85 m 1
 795 85 l 1
 795 225 l 1
 145 225 l 1
 145 85 l 1
EndSplineSet
EndChar

StartChar: iy.cec.3
Encoding: 136 -1 210
Width: 0
VWidth: 0
Flags: W
HStem: -155 50<145 795> 35 50<145 795> 225 50<145 795>
VStem: 95 50<-105 35 85 225> 795 50<-105 35 85 225>
AnchorPoint: "Above" 470 0 mark 0
LayerCount: 2
Fore
SplineSet
120 275 m 2
 820 275 l 2
 835.132537856 275 845 260.729904333 845 250 c 2
 845 85 l 1
 845 60 l 1
 845 35 l 1
 845 -130 l 2
 845 -145.132537856 830.729904333 -155 820 -155 c 2
 120 -155 l 2
 104.867462144 -155 95 -140.729904333 95 -130 c 2
 95 35 l 1
 95 60 l 1
 95 85 l 1
 95 250 l 2
 95 265.132537856 109.270095667 275 120 275 c 2
145 35 m 1
 145 -105 l 1
 795 -105 l 1
 795 35 l 1
 145 35 l 1
145 85 m 1
 795 85 l 1
 795 225 l 1
 145 225 l 1
 145 85 l 1
EndSplineSet
EndChar

StartChar: ny.cec.3
Encoding: 144 -1 211
Width: 0
VWidth: 0
Flags: W
HStem: -155 50<145 795> 225 50<145 795>
VStem: 95 50<-105 225> 795 50<-105 225>
AnchorPoint: "Above" 470 0 mark 0
LayerCount: 2
Back
SplineSet
120 250 m 5
 820 250 l 5
 820 -130 l 5
 120 -130 l 5
 120 250 l 5
EndSplineSet
Fore
SplineSet
145 225 m 1
 145 -105 l 1
 795 -105 l 1
 795 225 l 1
 145 225 l 1
120 275 m 2
 820 275 l 2
 835.132537856 275 845 260.729904333 845 250 c 2
 845 -130 l 2
 845 -145.132537856 830.729904333 -155 820 -155 c 2
 120 -155 l 2
 104.867462144 -155 95 -140.729904333 95 -130 c 2
 95 250 l 2
 95 265.132537856 109.270095667 275 120 275 c 2
EndSplineSet
EndChar

StartChar: ty.cec.3
Encoding: 145 -1 212
Width: 0
VWidth: 0
Flags: W
HStem: -155 50<145 795> 35 50<145 795> 225 50<145 795>
VStem: 95 50<-105 35 85 225> 795 50<-105 35 85 225>
AnchorPoint: "Above" 470 0 mark 0
LayerCount: 2
Fore
SplineSet
145 225 m 1
 145 -105 l 1
 795 -105 l 1
 795 225 l 1
 145 225 l 1
120 275 m 2
 820 275 l 2
 835.132537856 275 845 260.729904333 845 250 c 2
 845 -130 l 2
 845 -145.132537856 830.729904333 -155 820 -155 c 2
 120 -155 l 2
 104.867462144 -155 95 -140.729904333 95 -130 c 2
 95 250 l 2
 95 265.132537856 109.270095667 275 120 275 c 2
EndSplineSet
EndChar

StartChar: dy.cec.3
Encoding: 146 -1 213
Width: 0
VWidth: 0
Flags: W
HStem: -155 50<145 795> 35 50<145 795> 225 50<145 795>
VStem: 95 50<-105 35 85 225> 795 50<-105 35 85 225>
AnchorPoint: "Above" 470 0 mark 0
LayerCount: 2
Fore
SplineSet
145 225 m 1
 145 -105 l 1
 795 -105 l 1
 795 225 l 1
 145 225 l 1
120 275 m 2
 820 275 l 2
 835.132537856 275 845 260.729904333 845 250 c 2
 845 -130 l 2
 845 -145.132537856 830.729904333 -155 820 -155 c 2
 120 -155 l 2
 104.867462144 -155 95 -140.729904333 95 -130 c 2
 95 250 l 2
 95 265.132537856 109.270095667 275 120 275 c 2
EndSplineSet
EndChar

StartChar: sy.cec.3
Encoding: 147 -1 214
Width: 0
VWidth: 0
Flags: W
HStem: -155 50<145 795> 35 50<145 795> 225 50<145 795>
VStem: 95 50<-105 35 85 225> 795 50<-105 35 85 225>
AnchorPoint: "Above" 470 0 mark 0
LayerCount: 2
Fore
SplineSet
145 225 m 1
 145 -105 l 1
 795 -105 l 1
 795 225 l 1
 145 225 l 1
120 275 m 2
 820 275 l 2
 835.132537856 275 845 260.729904333 845 250 c 2
 845 -130 l 2
 845 -145.132537856 830.729904333 -155 820 -155 c 2
 120 -155 l 2
 104.867462144 -155 95 -140.729904333 95 -130 c 2
 95 250 l 2
 95 265.132537856 109.270095667 275 120 275 c 2
EndSplineSet
EndChar

StartChar: zy.cec.3
Encoding: 148 -1 215
Width: 0
VWidth: 0
Flags: W
HStem: -155 50<145 795> 35 50<145 795> 225 50<145 795>
VStem: 95 50<-105 35 85 225> 795 50<-105 35 85 225>
AnchorPoint: "Above" 470 0 mark 0
LayerCount: 2
Fore
SplineSet
145 225 m 1
 145 -105 l 1
 795 -105 l 1
 795 225 l 1
 145 225 l 1
120 275 m 2
 820 275 l 2
 835.132537856 275 845 260.729904333 845 250 c 2
 845 -130 l 2
 845 -145.132537856 830.729904333 -155 820 -155 c 2
 120 -155 l 2
 104.867462144 -155 95 -140.729904333 95 -130 c 2
 95 250 l 2
 95 265.132537856 109.270095667 275 120 275 c 2
EndSplineSet
EndChar

StartChar: gy.cec.3
Encoding: 149 -1 216
Width: 0
VWidth: 0
Flags: W
HStem: -155 50<145 795> 35 50<145 795> 225 50<145 795>
VStem: 95 50<-105 35 85 225> 795 50<-105 35 85 225>
AnchorPoint: "Above" 470 0 mark 0
LayerCount: 2
Fore
SplineSet
145 225 m 1
 145 -105 l 1
 795 -105 l 1
 795 225 l 1
 145 225 l 1
120 275 m 2
 820 275 l 2
 835.132537856 275 845 260.729904333 845 250 c 2
 845 -130 l 2
 845 -145.132537856 830.729904333 -155 820 -155 c 2
 120 -155 l 2
 104.867462144 -155 95 -140.729904333 95 -130 c 2
 95 250 l 2
 95 265.132537856 109.270095667 275 120 275 c 2
EndSplineSet
EndChar

StartChar: jy.cec.3
Encoding: 150 -1 217
Width: 0
VWidth: 0
Flags: W
HStem: -155 50<145 795> 35 50<145 795> 225 50<145 795>
VStem: 95 50<-105 35 85 225> 795 50<-105 35 85 225>
AnchorPoint: "Above" 470 0 mark 0
LayerCount: 2
Fore
SplineSet
145 225 m 1
 145 -105 l 1
 795 -105 l 1
 795 225 l 1
 145 225 l 1
120 275 m 2
 820 275 l 2
 835.132537856 275 845 260.729904333 845 250 c 2
 845 -130 l 2
 845 -145.132537856 830.729904333 -155 820 -155 c 2
 120 -155 l 2
 104.867462144 -155 95 -140.729904333 95 -130 c 2
 95 250 l 2
 95 265.132537856 109.270095667 275 120 275 c 2
EndSplineSet
EndChar

StartChar: yhy.cec.3
Encoding: 151 -1 218
Width: 0
VWidth: 0
Flags: W
HStem: -155 50<145 795> 35 50<145 795> 225 50<145 795>
VStem: 95 50<-105 35 85 225> 795 50<-105 35 85 225>
AnchorPoint: "Above" 470 0 mark 0
LayerCount: 2
Fore
SplineSet
145 225 m 1
 145 -105 l 1
 795 -105 l 1
 795 225 l 1
 145 225 l 1
120 275 m 2
 820 275 l 2
 835.132537856 275 845 260.729904333 845 250 c 2
 845 -130 l 2
 845 -145.132537856 830.729904333 -155 820 -155 c 2
 120 -155 l 2
 104.867462144 -155 95 -140.729904333 95 -130 c 2
 95 250 l 2
 95 265.132537856 109.270095667 275 120 275 c 2
EndSplineSet
EndChar

StartChar: uy.cec.3
Encoding: 152 -1 219
Width: 0
VWidth: 0
Flags: W
HStem: -155 50<145 795> 35 50<145 795> 225 50<145 795>
VStem: 95 50<-105 35 85 225> 795 50<-105 35 85 225>
AnchorPoint: "Above" 470 0 mark 0
LayerCount: 2
Fore
SplineSet
145 225 m 1
 145 -105 l 1
 795 -105 l 1
 795 225 l 1
 145 225 l 1
120 275 m 2
 820 275 l 2
 835.132537856 275 845 260.729904333 845 250 c 2
 845 -130 l 2
 845 -145.132537856 830.729904333 -155 820 -155 c 2
 120 -155 l 2
 104.867462144 -155 95 -140.729904333 95 -130 c 2
 95 250 l 2
 95 265.132537856 109.270095667 275 120 275 c 2
EndSplineSet
EndChar

StartChar: ly.cec.3
Encoding: 153 -1 220
Width: 0
VWidth: 0
Flags: W
HStem: -155 50<95 795> 35 50<145 795> 225 50<145 845>
VStem: 95 50<85 225> 795 50<-105 35>
CounterMasks: 1 e0
AnchorPoint: "Above" 470 0 mark 0
LayerCount: 2
Back
SplineSet
820 250 m 29
 120 250 l 29
 120 60 l 29
 820 60 l 29
 820 -130 l 29
 120 -130 l 1053
EndSplineSet
Fore
SplineSet
845 250 m 1
 845 225 l 1
 820 225 l 1
 145 225 l 1
 145 85 l 1
 820 85 l 2
 835.132537856 85 845 70.7299043327 845 60 c 2
 845 -130 l 2
 845 -145.132537856 830.729904333 -155 820 -155 c 2
 120 -155 l 1
 95 -155 l 1
 95 -130 l 1
 95 -105 l 1
 120 -105 l 1
 795 -105 l 1
 795 35 l 1
 120 35 l 2
 109.270095667 35 95 44.8674621445 95 60 c 2
 95 250 l 2
 95 260.729904333 104.867462144 275 120 275 c 2
 820 275 l 1
 845 275 l 1
 845 250 l 1
EndSplineSet
EndChar

StartChar: eibu.cec.2
Encoding: 122 -1 221
Width: 0
VWidth: 0
Flags: W
HStem: 461 50<715 795> 571 50<715 795>
VStem: 715 130<461 511 571 621> 795 50<325 461 511 571 621 745>
AnchorPoint: "Above" 470 0 mark 0
LayerCount: 2
Back
SplineSet
740 596 m 29
 820 596 l 1053
740 486 m 29
 820 486 l 1053
820 720 m 5
 820 350 l 1029
EndSplineSet
Fore
SplineSet
820 745 m 1xd0
 845 745 l 1
 845 720 l 1xd0
 845 621 l 1
 845 596 l 1
 845 571 l 1
 845 511 l 1
 845 486 l 1
 845 461 l 1xe0
 845 350 l 1
 845 325 l 1
 820 325 l 1
 795 325 l 1
 795 350 l 1
 795 461 l 1xd0
 740 461 l 1
 715 461 l 1
 715 486 l 1
 715 511 l 1xe0
 740 511 l 1
 795 511 l 1
 795 571 l 1xd0
 740 571 l 1
 715 571 l 1
 715 596 l 1
 715 621 l 1xe0
 740 621 l 1
 795 621 l 1
 795 720 l 1
 795 745 l 1
 820 745 l 1xd0
EndSplineSet
EndChar

StartChar: obu.cec.2
Encoding: 107 -1 222
Width: 0
VWidth: 0
Flags: W
HStem: 520 50<765 845>
VStem: 715 50<325 520 570 755>
AnchorPoint: "Above" 470 0 mark 0
LayerCount: 2
Back
SplineSet
820 545 m 1
 740 545 l 1025
740 730 m 1
 740 350 l 1025
EndSplineSet
Fore
SplineSet
740 755 m 1
 765 755 l 1
 765 730 l 1
 765 570 l 1
 820 570 l 1
 845 570 l 1
 845 545 l 1
 845 520 l 1
 820 520 l 1
 765 520 l 1
 765 350 l 1
 765 325 l 1
 740 325 l 1
 715 325 l 1
 715 350 l 1
 715 520 l 1
 715 545 l 1
 715 570 l 1
 715 730 l 1
 715 755 l 1
 740 755 l 1
EndSplineSet
EndChar

StartChar: oibu.cec.2
Encoding: 123 -1 223
Width: 0
VWidth: 0
Flags: W
HStem: 461 50<765 845> 571 50<765 845>
VStem: 715 130<461 511 571 621> 715 50<325 461 511 571 621 745>
AnchorPoint: "Above" 470 0 mark 0
LayerCount: 2
Back
SplineSet
820 596 m 29
 740 596 l 1053
820 486 m 29
 740 486 l 1053
740 720 m 5
 740 350 l 1029
EndSplineSet
Fore
SplineSet
740 745 m 1xd0
 765 745 l 1
 765 720 l 1
 765 621 l 1xd0
 820 621 l 1
 845 621 l 1
 845 596 l 1
 845 571 l 1xe0
 820 571 l 1
 765 571 l 1
 765 511 l 1xd0
 820 511 l 1
 845 511 l 1
 845 486 l 1
 845 461 l 1xe0
 820 461 l 1
 765 461 l 1
 765 350 l 1
 765 325 l 1
 740 325 l 1
 715 325 l 1
 715 350 l 1xd0
 715 461 l 1
 715 486 l 1
 715 511 l 1
 715 571 l 1
 715 596 l 1
 715 621 l 1xe0
 715 720 l 1
 715 745 l 1
 740 745 l 1xd0
EndSplineSet
EndChar

StartChar: ybu.cec.2
Encoding: 111 -1 224
Width: 0
VWidth: 0
Flags: W
VStem: 795 50<325 745>
AnchorPoint: "Above" 470 0 mark 0
LayerCount: 2
Back
SplineSet
820 720 m 5
 820 350 l 1029
EndSplineSet
Fore
SplineSet
820 745 m 1
 845 745 l 1
 845 720 l 1
 845 350 l 1
 845 325 l 1
 820 325 l 1
 795 325 l 1
 795 350 l 1
 795 720 l 1
 795 745 l 1
 820 745 l 1
EndSplineSet
EndChar
